Perun-Thin.ufo
<glyph name="exclam" format="2">
  <advance width="160.0"/>
  <unicode hex="0021"/>
  <outline>
    <contour>
      <point x="91" y="0" type="line"/>
      <point x="91" y="95" type="line"/>
      <point x="69" y="95" type="line"/>
      <point x="69" y="0" type="line"/>
    </contour>
    <contour>
      <point x="100" y="722" type="line"/>
      <point x="60" y="722" type="line"/>
      <point x="75" y="169" type="line"/>
      <point x="85" y="169" type="line"/>
    </contour>
  </outline>
</glyph>
<glyph name="numbersign" format="2">
  <advance width="745.0"/>
  <unicode hex="0023"/>
  <outline>
    <contour>
      <point x="140" y="0" type="line"/>
      <point x="360" y="722" type="line"/>
      <point x="381" y="722" type="line"/>
      <point x="161" y="0" type="line"/>
    </contour>
    <contour>
      <point x="323" y="0" type="line"/>
      <point x="543" y="722" type="line"/>
      <point x="564" y="722" type="line"/>
      <point x="344" y="0" type="line"/>
    </contour>
    <contour>
      <point x="135" y="513" type="line"/>
      <point x="696" y="513" type="line"/>
      <point x="690" y="493" type="line"/>
      <point x="129" y="493" type="line"/>
    </contour>
    <contour>
      <point x="64" y="288" type="line"/>
      <point x="625" y="288" type="line"/>
      <point x="619" y="268" type="line"/>
      <point x="58" y="268" type="line"/>
    </contour>
  </outline>
</glyph>
<glyph name="ampersand" format="2">
  <advance width="717.0"/>
  <unicode hex="0026"/>
  <outline>
    <contour>
      <point x="614" y="0" type="line"/>
      <point x="199" y="458" type="line" smooth="yes"/>
      <point x="166" y="494"/>
      <point x="139" y="552"/>
      <point x="139" y="586" type="qcurve" smooth="yes"/>
      <point x="139" y="633"/>
      <point x="180" y="700"/>
      <point x="258" y="736"/>
      <point x="313" y="736" type="qcurve" smooth="yes"/>
      <point x="364" y="736"/>
      <point x="436" y="704"/>
      <point x="474" y="644"/>
      <point x="474" y="602" type="qcurve" smooth="yes"/>
      <point x="474" y="562"/>
      <point x="436" y="499"/>
      <point x="394" y="471" type="qcurve" smooth="yes"/>
      <point x="272" y="389" type="line"/>
      <point x="261" y="405" type="line"/>
      <point x="386" y="488" type="line" smooth="yes"/>
      <point x="421" y="510"/>
      <point x="454" y="567"/>
      <point x="454" y="603" type="qcurve" smooth="yes"/>
      <point x="454" y="657"/>
      <point x="382" y="716"/>
      <point x="314" y="716" type="qcurve" smooth="yes"/>
      <point x="241" y="716"/>
      <point x="159" y="648"/>
      <point x="159" y="590" type="qcurve" smooth="yes"/>
      <point x="159" y="556"/>
      <point x="187" y="496"/>
      <point x="217" y="463" type="qcurve" smooth="yes"/>
      <point x="642" y="0" type="line"/>
    </contour>
    <contour>
      <point x="67" y="166" type="qcurve" smooth="yes"/>
      <point x="67" y="221"/>
      <point x="130" y="320"/>
      <point x="185" y="356" type="qcurve" smooth="yes"/>
      <point x="257" y="402" type="line"/>
      <point x="269" y="387" type="line"/>
      <point x="202" y="345" type="line" smooth="yes"/>
      <point x="148" y="312"/>
      <point x="87" y="218"/>
      <point x="87" y="167" type="qcurve" smooth="yes"/>
      <point x="87" y="121"/>
      <point x="138" y="50"/>
      <point x="230" y="10"/>
      <point x="292" y="10" type="qcurve" smooth="yes"/>
      <point x="327" y="10"/>
      <point x="409" y="38"/>
      <point x="487" y="86"/>
      <point x="516" y="116" type="qcurve"/>
      <point x="529" y="103" type="line"/>
      <point x="488" y="64"/>
      <point x="408" y="14"/>
      <point x="326" y="-10"/>
      <point x="281" y="-10" type="qcurve" smooth="yes"/>
      <point x="217" y="-10"/>
      <point x="121" y="35"/>
      <point x="67" y="115"/>
    </contour>
    <contour>
      <point x="532" y="107" type="qcurve"/>
      <point x="520" y="120" type="line"/>
      <point x="573" y="186"/>
      <point x="628" y="322"/>
      <point x="628" y="387" type="qcurve" smooth="yes"/>
      <point x="628" y="410"/>
      <point x="626" y="420" type="qcurve"/>
      <point x="627" y="422" type="line"/>
      <point x="648" y="422" type="line"/>
      <point x="648" y="364"/>
      <point x="620" y="249"/>
      <point x="568" y="147"/>
    </contour>
  </outline>
</glyph>
<glyph name="quotesingle" format="2">
  <advance width="140.0"/>
  <unicode hex="0027"/>
  <outline>
    <contour>
      <point x="65" y="434" type="line"/>
      <point x="60" y="722" type="line"/>
      <point x="80" y="722" type="line"/>
      <point x="75" y="434" type="line"/>
    </contour>
  </outline>
</glyph>
<glyph name="parenleft" format="2">
  <advance width="253.0"/>
  <unicode hex="0028"/>
  <outline>
    <contour>
      <point x="193" y="-133" type="line"/>
      <point x="80" y="73"/>
      <point x="80" y="301" type="qcurve" smooth="yes"/>
      <point x="80" y="530"/>
      <point x="193" y="736" type="qcurve"/>
      <point x="203" y="736" type="line"/>
      <point x="153" y="631"/>
      <point x="100" y="410"/>
      <point x="100" y="304" type="qcurve" smooth="yes"/>
      <point x="100" y="242"/>
      <point x="123" y="92"/>
      <point x="169" y="-64"/>
      <point x="203" y="-133" type="qcurve"/>
    </contour>
  </outline>
</glyph>
<glyph name="parenright" format="2">
  <advance width="359.0"/>
  <unicode hex="0029"/>
  <outline>
    <contour>
      <point x="146" y="-130" type="line"/>
      <point x="249" y="66"/>
      <point x="249" y="306" type="qcurve" smooth="yes"/>
      <point x="249" y="422"/>
      <point x="197" y="641"/>
      <point x="146" y="738" type="qcurve"/>
      <point x="156" y="738" type="line"/>
      <point x="269" y="532"/>
      <point x="269" y="303" type="qcurve" smooth="yes"/>
      <point x="269" y="76"/>
      <point x="156" y="-130" type="qcurve"/>
    </contour>
  </outline>
</glyph>
<glyph name="asterisk" format="2">
  <advance width="656.0"/>
  <unicode hex="002A"/>
  <outline>
    <contour>
      <point x="209" y="366" type="line"/>
      <point x="329" y="527" type="line"/>
      <point x="128" y="516" type="line"/>
      <point x="128" y="540" type="line"/>
      <point x="329" y="527" type="line"/>
      <point x="214" y="695" type="line"/>
      <point x="235" y="706" type="line"/>
      <point x="329" y="527" type="line"/>
      <point x="418" y="709" type="line"/>
      <point x="441" y="696" type="line"/>
      <point x="329" y="527" type="line"/>
      <point x="529" y="540" type="line"/>
      <point x="529" y="516" type="line"/>
      <point x="329" y="527" type="line"/>
      <point x="440" y="361" type="line"/>
      <point x="419" y="349" type="line"/>
      <point x="329" y="527" type="line"/>
      <point x="230" y="355" type="line"/>
    </contour>
  </outline>
</glyph>
<glyph name="plus" format="2">
  <advance width="740.0"/>
  <unicode hex="002B"/>
  <outline>
    <contour>
      <point x="70" y="290" type="line"/>
      <point x="70" y="310" type="line"/>
      <point x="360" y="310" type="line"/>
      <point x="360" y="600" type="line"/>
      <point x="380" y="600" type="line"/>
      <point x="380" y="310" type="line"/>
      <point x="670" y="310" type="line"/>
      <point x="670" y="290" type="line"/>
      <point x="380" y="290" type="line"/>
      <point x="380" y="0" type="line"/>
      <point x="360" y="0" type="line"/>
      <point x="360" y="290" type="line"/>
    </contour>
  </outline>
</glyph>
<glyph name="comma" format="2">
  <advance width="275.0"/>
  <unicode hex="002C"/>
  <outline>
    <contour>
      <point x="48" y="-127" type="line"/>
      <point x="128" y="123" type="line"/>
      <point x="158" y="123" type="line"/>
      <point x="58" y="-127" type="line"/>
    </contour>
  </outline>
</glyph>
<glyph name="period" format="2">
  <advance width="142.0"/>
  <unicode hex="002E"/>
  <outline>
    <contour>
      <point x="60" y="0" type="line"/>
      <point x="60" y="123" type="line"/>
      <point x="82" y="123" type="line"/>
      <point x="82" y="0" type="line"/>
    </contour>
  </outline>
</glyph>
<glyph name="slash" format="2">
  <advance width="396.0"/>
  <unicode hex="002F"/>
  <outline>
    <contour>
      <point x="46" y="-52" type="line"/>
      <point x="282" y="736" type="line"/>
      <point x="303" y="736" type="line"/>
      <point x="67" y="-52" type="line"/>
    </contour>
  </outline>
</glyph>
<glyph name="zero" format="2">
  <advance width="558.0"/>
  <unicode hex="0030"/>
  <outline>
    <contour>
      <point x="51" y="377" type="qcurve" smooth="yes"/>
      <point x="51" y="449"/>
      <point x="72" y="577"/>
      <point x="123" y="675"/>
      <point x="211" y="732"/>
      <point x="277" y="732" type="qcurve" smooth="yes"/>
      <point x="348" y="732"/>
      <point x="438" y="671"/>
      <point x="490" y="567"/>
      <point x="510" y="440"/>
      <point x="510" y="374" type="qcurve" smooth="yes"/>
      <point x="510" y="300"/>
      <point x="490" y="163"/>
      <point x="440" y="54"/>
      <point x="353" y="-10"/>
      <point x="285" y="-10" type="qcurve" smooth="yes"/>
      <point x="227" y="-10"/>
      <point x="146" y="36"/>
      <point x="93" y="114"/>
      <point x="63" y="214"/>
      <point x="51" y="324"/>
    </contour>
    <contour>
      <point x="71" y="381" type="qcurve" smooth="yes"/>
      <point x="71" y="310"/>
      <point x="89" y="191"/>
      <point x="125" y="98"/>
      <point x="176" y="34"/>
      <point x="240" y="0"/>
      <point x="279" y="0" type="qcurve" smooth="yes"/>
      <point x="321" y="0"/>
      <point x="389" y="30"/>
      <point x="439" y="90"/>
      <point x="473" y="179"/>
      <point x="490" y="298"/>
      <point x="490" y="373" type="qcurve" smooth="yes"/>
      <point x="490" y="439"/>
      <point x="472" y="549"/>
      <point x="438" y="634"/>
      <point x="388" y="692"/>
      <point x="324" y="722"/>
      <point x="285" y="722" type="qcurve" smooth="yes"/>
      <point x="241" y="722"/>
      <point x="171" y="697"/>
      <point x="120" y="644"/>
      <point x="87" y="562"/>
      <point x="71" y="452"/>
    </contour>
  </outline>
</glyph>
<glyph name="one" format="2">
  <advance width="558.0"/>
  <unicode hex="0031"/>
  <outline>
    <contour>
      <point x="286" y="0" type="line"/>
      <point x="286" y="703" type="line"/>
      <point x="259" y="673"/>
      <point x="180" y="614"/>
      <point x="130" y="592" type="qcurve"/>
      <point x="130" y="602" type="line"/>
      <point x="156" y="618"/>
      <point x="219" y="664"/>
      <point x="270" y="709"/>
      <point x="279" y="722" type="qcurve"/>
      <point x="306" y="722" type="line"/>
      <point x="306" y="0" type="line"/>
    </contour>
  </outline>
</glyph>
<glyph name="two" format="2">
  <advance width="558.0"/>
  <unicode hex="0032"/>
  <outline>
    <contour>
      <point x="60" y="0" type="line"/>
      <point x="60" y="20" type="line"/>
      <point x="121" y="62"/>
      <point x="241" y="168"/>
      <point x="347" y="285"/>
      <point x="428" y="397"/>
      <point x="475" y="493"/>
      <point x="475" y="526" type="qcurve" smooth="yes"/>
      <point x="475" y="580"/>
      <point x="426" y="664"/>
      <point x="341" y="712"/>
      <point x="287" y="712" type="qcurve" smooth="yes"/>
      <point x="195" y="712"/>
      <point x="99" y="622"/>
      <point x="88" y="526" type="qcurve"/>
      <point x="68" y="526" type="line"/>
      <point x="74" y="596"/>
      <point x="125" y="687"/>
      <point x="218" y="732"/>
      <point x="284" y="732" type="qcurve" smooth="yes"/>
      <point x="345" y="732"/>
      <point x="440" y="681"/>
      <point x="495" y="591"/>
      <point x="495" y="531" type="qcurve" smooth="yes"/>
      <point x="495" y="479"/>
      <point x="436" y="362"/>
      <point x="340" y="244"/>
      <point x="227" y="134"/>
      <point x="119" y="44"/>
      <point x="77" y="14" type="qcurve"/>
      <point x="71" y="20" type="line"/>
      <point x="495" y="20" type="line"/>
      <point x="495" y="0" type="line"/>
    </contour>
  </outline>
</glyph>
<glyph name="three" format="2">
  <advance width="558.0"/>
  <unicode hex="0033"/>
  <outline>
    <contour>
      <point x="46" y="190" type="qcurve"/>
      <point x="66" y="190" type="line"/>
      <point x="66" y="134"/>
      <point x="120" y="53"/>
      <point x="215" y="10"/>
      <point x="278" y="10" type="qcurve" smooth="yes"/>
      <point x="376" y="10"/>
      <point x="493" y="115"/>
      <point x="493" y="208" type="qcurve" smooth="yes"/>
      <point x="493" y="249"/>
      <point x="448" y="321"/>
      <point x="375" y="366"/>
      <point x="334" y="366" type="qcurve" smooth="yes"/>
      <point x="210" y="366" type="line"/>
      <point x="210" y="386" type="line"/>
      <point x="323" y="386" type="line" smooth="yes"/>
      <point x="366" y="386"/>
      <point x="438" y="429"/>
      <point x="482" y="499"/>
      <point x="482" y="540" type="qcurve" smooth="yes"/>
      <point x="482" y="622"/>
      <point x="383" y="712"/>
      <point x="295" y="712" type="qcurve" smooth="yes"/>
      <point x="231" y="712"/>
      <point x="134" y="666"/>
      <point x="81" y="585"/>
      <point x="81" y="532" type="qcurve"/>
      <point x="61" y="532" type="line"/>
      <point x="61" y="591"/>
      <point x="120" y="681"/>
      <point x="225" y="732"/>
      <point x="294" y="732" type="qcurve" smooth="yes"/>
      <point x="356" y="732"/>
      <point x="450" y="688"/>
      <point x="501" y="607"/>
      <point x="501" y="550" type="qcurve" smooth="yes"/>
      <point x="501" y="485"/>
      <point x="433" y="395"/>
      <point x="373" y="377" type="qcurve"/>
      <point x="373" y="381" type="line"/>
      <point x="414" y="369"/>
      <point x="477" y="315"/>
      <point x="513" y="245"/>
      <point x="513" y="206" type="qcurve" smooth="yes"/>
      <point x="513" y="138"/>
      <point x="454" y="41"/>
      <point x="347" y="-10"/>
      <point x="277" y="-10" type="qcurve" smooth="yes"/>
      <point x="208" y="-10"/>
      <point x="104" y="38"/>
      <point x="46" y="128"/>
    </contour>
  </outline>
</glyph>
<glyph name="four" format="2">
  <advance width="558.0"/>
  <unicode hex="0034"/>
  <outline>
    <contour>
      <point x="50" y="176" type="line"/>
      <point x="50" y="203" type="line"/>
      <point x="410" y="722" type="line"/>
      <point x="440" y="722" type="line"/>
      <point x="440" y="0" type="line"/>
      <point x="420" y="0" type="line"/>
      <point x="420" y="714" type="line"/>
      <point x="427" y="712" type="line"/>
      <point x="63" y="186" type="line"/>
      <point x="58" y="196" type="line"/>
      <point x="427" y="196" type="line"/>
      <point x="427" y="176" type="line"/>
    </contour>
    <contour>
      <point x="432" y="176" type="line"/>
      <point x="432" y="196" type="line"/>
      <point x="529" y="196" type="line"/>
      <point x="529" y="176" type="line"/>
    </contour>
  </outline>
</glyph>
<glyph name="five" format="2">
  <advance width="558.0"/>
  <unicode hex="0035"/>
  <outline>
    <contour>
      <point x="53" y="176" type="qcurve"/>
      <point x="73" y="176" type="line"/>
      <point x="73" y="101"/>
      <point x="186" y="10"/>
      <point x="279" y="10" type="qcurve" smooth="yes"/>
      <point x="344" y="10"/>
      <point x="437" y="66"/>
      <point x="486" y="172"/>
      <point x="486" y="246" type="qcurve" smooth="yes"/>
      <point x="486" y="348"/>
      <point x="394" y="460"/>
      <point x="310" y="460" type="qcurve" smooth="yes"/>
      <point x="228" y="460"/>
      <point x="126" y="388"/>
      <point x="87" y="302" type="qcurve"/>
      <point x="77" y="302" type="line"/>
      <point x="77" y="722" type="line"/>
      <point x="460" y="722" type="line"/>
      <point x="460" y="702" type="line"/>
      <point x="85" y="702" type="line"/>
      <point x="97" y="714" type="line"/>
      <point x="97" y="336" type="line"/>
      <point x="91" y="341" type="line"/>
      <point x="120" y="410"/>
      <point x="232" y="480"/>
      <point x="314" y="480" type="qcurve" smooth="yes"/>
      <point x="371" y="480"/>
      <point x="457" y="426"/>
      <point x="506" y="323"/>
      <point x="506" y="250" type="qcurve" smooth="yes"/>
      <point x="506" y="186"/>
      <point x="474" y="89"/>
      <point x="415" y="24"/>
      <point x="333" y="-10"/>
      <point x="283" y="-10" type="qcurve" smooth="yes"/>
      <point x="213" y="-10"/>
      <point x="110" y="36"/>
      <point x="53" y="120"/>
    </contour>
  </outline>
</glyph>
<glyph name="six" format="2">
  <advance width="558.0"/>
  <unicode hex="0036"/>
  <outline>
    <contour>
      <point x="78" y="214" type="qcurve" smooth="yes"/>
      <point x="78" y="121"/>
      <point x="183" y="10"/>
      <point x="280" y="10" type="qcurve" smooth="yes"/>
      <point x="379" y="10"/>
      <point x="492" y="125"/>
      <point x="492" y="225" type="qcurve" smooth="yes"/>
      <point x="492" y="320"/>
      <point x="387" y="426"/>
      <point x="291" y="426" type="qcurve" smooth="yes"/>
      <point x="192" y="426"/>
      <point x="78" y="313"/>
    </contour>
    <contour>
      <point x="47" y="311" type="qcurve" smooth="yes"/>
      <point x="47" y="418"/>
      <point x="77" y="577"/>
      <point x="139" y="681"/>
      <point x="231" y="732"/>
      <point x="293" y="732" type="qcurve" smooth="yes"/>
      <point x="353" y="732"/>
      <point x="442" y="687"/>
      <point x="492" y="606"/>
      <point x="492" y="550" type="qcurve"/>
      <point x="472" y="550" type="line"/>
      <point x="472" y="626"/>
      <point x="378" y="712"/>
      <point x="296" y="712" type="qcurve" smooth="yes"/>
      <point x="230" y="712"/>
      <point x="140" y="654"/>
      <point x="86" y="542"/>
      <point x="62" y="377"/>
      <point x="62" y="269" type="qcurve"/>
      <point x="82" y="357"/>
      <point x="196" y="446"/>
      <point x="286" y="446" type="qcurve" smooth="yes"/>
      <point x="358" y="446"/>
      <point x="459" y="392"/>
      <point x="512" y="291"/>
      <point x="512" y="222" type="qcurve" smooth="yes"/>
      <point x="512" y="148"/>
      <point x="454" y="44"/>
      <point x="347" y="-10"/>
      <point x="275" y="-10" type="qcurve" smooth="yes"/>
      <point x="216" y="-10"/>
      <point x="130" y="28"/>
      <point x="74" y="106"/>
      <point x="47" y="228"/>
    </contour>
  </outline>
</glyph>
<glyph name="seven" format="2">
  <advance width="558.0"/>
  <unicode hex="0037"/>
  <outline>
    <contour>
      <point x="155" y="0" type="line"/>
      <point x="486" y="713" type="line"/>
      <point x="493" y="702" type="line"/>
      <point x="57" y="702" type="line"/>
      <point x="57" y="722" type="line"/>
      <point x="502" y="722" type="line"/>
      <point x="502" y="700" type="line"/>
      <point x="177" y="0" type="line"/>
    </contour>
  </outline>
</glyph>
<glyph name="eight" format="2">
  <advance width="558.0"/>
  <unicode hex="0038"/>
  <outline>
    <contour>
      <point x="60" y="190" type="qcurve" smooth="yes"/>
      <point x="60" y="105"/>
      <point x="171" y="10"/>
      <point x="277" y="10" type="qcurve" smooth="yes"/>
      <point x="383" y="10"/>
      <point x="494" y="107"/>
      <point x="494" y="200" type="qcurve" smooth="yes"/>
      <point x="494" y="251"/>
      <point x="438" y="329"/>
      <point x="338" y="373"/>
      <point x="271" y="373" type="qcurve" smooth="yes"/>
      <point x="174" y="373"/>
      <point x="60" y="278"/>
    </contour>
    <contour>
      <point x="270" y="393" type="qcurve" smooth="yes"/>
      <point x="330" y="393"/>
      <point x="423" y="433"/>
      <point x="475" y="506"/>
      <point x="475" y="555" type="qcurve" smooth="yes"/>
      <point x="475" y="626"/>
      <point x="366" y="712"/>
      <point x="277" y="712" type="qcurve" smooth="yes"/>
      <point x="190" y="712"/>
      <point x="82" y="626"/>
      <point x="82" y="550" type="qcurve" smooth="yes"/>
      <point x="82" y="478"/>
      <point x="182" y="393"/>
    </contour>
    <contour>
      <point x="514" y="188" type="qcurve" smooth="yes"/>
      <point x="514" y="126"/>
      <point x="455" y="37"/>
      <point x="349" y="-10"/>
      <point x="276" y="-10" type="qcurve" smooth="yes"/>
      <point x="168" y="-10"/>
      <point x="40" y="95"/>
      <point x="40" y="188" type="qcurve" smooth="yes"/>
      <point x="40" y="257"/>
      <point x="116" y="361"/>
      <point x="196" y="383" type="qcurve"/>
      <point x="127" y="405"/>
      <point x="62" y="496"/>
      <point x="62" y="552" type="qcurve" smooth="yes"/>
      <point x="62" y="606"/>
      <point x="117" y="687"/>
      <point x="215" y="732"/>
      <point x="278" y="732" type="qcurve" smooth="yes"/>
      <point x="341" y="732"/>
      <point x="439" y="687"/>
      <point x="495" y="606"/>
      <point x="495" y="550" type="qcurve" smooth="yes"/>
      <point x="495" y="499"/>
      <point x="433" y="412"/>
      <point x="351" y="384" type="qcurve"/>
      <point x="427" y="363"/>
      <point x="514" y="263"/>
    </contour>
  </outline>
</glyph>
<glyph name="nine" format="2">
  <advance width="558.0"/>
  <unicode hex="0039"/>
  <outline>
    <contour>
      <point x="276" y="298" type="qcurve" smooth="yes"/>
      <point x="311" y="298"/>
      <point x="385" y="320"/>
      <point x="448" y="369"/>
      <point x="487" y="450"/>
      <point x="487" y="510" type="qcurve" smooth="yes"/>
      <point x="487" y="605"/>
      <point x="377" y="712"/>
      <point x="276" y="712" type="qcurve" smooth="yes"/>
      <point x="176" y="712"/>
      <point x="68" y="604"/>
      <point x="68" y="501" type="qcurve" smooth="yes"/>
      <point x="68" y="402"/>
      <point x="172" y="298"/>
    </contour>
    <contour>
      <point x="87" y="172" type="line"/>
      <point x="87" y="92"/>
      <point x="177" y="10"/>
      <point x="264" y="10" type="qcurve" smooth="yes"/>
      <point x="309" y="10"/>
      <point x="382" y="42"/>
      <point x="437" y="108"/>
      <point x="474" y="209"/>
      <point x="493" y="346"/>
      <point x="493" y="434" type="qcurve"/>
      <point x="483" y="387"/>
      <point x="418" y="317"/>
      <point x="322" y="278"/>
      <point x="264" y="278" type="qcurve" smooth="yes"/>
      <point x="197" y="278"/>
      <point x="100" y="332"/>
      <point x="48" y="434"/>
      <point x="48" y="505" type="qcurve" smooth="yes"/>
      <point x="48" y="569"/>
      <point x="95" y="672"/>
      <point x="197" y="732"/>
      <point x="278" y="732" type="qcurve" smooth="yes"/>
      <point x="336" y="732"/>
      <point x="423" y="698"/>
      <point x="482" y="631"/>
      <point x="512" y="531"/>
      <point x="512" y="463" type="qcurve" smooth="yes"/>
      <point x="512" y="340"/>
      <point x="482" y="161"/>
      <point x="420" y="46"/>
      <point x="323" y="-10"/>
      <point x="256" y="-10" type="qcurve" smooth="yes"/>
      <point x="195" y="-10"/>
      <point x="111" y="33"/>
      <point x="67" y="114"/>
      <point x="67" y="172" type="qcurve"/>
    </contour>
  </outline>
</glyph>
<glyph name="colon" format="2">
  <advance width="142.0"/>
  <unicode hex="003A"/>
  <outline>
    <contour>
      <point x="60" y="0" type="line"/>
      <point x="60" y="123" type="line"/>
      <point x="82" y="123" type="line"/>
      <point x="82" y="0" type="line"/>
    </contour>
    <contour>
      <point x="60" y="377" type="line"/>
      <point x="60" y="500" type="line"/>
      <point x="82" y="500" type="line"/>
      <point x="82" y="377" type="line"/>
    </contour>
  </outline>
</glyph>
<glyph name="semicolon" format="2">
  <advance width="275.0"/>
  <unicode hex="003B"/>
  <outline>
    <contour>
      <point x="-2" y="-127" type="line"/>
      <point x="78" y="123" type="line"/>
      <point x="108" y="123" type="line"/>
      <point x="8" y="-127" type="line"/>
    </contour>
    <contour>
      <point x="80" y="377" type="line"/>
      <point x="80" y="500" type="line"/>
      <point x="102" y="500" type="line"/>
      <point x="102" y="377" type="line"/>
    </contour>
  </outline>
</glyph>
<glyph name="less" format="2">
  <advance width="700.0"/>
  <unicode hex="003C"/>
  <outline>
    <contour>
      <point x="50" y="289" type="line"/>
      <point x="50" y="311" type="line"/>
      <point x="650" y="541" type="line"/>
      <point x="650" y="520" type="line"/>
      <point x="68" y="296" type="line"/>
      <point x="68" y="304" type="line"/>
      <point x="650" y="80" type="line"/>
      <point x="650" y="59" type="line"/>
    </contour>
  </outline>
</glyph>
<glyph name="equal" format="2">
  <advance width="700.0"/>
  <unicode hex="003D"/>
  <outline>
    <contour>
      <point x="50" y="199" type="line"/>
      <point x="50" y="219" type="line"/>
      <point x="650" y="219" type="line"/>
      <point x="650" y="199" type="line"/>
    </contour>
    <contour>
      <point x="50" y="381" type="line"/>
      <point x="50" y="401" type="line"/>
      <point x="650" y="401" type="line"/>
      <point x="650" y="381" type="line"/>
    </contour>
  </outline>
</glyph>
<glyph name="greater" format="2">
  <advance width="700.0"/>
  <unicode hex="003E"/>
  <outline>
    <contour>
      <point x="650" y="289" type="line"/>
      <point x="50" y="59" type="line"/>
      <point x="50" y="80" type="line"/>
      <point x="632" y="304" type="line"/>
      <point x="632" y="296" type="line"/>
      <point x="50" y="520" type="line"/>
      <point x="50" y="541" type="line"/>
      <point x="650" y="311" type="line"/>
    </contour>
  </outline>
</glyph>
<glyph name="question" format="2">
  <advance width="516.0"/>
  <unicode hex="003F"/>
  <outline>
    <contour>
      <point x="208" y="0" type="line"/>
      <point x="208" y="123" type="line"/>
      <point x="230" y="123" type="line"/>
      <point x="230" y="0" type="line"/>
    </contour>
    <contour>
      <point x="400" y="558" type="qcurve" smooth="yes"/>
      <point x="400" y="634"/>
      <point x="315" y="717"/>
      <point x="236" y="717" type="qcurve" smooth="yes"/>
      <point x="188" y="717"/>
      <point x="118" y="681"/>
      <point x="69" y="623"/>
      <point x="51" y="589" type="qcurve"/>
      <point x="35" y="599" type="line"/>
      <point x="68" y="663"/>
      <point x="164" y="737"/>
      <point x="235" y="737" type="qcurve" smooth="yes"/>
      <point x="293" y="737"/>
      <point x="376" y="696"/>
      <point x="420" y="614"/>
      <point x="420" y="553" type="qcurve" smooth="yes"/>
      <point x="420" y="517"/>
      <point x="392" y="469"/>
      <point x="349" y="433"/>
      <point x="300" y="399"/>
      <point x="257" y="360"/>
      <point x="229" y="304"/>
      <point x="229" y="263" type="qcurve" smooth="yes"/>
      <point x="229" y="195" type="line"/>
      <point x="209" y="195" type="line"/>
      <point x="209" y="263" type="line" smooth="yes"/>
      <point x="209" y="309"/>
      <point x="237" y="369"/>
      <point x="280" y="410"/>
      <point x="329" y="442"/>
      <point x="372" y="476"/>
      <point x="400" y="523"/>
    </contour>
  </outline>
</glyph>
<glyph name="at" format="2">
  <advance width="1000.0"/>
  <unicode hex="0040"/>
  <outline>
    <contour>
      <point x="477" y="46" type="qcurve" smooth="yes"/>
      <point x="506" y="46"/>
      <point x="561" y="84"/>
      <point x="606" y="148"/>
      <point x="632" y="227"/>
      <point x="632" y="268" type="qcurve" smooth="yes"/>
      <point x="632" y="334"/>
      <point x="595" y="425"/>
      <point x="525" y="472"/>
      <point x="477" y="472" type="qcurve" smooth="yes"/>
      <point x="427" y="472"/>
      <point x="346" y="417"/>
      <point x="298" y="324"/>
      <point x="298" y="267" type="qcurve" smooth="yes"/>
      <point x="298" y="200"/>
      <point x="342" y="101"/>
      <point x="423" y="46"/>
    </contour>
    <contour>
      <point x="681" y="-89" type="line"/>
      <point x="657" y="-106"/>
      <point x="603" y="-130"/>
      <point x="545" y="-143"/>
      <point x="516" y="-143" type="qcurve" smooth="yes"/>
      <point x="420" y="-143"/>
      <point x="265" y="-88"/>
      <point x="155" y="18"/>
      <point x="97" y="173"/>
      <point x="97" y="274" type="qcurve" smooth="yes"/>
      <point x="97" y="366"/>
      <point x="150" y="516"/>
      <point x="253" y="623"/>
      <point x="399" y="681"/>
      <point x="492" y="681" type="qcurve" smooth="yes"/>
      <point x="589" y="681"/>
      <point x="741" y="630"/>
      <point x="847" y="531"/>
      <point x="902" y="390"/>
      <point x="902" y="299" type="qcurve" smooth="yes"/>
      <point x="902" y="234"/>
      <point x="885" y="131"/>
      <point x="849" y="59"/>
      <point x="794" y="21"/>
      <point x="756" y="21" type="qcurve" smooth="yes"/>
      <point x="706" y="21"/>
      <point x="635" y="99"/>
      <point x="631" y="170" type="qcurve"/>
      <point x="616" y="137"/>
      <point x="569" y="71"/>
      <point x="507" y="26"/>
      <point x="472" y="26" type="qcurve" smooth="yes"/>
      <point x="416" y="26"/>
      <point x="329" y="85"/>
      <point x="278" y="193"/>
      <point x="278" y="266" type="qcurve" smooth="yes"/>
      <point x="278" y="316"/>
      <point x="309" y="398"/>
      <point x="363" y="459"/>
      <point x="434" y="492"/>
      <point x="473" y="492" type="qcurve" smooth="yes"/>
      <point x="512" y="492"/>
      <point x="578" y="464"/>
      <point x="624" y="415"/>
      <point x="632" y="383" type="qcurve"/>
      <point x="632" y="485" type="line"/>
      <point x="652" y="485" type="line"/>
      <point x="652" y="167" type="line" smooth="yes"/>
      <point x="652" y="131"/>
      <point x="682" y="74"/>
      <point x="731" y="41"/>
      <point x="758" y="41" type="qcurve" smooth="yes"/>
      <point x="789" y="41"/>
      <point x="835" y="78"/>
      <point x="866" y="147"/>
      <point x="882" y="241"/>
      <point x="882" y="299" type="qcurve" smooth="yes"/>
      <point x="882" y="410"/>
      <point x="788" y="573"/>
      <point x="617" y="661"/>
      <point x="500" y="661" type="qcurve" smooth="yes"/>
      <point x="410" y="661"/>
      <point x="268" y="606"/>
      <point x="169" y="504"/>
      <point x="117" y="362"/>
      <point x="117" y="275" type="qcurve" smooth="yes"/>
      <point x="117" y="148"/>
      <point x="214" y="-30"/>
      <point x="391" y="-123"/>
      <point x="511" y="-123" type="qcurve" smooth="yes"/>
      <point x="546" y="-123"/>
      <point x="601" y="-113"/>
      <point x="652" y="-90"/>
      <point x="681" y="-71" type="qcurve"/>
    </contour>
  </outline>
</glyph>
<glyph name="A" format="2">
  <advance width="706.0"/>
  <unicode hex="0041"/>
  <outline>
    <contour>
      <point x="40" y="0" type="line"/>
      <point x="343" y="722" type="line"/>
      <point x="363" y="722" type="line"/>
      <point x="666" y="0" type="line"/>
      <point x="643" y="0" type="line"/>
      <point x="347" y="716" type="line"/>
      <point x="359" y="716" type="line"/>
      <point x="63" y="0" type="line"/>
    </contour>
    <contour>
      <point x="551" y="248" type="line"/>
      <point x="558" y="230" type="line"/>
      <point x="148" y="230" type="line"/>
      <point x="156" y="248" type="line"/>
    </contour>
  </outline>
</glyph>
<glyph name="B" format="2">
  <advance width="575.0"/>
  <unicode hex="0042"/>
  <outline>
    <contour>
      <point x="81" y="0" type="line"/>
      <point x="81" y="20" type="line"/>
      <point x="290" y="20" type="line" smooth="yes"/>
      <point x="385" y="20"/>
      <point x="473" y="123"/>
      <point x="473" y="212" type="qcurve" smooth="yes"/>
      <point x="473" y="250"/>
      <point x="441" y="323"/>
      <point x="369" y="370"/>
      <point x="310" y="370" type="qcurve" smooth="yes"/>
      <point x="81" y="370" type="line"/>
      <point x="81" y="390" type="line"/>
      <point x="309" y="390" type="line" smooth="yes"/>
      <point x="370" y="390"/>
      <point x="447" y="471"/>
      <point x="447" y="545" type="qcurve" smooth="yes"/>
      <point x="447" y="619"/>
      <point x="369" y="702"/>
      <point x="278" y="702" type="qcurve" smooth="yes"/>
      <point x="81" y="702" type="line"/>
      <point x="81" y="722" type="line"/>
      <point x="282" y="722" type="line" smooth="yes"/>
      <point x="375" y="722"/>
      <point x="469" y="632"/>
      <point x="469" y="542" type="qcurve" smooth="yes"/>
      <point x="469" y="491"/>
      <point x="419" y="406"/>
      <point x="372" y="384" type="qcurve"/>
      <point x="372" y="381" type="line"/>
      <point x="431" y="365"/>
      <point x="495" y="276"/>
      <point x="495" y="208" type="qcurve" smooth="yes"/>
      <point x="495" y="150"/>
      <point x="455" y="56"/>
      <point x="369" y="0"/>
      <point x="298" y="0" type="qcurve" smooth="yes"/>
    </contour>
    <contour>
      <point x="70" y="0" type="line"/>
      <point x="70" y="722" type="line"/>
      <point x="92" y="722" type="line"/>
      <point x="92" y="0" type="line"/>
    </contour>
  </outline>
</glyph>
<glyph name="C" format="2">
  <advance width="660.0"/>
  <unicode hex="0043"/>
  <outline>
    <contour>
      <point x="60" y="361" type="qcurve" smooth="yes"/>
      <point x="60" y="470"/>
      <point x="118" y="637"/>
      <point x="249" y="732"/>
      <point x="358" y="732" type="qcurve" smooth="yes"/>
      <point x="435" y="732"/>
      <point x="542" y="683"/>
      <point x="601" y="590"/>
      <point x="606" y="525" type="qcurve"/>
      <point x="586" y="525" type="line"/>
      <point x="581" y="579"/>
      <point x="530" y="664"/>
      <point x="433" y="712"/>
      <point x="358" y="712" type="qcurve" smooth="yes"/>
      <point x="258" y="712"/>
      <point x="137" y="620"/>
      <point x="82" y="461"/>
      <point x="82" y="361" type="qcurve" smooth="yes"/>
      <point x="82" y="261"/>
      <point x="137" y="102"/>
      <point x="258" y="10"/>
      <point x="358" y="10" type="qcurve" smooth="yes"/>
      <point x="470" y="10"/>
      <point x="583" y="109"/>
      <point x="590" y="197" type="qcurve"/>
      <point x="610" y="197" type="line"/>
      <point x="605" y="132"/>
      <point x="546" y="39"/>
      <point x="438" y="-10"/>
      <point x="357" y="-10" type="qcurve" smooth="yes"/>
      <point x="249" y="-10"/>
      <point x="118" y="85"/>
      <point x="60" y="252"/>
    </contour>
  </outline>
</glyph>
<glyph name="D" format="2">
  <advance width="622.0"/>
  <unicode hex="0044"/>
  <outline>
    <contour>
      <point x="77" y="0" type="line"/>
      <point x="77" y="20" type="line"/>
      <point x="285" y="20" type="line" smooth="yes"/>
      <point x="367" y="20"/>
      <point x="485" y="106"/>
      <point x="550" y="260"/>
      <point x="550" y="363" type="qcurve" smooth="yes"/>
      <point x="550" y="465"/>
      <point x="485" y="617"/>
      <point x="367" y="702"/>
      <point x="285" y="702" type="qcurve" smooth="yes"/>
      <point x="77" y="702" type="line"/>
      <point x="77" y="722" type="line"/>
      <point x="285" y="722" type="line" smooth="yes"/>
      <point x="373" y="722"/>
      <point x="502" y="633"/>
      <point x="572" y="473"/>
      <point x="572" y="366" type="qcurve" smooth="yes"/>
      <point x="572" y="256"/>
      <point x="502" y="92"/>
      <point x="373" y="0"/>
      <point x="285" y="0" type="qcurve" smooth="yes"/>
    </contour>
    <contour>
      <point x="70" y="0" type="line"/>
      <point x="70" y="722" type="line"/>
      <point x="92" y="722" type="line"/>
      <point x="92" y="0" type="line"/>
    </contour>
  </outline>
</glyph>
<glyph name="E" format="2">
  <advance width="510.0"/>
  <unicode hex="0045"/>
  <outline>
    <contour>
      <point x="82" y="18" type="line"/>
      <point x="450" y="18" type="line"/>
      <point x="450" y="0" type="line"/>
      <point x="82" y="0" type="line"/>
    </contour>
    <contour>
      <point x="82" y="378" type="line"/>
      <point x="430" y="378" type="line"/>
      <point x="430" y="358" type="line"/>
      <point x="82" y="358" type="line"/>
    </contour>
    <contour>
      <point x="82" y="722" type="line"/>
      <point x="440" y="722" type="line"/>
      <point x="440" y="704" type="line"/>
      <point x="82" y="704" type="line"/>
    </contour>
    <contour>
      <point x="70" y="0" type="line"/>
      <point x="70" y="722" type="line"/>
      <point x="92" y="722" type="line"/>
      <point x="92" y="0" type="line"/>
    </contour>
  </outline>
</glyph>
<glyph name="F" format="2">
  <advance width="540.0"/>
  <unicode hex="0046"/>
  <outline>
    <contour>
      <point x="149" y="378" type="line"/>
      <point x="497" y="378" type="line"/>
      <point x="497" y="358" type="line"/>
      <point x="149" y="358" type="line"/>
    </contour>
    <contour>
      <point x="150" y="722" type="line"/>
      <point x="508" y="722" type="line"/>
      <point x="508" y="704" type="line"/>
      <point x="150" y="704" type="line"/>
    </contour>
    <contour>
      <point x="138" y="0" type="line"/>
      <point x="138" y="722" type="line"/>
      <point x="160" y="722" type="line"/>
      <point x="160" y="0" type="line"/>
    </contour>
  </outline>
</glyph>
<glyph name="G" format="2">
  <advance width="735.0"/>
  <unicode hex="0047"/>
  <outline>
    <contour>
      <point x="60" y="361" type="qcurve" smooth="yes"/>
      <point x="60" y="470"/>
      <point x="118" y="637"/>
      <point x="249" y="732"/>
      <point x="358" y="732" type="qcurve" smooth="yes"/>
      <point x="441" y="732"/>
      <point x="561" y="681"/>
      <point x="628" y="588"/>
      <point x="633" y="525" type="qcurve"/>
      <point x="611" y="525" type="line"/>
      <point x="604" y="608"/>
      <point x="471" y="712"/>
      <point x="358" y="712" type="qcurve" smooth="yes"/>
      <point x="258" y="712"/>
      <point x="137" y="620"/>
      <point x="82" y="461"/>
      <point x="82" y="361" type="qcurve" smooth="yes"/>
      <point x="82" y="261"/>
      <point x="139" y="102"/>
      <point x="271" y="10"/>
      <point x="383" y="10" type="qcurve" smooth="yes"/>
      <point x="440" y="10"/>
      <point x="557" y="32"/>
      <point x="607" y="54" type="qcurve"/>
      <point x="607" y="306" type="line"/>
      <point x="364" y="306" type="line"/>
      <point x="364" y="326" type="line"/>
      <point x="629" y="326" type="line"/>
      <point x="629" y="40" type="line"/>
      <point x="595" y="24"/>
      <point x="517" y="2"/>
      <point x="432" y="-10"/>
      <point x="387" y="-10" type="qcurve" smooth="yes"/>
      <point x="264" y="-10"/>
      <point x="121" y="85"/>
      <point x="60" y="252"/>
    </contour>
  </outline>
</glyph>
<glyph name="H" format="2">
  <advance width="620.0"/>
  <unicode hex="0048"/>
  <outline>
    <contour>
      <point x="82" y="381" type="line"/>
      <point x="539" y="381" type="line"/>
      <point x="539" y="361" type="line"/>
      <point x="82" y="361" type="line"/>
    </contour>
    <contour>
      <point x="70" y="0" type="line"/>
      <point x="70" y="722" type="line"/>
      <point x="92" y="722" type="line"/>
      <point x="92" y="0" type="line"/>
    </contour>
    <contour>
      <point x="528" y="0" type="line"/>
      <point x="528" y="722" type="line"/>
      <point x="550" y="722" type="line"/>
      <point x="550" y="0" type="line"/>
    </contour>
  </outline>
</glyph>
<glyph name="I" format="2">
  <advance width="182.0"/>
  <unicode hex="0049"/>
  <outline>
    <contour>
      <point x="80" y="0" type="line"/>
      <point x="80" y="722" type="line"/>
      <point x="102" y="722" type="line"/>
      <point x="102" y="0" type="line"/>
    </contour>
  </outline>
</glyph>
<glyph name="J" format="2">
  <advance width="449.0"/>
  <unicode hex="004A"/>
  <outline>
    <contour>
      <point x="40" y="174" type="qcurve"/>
      <point x="60" y="174" type="line"/>
      <point x="60" y="98"/>
      <point x="143" y="6"/>
      <point x="212" y="6" type="qcurve" smooth="yes"/>
      <point x="273" y="6"/>
      <point x="349" y="99"/>
      <point x="349" y="176" type="qcurve" smooth="yes"/>
      <point x="349" y="722" type="line"/>
      <point x="371" y="722" type="line"/>
      <point x="371" y="176" type="line" smooth="yes"/>
      <point x="371" y="119"/>
      <point x="331" y="33"/>
      <point x="259" y="-14"/>
      <point x="212" y="-14" type="qcurve" smooth="yes"/>
      <point x="160" y="-14"/>
      <point x="83" y="33"/>
      <point x="40" y="118"/>
    </contour>
  </outline>
</glyph>
<glyph name="K" format="2">
  <advance width="503.0"/>
  <unicode hex="004B"/>
  <outline>
    <contour>
      <point x="92" y="399" type="line"/>
      <point x="406" y="722" type="line"/>
      <point x="437" y="722" type="line"/>
      <point x="117" y="394" type="line"/>
      <point x="113" y="408" type="line"/>
      <point x="463" y="0" type="line"/>
      <point x="434" y="0" type="line"/>
    </contour>
    <contour>
      <point x="80" y="0" type="line"/>
      <point x="80" y="722" type="line"/>
      <point x="102" y="722" type="line"/>
      <point x="102" y="0" type="line"/>
    </contour>
  </outline>
</glyph>
<glyph name="L" format="2">
  <advance width="495.0"/>
  <unicode hex="004C"/>
  <outline>
    <contour>
      <point x="102" y="18" type="line"/>
      <point x="460" y="18" type="line"/>
      <point x="460" y="0" type="line"/>
      <point x="102" y="0" type="line"/>
    </contour>
    <contour>
      <point x="80" y="0" type="line"/>
      <point x="80" y="722" type="line"/>
      <point x="102" y="722" type="line"/>
      <point x="102" y="0" type="line"/>
    </contour>
  </outline>
</glyph>
<glyph name="M" format="2">
  <advance width="724.0"/>
  <unicode hex="004D"/>
  <outline>
    <contour>
      <point x="70" y="0" type="line"/>
      <point x="70" y="722" type="line"/>
      <point x="92" y="722" type="line"/>
      <point x="92" y="0" type="line"/>
    </contour>
    <contour>
      <point x="632" y="0" type="line"/>
      <point x="632" y="722" type="line"/>
      <point x="654" y="722" type="line"/>
      <point x="654" y="0" type="line"/>
    </contour>
    <contour>
      <point x="352" y="0" type="line"/>
      <point x="82" y="722" type="line"/>
      <point x="102" y="722" type="line"/>
      <point x="366" y="24" type="line"/>
      <point x="358" y="24" type="line"/>
      <point x="622" y="722" type="line"/>
      <point x="642" y="722" type="line"/>
      <point x="372" y="0" type="line"/>
    </contour>
  </outline>
</glyph>
<glyph name="N" format="2">
  <advance width="683.0"/>
  <unicode hex="004E"/>
  <outline>
    <contour>
      <point x="70" y="722" type="line"/>
      <point x="94" y="722" type="line"/>
      <point x="569" y="0" type="line"/>
      <point x="545" y="0" type="line"/>
    </contour>
    <contour>
      <point x="82" y="722" type="line"/>
      <point x="82" y="0" type="line"/>
      <point x="60" y="0" type="line"/>
      <point x="60" y="722" type="line"/>
    </contour>
    <contour>
      <point x="558" y="0" type="line"/>
      <point x="558" y="722" type="line"/>
      <point x="580" y="722" type="line"/>
      <point x="580" y="0" type="line"/>
    </contour>
  </outline>
</glyph>
<glyph name="P" format="2">
  <advance width="633.0"/>
  <unicode hex="0050"/>
  <outline>
    <contour>
      <point x="80" y="702" type="line"/>
      <point x="80" y="722" type="line"/>
      <point x="333" y="722" type="line" smooth="yes"/>
      <point x="399.39639639639637" y="722"/>
      <point x="497.5045045045045" y="670"/>
      <point x="553" y="576"/>
      <point x="553" y="514" type="qcurve" smooth="yes"/>
      <point x="553" y="452"/>
      <point x="497.5045045045045" y="358"/>
      <point x="399.39639639639637" y="306"/>
      <point x="333" y="306" type="qcurve" smooth="yes"/>
      <point x="80" y="306" type="line"/>
      <point x="80" y="326" type="line"/>
      <point x="321" y="326" type="line" smooth="yes"/>
      <point x="383.51908396946567" y="326"/>
      <point x="478.09923664122135" y="373.34939759036143"/>
      <point x="531" y="457"/>
      <point x="531" y="512.8227848101266" type="qcurve" smooth="yes"/>
      <point x="531" y="570.1962025316456"/>
      <point x="478.09923664122135" y="655.4810126582279"/>
      <point x="383.51908396946567" y="702"/>
      <point x="321" y="702" type="qcurve" smooth="yes"/>
    </contour>
    <contour>
      <point x="70" y="0" type="line"/>
      <point x="70" y="722" type="line"/>
      <point x="92" y="722" type="line"/>
      <point x="92" y="0" type="line"/>
    </contour>
  </outline>
</glyph>
<glyph name="Q" format="2">
  <advance width="775.0"/>
  <unicode hex="0051"/>
  <outline>
    <contour>
      <point x="499" y="10" type="line"/>
      <point x="504" y="12"/>
      <point x="549" y="16"/>
      <point x="614" y="18"/>
      <point x="684" y="19"/>
      <point x="741" y="20"/>
      <point x="755" y="20" type="qcurve"/>
      <point x="755" y="0" type="line"/>
      <point x="576" y="0" type="line" smooth="yes"/>
      <point x="569" y="0"/>
      <point x="525" y="-1"/>
      <point x="473" y="-3"/>
      <point x="428" y="-5"/>
      <point x="419" y="-7" type="qcurve"/>
      <point x="412" y="-8" type="line"/>
    </contour>
    <contour>
      <point x="80" y="361" type="qcurve" smooth="yes"/>
      <point x="80" y="483"/>
      <point x="147" y="648"/>
      <point x="280" y="732"/>
      <point x="378" y="732" type="qcurve" smooth="yes"/>
      <point x="476" y="732"/>
      <point x="609" y="648"/>
      <point x="676" y="483"/>
      <point x="676" y="361" type="qcurve" smooth="yes"/>
      <point x="676" y="239"/>
      <point x="609" y="74"/>
      <point x="476" y="-10"/>
      <point x="378" y="-10" type="qcurve" smooth="yes"/>
      <point x="280" y="-10"/>
      <point x="147" y="74"/>
      <point x="80" y="239"/>
    </contour>
    <contour>
      <point x="102" y="361" type="qcurve" smooth="yes"/>
      <point x="102" y="191"/>
      <point x="244" y="10"/>
      <point x="378" y="10" type="qcurve" smooth="yes"/>
      <point x="512" y="10"/>
      <point x="654" y="191"/>
      <point x="654" y="361" type="qcurve" smooth="yes"/>
      <point x="654" y="531"/>
      <point x="512" y="712"/>
      <point x="378" y="712" type="qcurve" smooth="yes"/>
      <point x="244" y="712"/>
      <point x="102" y="531"/>
    </contour>
  </outline>
</glyph>
<glyph name="R" format="2">
  <advance width="649.0"/>
  <unicode hex="0052"/>
  <outline>
    <contour>
      <point x="80" y="702" type="line"/>
      <point x="80" y="722" type="line"/>
      <point x="319" y="722" type="line" smooth="yes"/>
      <point x="383" y="722"/>
      <point x="472" y="700"/>
      <point x="525" y="655"/>
      <point x="549" y="586"/>
      <point x="549" y="538" type="qcurve" smooth="yes"/>
      <point x="549" y="476"/>
      <point x="476" y="379"/>
      <point x="412" y="367" type="qcurve"/>
      <point x="412" y="371" type="line"/>
      <point x="455" y="365"/>
      <point x="500" y="317"/>
      <point x="519" y="251"/>
      <point x="524" y="215" type="qcurve" smooth="yes"/>
      <point x="533" y="155" type="line" smooth="yes"/>
      <point x="540" y="112"/>
      <point x="559" y="27"/>
      <point x="569" y="0" type="qcurve"/>
      <point x="545" y="0" type="line"/>
      <point x="538" y="26"/>
      <point x="524" y="96"/>
      <point x="516" y="143" type="qcurve" smooth="yes"/>
      <point x="506" y="200" type="line" smooth="yes"/>
      <point x="496" y="260"/>
      <point x="470" y="330"/>
      <point x="414" y="361"/>
      <point x="360" y="361" type="qcurve" smooth="yes"/>
      <point x="80" y="361" type="line"/>
      <point x="80" y="381" type="line"/>
      <point x="366" y="381" type="line" smooth="yes"/>
      <point x="442" y="381"/>
      <point x="527" y="470"/>
      <point x="527" y="537" type="qcurve" smooth="yes"/>
      <point x="527" y="596"/>
      <point x="489" y="669"/>
      <point x="398" y="702"/>
      <point x="316" y="702" type="qcurve" smooth="yes"/>
    </contour>
    <contour>
      <point x="70" y="0" type="line"/>
      <point x="70" y="722" type="line"/>
      <point x="92" y="722" type="line"/>
      <point x="92" y="0" type="line"/>
    </contour>
  </outline>
</glyph>
<glyph name="S" format="2">
  <advance width="702.0"/>
  <unicode hex="0053"/>
  <outline>
    <contour>
      <point x="80" y="219" type="qcurve"/>
      <point x="100" y="219" type="line"/>
      <point x="100" y="156"/>
      <point x="163" y="62"/>
      <point x="278" y="10"/>
      <point x="354" y="10" type="qcurve" smooth="yes"/>
      <point x="483" y="10"/>
      <point x="600" y="93"/>
      <point x="600" y="185" type="qcurve" smooth="yes"/>
      <point x="600" y="230"/>
      <point x="550" y="298"/>
      <point x="432" y="347"/>
      <point x="332" y="367" type="qcurve" smooth="yes"/>
      <point x="239" y="384"/>
      <point x="133" y="438"/>
      <point x="89" y="510"/>
      <point x="89" y="556" type="qcurve" smooth="yes"/>
      <point x="89" y="616"/>
      <point x="150" y="694"/>
      <point x="260" y="732"/>
      <point x="334" y="732" type="qcurve" smooth="yes"/>
      <point x="459" y="732"/>
      <point x="594" y="630"/>
      <point x="594" y="535" type="qcurve"/>
      <point x="574" y="535" type="line"/>
      <point x="574" y="624"/>
      <point x="453" y="712"/>
      <point x="329" y="712" type="qcurve" smooth="yes"/>
      <point x="265" y="712"/>
      <point x="167" y="677"/>
      <point x="111" y="605"/>
      <point x="111" y="550" type="qcurve" smooth="yes"/>
      <point x="111" y="511"/>
      <point x="151" y="449"/>
      <point x="264" y="400"/>
      <point x="371" y="379" type="qcurve" smooth="yes"/>
      <point x="434" y="366"/>
      <point x="528" y="331"/>
      <point x="591" y="283"/>
      <point x="622" y="225"/>
      <point x="622" y="190" type="qcurve" smooth="yes"/>
      <point x="622" y="119"/>
      <point x="566" y="31"/>
      <point x="445" y="-10"/>
      <point x="346" y="-10" type="qcurve" smooth="yes"/>
      <point x="267" y="-10"/>
      <point x="147" y="47"/>
      <point x="80" y="151"/>
    </contour>
  </outline>
</glyph>
<glyph name="T" format="2">
  <advance width="652.0"/>
  <unicode hex="0054"/>
  <outline>
    <contour>
      <point x="612" y="702" type="line"/>
      <point x="337" y="702" type="line"/>
      <point x="337" y="0" type="line"/>
      <point x="315" y="0" type="line"/>
      <point x="315" y="702" type="line"/>
      <point x="40" y="702" type="line"/>
      <point x="40" y="722" type="line"/>
      <point x="612" y="722" type="line"/>
    </contour>
  </outline>
</glyph>
<glyph name="U" format="2">
  <advance width="654.0"/>
  <unicode hex="0055"/>
  <outline>
    <contour>
      <point x="70" y="322" type="qcurve" smooth="yes"/>
      <point x="70" y="722" type="line"/>
      <point x="92" y="722" type="line"/>
      <point x="92" y="312" type="line" smooth="yes"/>
      <point x="92" y="200"/>
      <point x="144" y="67"/>
      <point x="250" y="8"/>
      <point x="331" y="8" type="qcurve" smooth="yes"/>
      <point x="411" y="8"/>
      <point x="513" y="65"/>
      <point x="562" y="198"/>
      <point x="562" y="312" type="qcurve" smooth="yes"/>
      <point x="562" y="722" type="line"/>
      <point x="584" y="722" type="line"/>
      <point x="584" y="322" type="line" smooth="yes"/>
      <point x="584" y="198"/>
      <point x="532" y="52"/>
      <point x="420" y="-12"/>
      <point x="330" y="-12" type="qcurve" smooth="yes"/>
      <point x="236" y="-12"/>
      <point x="122" y="55"/>
      <point x="70" y="202"/>
    </contour>
  </outline>
</glyph>
<glyph name="V" format="2">
  <advance width="612.0"/>
  <unicode hex="0056"/>
  <outline>
    <contour>
      <point x="572" y="722" type="line"/>
      <point x="315" y="0" type="line"/>
      <point x="297" y="0" type="line"/>
      <point x="40" y="722" type="line"/>
      <point x="60" y="722" type="line"/>
      <point x="310" y="19" type="line"/>
      <point x="302" y="19" type="line"/>
      <point x="552" y="722" type="line"/>
    </contour>
  </outline>
</glyph>
<glyph name="W" format="2">
  <advance width="880.0"/>
  <unicode hex="0057"/>
  <outline>
    <contour>
      <point x="840" y="722" type="line"/>
      <point x="646" y="0" type="line"/>
      <point x="622" y="0" type="line"/>
      <point x="437" y="703" type="line"/>
      <point x="443" y="703" type="line"/>
      <point x="255" y="0" type="line"/>
      <point x="231" y="0" type="line"/>
      <point x="40" y="722" type="line"/>
      <point x="59" y="722" type="line"/>
      <point x="246" y="19" type="line"/>
      <point x="240" y="19" type="line"/>
      <point x="428" y="722" type="line"/>
      <point x="452" y="722" type="line"/>
      <point x="637" y="19" type="line"/>
      <point x="631" y="19" type="line"/>
      <point x="820" y="722" type="line"/>
    </contour>
  </outline>
</glyph>
<glyph name="X" format="2">
  <advance width="684.0"/>
  <unicode hex="0058"/>
  <outline>
    <contour>
      <point x="578" y="0" type="line"/>
      <point x="86" y="722" type="line"/>
      <point x="106" y="722" type="line"/>
      <point x="598" y="0" type="line"/>
    </contour>
    <contour>
      <point x="336" y="369" type="line"/>
      <point x="346" y="354" type="line"/>
      <point x="106" y="0" type="line"/>
      <point x="86" y="0" type="line"/>
    </contour>
    <contour>
      <point x="349" y="354" type="line"/>
      <point x="339" y="368" type="line"/>
      <point x="578" y="722" type="line"/>
      <point x="598" y="722" type="line"/>
    </contour>
  </outline>
</glyph>
<glyph name="Y" format="2">
  <advance width="636.0"/>
  <unicode hex="0059"/>
  <outline>
    <contour>
      <point x="596" y="722" type="line"/>
      <point x="318" y="256" type="line"/>
      <point x="40" y="722" type="line"/>
      <point x="60" y="722" type="line"/>
      <point x="318" y="288" type="line"/>
      <point x="576" y="722" type="line"/>
    </contour>
    <contour>
      <point x="307" y="280" type="line"/>
      <point x="329" y="280" type="line"/>
      <point x="329" y="0" type="line"/>
      <point x="307" y="0" type="line"/>
    </contour>
  </outline>
</glyph>
<glyph name="Z" format="2">
  <advance width="626.0"/>
  <unicode hex="005A"/>
  <outline>
    <contour>
      <point x="576" y="0" type="line"/>
      <point x="50" y="0" type="line"/>
      <point x="50" y="20" type="line"/>
      <point x="540" y="702" type="line"/>
      <point x="70" y="702" type="line"/>
      <point x="70" y="722" type="line"/>
      <point x="566" y="722" type="line"/>
      <point x="566" y="702" type="line"/>
      <point x="77" y="20" type="line"/>
      <point x="576" y="20" type="line"/>
    </contour>
  </outline>
</glyph>
<glyph name="bracketleft" format="2">
  <advance width="396.0"/>
  <unicode hex="005B"/>
  <outline>
    <contour>
      <point x="292" y="-198" type="line"/>
      <point x="106" y="-198" type="line"/>
      <point x="106" y="722" type="line"/>
      <point x="292" y="722" type="line"/>
      <point x="292" y="702" type="line"/>
      <point x="128" y="702" type="line"/>
      <point x="128" y="-178" type="line"/>
      <point x="292" y="-178" type="line"/>
    </contour>
  </outline>
</glyph>
<glyph name="backslash" format="2">
  <advance width="339.0"/>
  <unicode hex="005C"/>
  <outline>
    <contour>
      <point x="298" y="-52" type="line"/>
      <point x="276" y="-52" type="line"/>
      <point x="40" y="736" type="line"/>
      <point x="62" y="736" type="line"/>
    </contour>
  </outline>
</glyph>
<glyph name="asciicircum" format="2">
  <advance width="551.0"/>
  <unicode hex="005E"/>
  <outline>
    <contour>
      <point x="511" y="10" type="line"/>
      <point x="491" y="10" type="line"/>
      <point x="276" y="590" type="line"/>
      <point x="61" y="10" type="line"/>
      <point x="41" y="10" type="line"/>
      <point x="263" y="610" type="line"/>
      <point x="289" y="610" type="line"/>
    </contour>
  </outline>
</glyph>
<glyph name="underscore" format="2">
  <advance width="500.0"/>
  <unicode hex="005F"/>
  <outline>
    <contour>
      <point x="500" y="-110" type="line"/>
      <point x="0" y="-110" type="line"/>
      <point x="0" y="-90" type="line"/>
      <point x="500" y="-90" type="line"/>
    </contour>
  </outline>
</glyph>
<glyph name="grave" format="2">
  <advance width="210.0"/>
  <unicode hex="0060"/>
  <outline>
    <contour>
      <point x="170" y="580" type="line"/>
      <point x="150" y="580" type="line"/>
      <point x="40" y="720" type="line"/>
      <point x="70" y="720" type="line"/>
    </contour>
  </outline>
</glyph>
<glyph name="a" format="2">
  <advance width="565.0"/>
  <unicode hex="0061"/>
  <outline>
    <contour>
      <point x="80" y="146" type="qcurve" smooth="yes"/>
      <point x="80" y="223"/>
      <point x="199" y="308"/>
      <point x="327" y="308" type="qcurve" smooth="yes"/>
      <point x="359" y="308"/>
      <point x="435" y="303"/>
      <point x="460" y="300" type="qcurve"/>
      <point x="460" y="280" type="line"/>
      <point x="443" y="282"/>
      <point x="397" y="287"/>
      <point x="353" y="290"/>
      <point x="336" y="290" type="qcurve" smooth="yes"/>
      <point x="216" y="290"/>
      <point x="100" y="219"/>
      <point x="100" y="148" type="qcurve" smooth="yes"/>
      <point x="100" y="86"/>
      <point x="185" y="10"/>
      <point x="255" y="10" type="qcurve" smooth="yes"/>
      <point x="301" y="10"/>
      <point x="390" y="41"/>
      <point x="449" y="91"/>
      <point x="449" y="120" type="qcurve" smooth="yes"/>
      <point x="449" y="353" type="line" smooth="yes"/>
      <point x="449" y="417"/>
      <point x="369" y="494"/>
      <point x="285" y="494" type="qcurve" smooth="yes"/>
      <point x="211" y="494"/>
      <point x="127" y="430"/>
      <point x="127" y="365" type="qcurve"/>
      <point x="107" y="365" type="line"/>
      <point x="107" y="438"/>
      <point x="205" y="512"/>
      <point x="286" y="512" type="qcurve" smooth="yes"/>
      <point x="376" y="512"/>
      <point x="469" y="427"/>
      <point x="469" y="356" type="qcurve" smooth="yes"/>
      <point x="469" y="143" type="line" smooth="yes"/>
      <point x="469" y="121"/>
      <point x="472" y="66"/>
      <point x="479" y="16"/>
      <point x="485" y="0" type="qcurve"/>
      <point x="465" y="0" type="line"/>
      <point x="460" y="14"/>
      <point x="453" y="60"/>
      <point x="451" y="83" type="qcurve"/>
      <point x="461" y="85" type="line"/>
      <point x="441" y="55"/>
      <point x="377" y="12"/>
      <point x="295" y="-10"/>
      <point x="247" y="-10" type="qcurve" smooth="yes"/>
      <point x="197" y="-10"/>
      <point x="122" y="29"/>
      <point x="80" y="100"/>
    </contour>
  </outline>
</glyph>
<glyph name="b" format="2">
  <advance width="619.0"/>
  <unicode hex="0062"/>
  <outline>
    <contour>
      <point x="100" y="0" type="line"/>
      <point x="103" y="23"/>
      <point x="105" y="70"/>
      <point x="106" y="116"/>
      <point x="106" y="139" type="qcurve" smooth="yes"/>
      <point x="106" y="722" type="line"/>
      <point x="126" y="722" type="line"/>
      <point x="126" y="443" type="line" smooth="yes"/>
      <point x="126" y="415"/>
      <point x="125" y="357"/>
      <point x="122" y="328" type="qcurve"/>
      <point x="118" y="328" type="line"/>
      <point x="118" y="183" type="line"/>
      <point x="122" y="182" type="line"/>
      <point x="122" y="157"/>
      <point x="126" y="104"/>
      <point x="126" y="79" type="qcurve" smooth="yes"/>
      <point x="126" y="59"/>
      <point x="124" y="20"/>
      <point x="120" y="0" type="qcurve"/>
    </contour>
    <contour>
      <point x="116" y="121" type="line"/>
      <point x="116" y="371" type="line"/>
      <point x="129" y="371" type="line"/>
      <point x="152" y="440"/>
      <point x="259" y="512"/>
      <point x="316" y="512" type="qcurve" smooth="yes"/>
      <point x="382" y="512"/>
      <point x="482" y="454"/>
      <point x="539" y="340"/>
      <point x="539" y="255" type="qcurve" smooth="yes"/>
      <point x="539" y="170"/>
      <point x="482" y="51"/>
      <point x="384" y="-10"/>
      <point x="321" y="-10" type="qcurve" smooth="yes"/>
      <point x="246" y="-10"/>
      <point x="153" y="55"/>
      <point x="127" y="121" type="qcurve"/>
    </contour>
    <contour>
      <point x="124" y="262" type="qcurve" smooth="yes"/>
      <point x="124" y="143"/>
      <point x="230" y="10"/>
      <point x="319" y="10" type="qcurve" smooth="yes"/>
      <point x="377" y="10"/>
      <point x="467" y="66"/>
      <point x="519" y="176"/>
      <point x="519" y="257" type="qcurve" smooth="yes"/>
      <point x="519" y="377"/>
      <point x="405" y="492"/>
      <point x="313" y="492" type="qcurve" smooth="yes"/>
      <point x="283" y="492"/>
      <point x="217" y="465"/>
      <point x="159" y="409"/>
      <point x="124" y="322"/>
    </contour>
  </outline>
</glyph>
<glyph name="c" format="2">
  <advance width="616.0"/>
  <unicode hex="0063"/>
  <outline>
    <contour>
      <point x="80" y="250" type="qcurve" smooth="yes"/>
      <point x="80" y="172"/>
      <point x="139" y="55"/>
      <point x="245" y="-10"/>
      <point x="316" y="-10" type="qcurve" smooth="yes"/>
      <point x="376" y="-10"/>
      <point x="471" y="35"/>
      <point x="530" y="115"/>
      <point x="536" y="168" type="qcurve"/>
      <point x="516" y="168" type="line"/>
      <point x="508" y="97"/>
      <point x="398" y="10"/>
      <point x="316" y="10" type="qcurve" smooth="yes"/>
      <point x="251" y="10"/>
      <point x="154" y="70"/>
      <point x="100" y="178"/>
      <point x="100" y="250" type="qcurve" smooth="yes"/>
      <point x="100" y="304"/>
      <point x="131" y="393"/>
      <point x="188" y="457"/>
      <point x="267" y="492"/>
      <point x="316" y="492" type="qcurve" smooth="yes"/>
      <point x="370" y="492"/>
      <point x="455" y="454"/>
      <point x="507" y="386"/>
      <point x="512" y="341" type="qcurve"/>
      <point x="532" y="341" type="line"/>
      <point x="527" y="392"/>
      <point x="469" y="469"/>
      <point x="375" y="512"/>
      <point x="316" y="512" type="qcurve" smooth="yes"/>
      <point x="245" y="512"/>
      <point x="139" y="446"/>
      <point x="80" y="329"/>
    </contour>
  </outline>
</glyph>
<glyph name="e" format="2">
  <advance width="616.0"/>
  <unicode hex="0065"/>
  <outline>
    <contour>
      <point x="80" y="250" type="qcurve" smooth="yes"/>
      <point x="80" y="329"/>
      <point x="140" y="446"/>
      <point x="245" y="512"/>
      <point x="315" y="512" type="qcurve" smooth="yes"/>
      <point x="383" y="512"/>
      <point x="482" y="450"/>
      <point x="536" y="341"/>
      <point x="536" y="270" type="qcurve" smooth="yes"/>
      <point x="536" y="246" type="line"/>
      <point x="528" y="246" type="line"/>
      <point x="516" y="257" type="line"/>
      <point x="516" y="311"/>
      <point x="488" y="397"/>
      <point x="435" y="459"/>
      <point x="361" y="492"/>
      <point x="315" y="492" type="qcurve" smooth="yes"/>
      <point x="267" y="492"/>
      <point x="188" y="457"/>
      <point x="131" y="393"/>
      <point x="100" y="304"/>
      <point x="100" y="250" type="qcurve" smooth="yes"/>
      <point x="100" y="196"/>
      <point x="130" y="108"/>
      <point x="187" y="44"/>
      <point x="266" y="10"/>
      <point x="315" y="10" type="qcurve" smooth="yes"/>
      <point x="392" y="10"/>
      <point x="503" y="93"/>
      <point x="516" y="160" type="qcurve"/>
      <point x="536" y="160" type="line"/>
      <point x="527" y="109"/>
      <point x="465" y="33"/>
      <point x="372" y="-10"/>
      <point x="315" y="-10" type="qcurve" smooth="yes"/>
      <point x="244" y="-10"/>
      <point x="139" y="55"/>
      <point x="80" y="172"/>
    </contour>
    <contour>
      <point x="91" y="246" type="line"/>
      <point x="91" y="266" type="line"/>
      <point x="531" y="266" type="line"/>
      <point x="536" y="261" type="line"/>
      <point x="536" y="246" type="line"/>
    </contour>
  </outline>
</glyph>
<glyph name="g" format="2">
  <advance width="613.0"/>
  <unicode hex="0067"/>
  <outline>
    <contour>
      <point x="80" y="266" type="qcurve" smooth="yes"/>
      <point x="80" y="340"/>
      <point x="135" y="451"/>
      <point x="234" y="512"/>
      <point x="300" y="512" type="qcurve" smooth="yes"/>
      <point x="370" y="512"/>
      <point x="474" y="437"/>
      <point x="503" y="364" type="qcurve"/>
      <point x="503" y="500" type="line"/>
      <point x="523" y="500" type="line"/>
      <point x="523" y="29" type="line" smooth="yes"/>
      <point x="523" y="-41"/>
      <point x="477" y="-143"/>
      <point x="381" y="-198"/>
      <point x="306" y="-198" type="qcurve" smooth="yes"/>
      <point x="261" y="-198"/>
      <point x="188" y="-175"/>
      <point x="135" y="-133"/>
      <point x="107" y="-75"/>
      <point x="107" y="-39" type="qcurve"/>
      <point x="127" y="-39" type="line"/>
      <point x="127" y="-81"/>
      <point x="173" y="-143"/>
      <point x="255" y="-178"/>
      <point x="310" y="-178" type="qcurve" smooth="yes"/>
      <point x="403" y="-178"/>
      <point x="503" y="-75"/>
      <point x="503" y="21" type="qcurve" smooth="yes"/>
      <point x="503" y="175" type="line"/>
      <point x="484" y="122"/>
      <point x="425" y="51"/>
      <point x="345" y="14"/>
      <point x="296" y="14" type="qcurve" smooth="yes"/>
      <point x="228" y="14"/>
      <point x="131" y="74"/>
      <point x="80" y="186"/>
    </contour>
    <contour>
      <point x="309" y="34" type="qcurve" smooth="yes"/>
      <point x="347" y="34"/>
      <point x="416" y="72"/>
      <point x="471" y="137"/>
      <point x="503" y="219"/>
      <point x="503" y="264" type="qcurve" smooth="yes"/>
      <point x="503" y="308"/>
      <point x="473" y="390"/>
      <point x="419" y="455"/>
      <point x="346" y="492"/>
      <point x="304" y="492" type="qcurve" smooth="yes"/>
      <point x="242" y="492"/>
      <point x="151" y="437"/>
      <point x="100" y="337"/>
      <point x="100" y="270" type="qcurve" smooth="yes"/>
      <point x="100" y="193"/>
      <point x="148" y="88"/>
      <point x="241" y="34"/>
    </contour>
  </outline>
</glyph>
<glyph name="k" format="2">
  <advance width="459.0"/>
  <unicode hex="006B"/>
  <outline>
    <contour>
      <point x="419" y="0" type="line"/>
      <point x="390" y="0" type="line"/>
      <point x="120" y="281" type="line"/>
      <point x="360" y="500" type="line"/>
      <point x="393" y="500" type="line"/>
      <point x="142" y="272" type="line"/>
      <point x="142" y="288" type="line"/>
    </contour>
    <contour>
      <point x="100" y="0" type="line"/>
      <point x="100" y="722" type="line"/>
      <point x="120" y="722" type="line"/>
      <point x="120" y="0" type="line"/>
    </contour>
  </outline>
</glyph>
<glyph name="l" format="2">
  <advance width="210.0"/>
  <unicode hex="006C"/>
  <outline>
    <contour>
      <point x="100" y="0" type="line"/>
      <point x="100" y="722" type="line"/>
      <point x="120" y="722" type="line"/>
      <point x="120" y="0" type="line"/>
    </contour>
  </outline>
</glyph>
<glyph name="n" format="2">
  <advance width="575.0"/>
  <unicode hex="006E"/>
  <outline>
    <contour>
      <point x="110" y="376" type="line"/>
      <point x="110" y="420" type="line"/>
      <point x="122" y="420" type="line"/>
      <point x="145" y="461"/>
      <point x="240" y="510"/>
      <point x="298" y="510" type="qcurve" smooth="yes"/>
      <point x="355" y="510"/>
      <point x="439" y="462"/>
      <point x="485" y="378"/>
      <point x="485" y="324" type="qcurve" smooth="yes"/>
      <point x="485" y="0" type="line"/>
      <point x="465" y="0" type="line"/>
      <point x="465" y="320" type="line" smooth="yes"/>
      <point x="465" y="371"/>
      <point x="422" y="449"/>
      <point x="346" y="492"/>
      <point x="296" y="492" type="qcurve" smooth="yes"/>
      <point x="253" y="492"/>
      <point x="175" y="459"/>
      <point x="124" y="406"/>
      <point x="120" y="376" type="qcurve"/>
    </contour>
    <contour>
      <point x="100" y="0" type="line"/>
      <point x="100" y="500" type="line"/>
      <point x="120" y="500" type="line"/>
      <point x="120" y="0" type="line"/>
    </contour>
  </outline>
</glyph>
<glyph name="o" format="2">
  <advance width="620.0"/>
  <unicode hex="006F"/>
  <outline>
    <contour>
      <point x="80" y="250" type="qcurve" smooth="yes"/>
      <point x="80" y="333"/>
      <point x="133" y="449"/>
      <point x="236" y="510"/>
      <point x="310" y="510" type="qcurve" smooth="yes"/>
      <point x="383" y="510"/>
      <point x="486" y="449"/>
      <point x="540" y="333"/>
      <point x="540" y="250" type="qcurve" smooth="yes"/>
      <point x="540" y="167"/>
      <point x="486" y="51"/>
      <point x="383" y="-10"/>
      <point x="310" y="-10" type="qcurve" smooth="yes"/>
      <point x="237" y="-10"/>
      <point x="134" y="51"/>
      <point x="80" y="167"/>
    </contour>
    <contour>
      <point x="102" y="250" type="qcurve" smooth="yes"/>
      <point x="102" y="135"/>
      <point x="210" y="10"/>
      <point x="310" y="10" type="qcurve" smooth="yes"/>
      <point x="410" y="10"/>
      <point x="518" y="135"/>
      <point x="518" y="250" type="qcurve" smooth="yes"/>
      <point x="518" y="365"/>
      <point x="410" y="490"/>
      <point x="310" y="490" type="qcurve" smooth="yes"/>
      <point x="211" y="490"/>
      <point x="102" y="365"/>
    </contour>
  </outline>
</glyph>
<glyph name="p" format="2">
  <advance width="616.0"/>
  <unicode hex="0070"/>
  <outline>
    <contour>
      <point x="103" y="-200" type="line"/>
      <point x="103" y="421" type="line" smooth="yes"/>
      <point x="103" y="441"/>
      <point x="102" y="481"/>
      <point x="100" y="500" type="qcurve"/>
      <point x="120" y="500" type="line"/>
      <point x="122" y="480"/>
      <point x="123" y="441"/>
      <point x="123" y="421" type="qcurve" smooth="yes"/>
      <point x="123" y="-200" type="line"/>
    </contour>
    <contour>
      <point x="113" y="171" type="qcurve"/>
      <point x="113" y="338" type="line"/>
      <point x="123" y="391"/>
      <point x="182" y="469"/>
      <point x="266" y="512"/>
      <point x="313" y="512" type="qcurve" smooth="yes"/>
      <point x="379" y="512"/>
      <point x="479" y="454"/>
      <point x="536" y="340"/>
      <point x="536" y="255" type="qcurve" smooth="yes"/>
      <point x="536" y="170"/>
      <point x="479" y="51"/>
      <point x="381" y="-10"/>
      <point x="318" y="-10" type="qcurve" smooth="yes"/>
      <point x="238" y="-10"/>
      <point x="128" y="86"/>
    </contour>
    <contour>
      <point x="123" y="262" type="qcurve" smooth="yes"/>
      <point x="123" y="183"/>
      <point x="170" y="70"/>
      <point x="256" y="10"/>
      <point x="316" y="10" type="qcurve" smooth="yes"/>
      <point x="374" y="10"/>
      <point x="464" y="66"/>
      <point x="516" y="176"/>
      <point x="516" y="257" type="qcurve" smooth="yes"/>
      <point x="516" y="337"/>
      <point x="464" y="441"/>
      <point x="372" y="492"/>
      <point x="310" y="492" type="qcurve" smooth="yes"/>
      <point x="280" y="492"/>
      <point x="214" y="465"/>
      <point x="158" y="409"/>
      <point x="123" y="322"/>
    </contour>
  </outline>
</glyph>
<glyph name="q" format="2">
  <advance width="611.0"/>
  <unicode hex="0071"/>
  <outline>
    <contour>
      <point x="501" y="-200" type="line"/>
      <point x="501" y="500" type="line"/>
      <point x="521" y="500" type="line"/>
      <point x="521" y="-200" type="line"/>
    </contour>
    <contour>
      <point x="80" y="250" type="qcurve" smooth="yes"/>
      <point x="80" y="333"/>
      <point x="132" y="450"/>
      <point x="231" y="512"/>
      <point x="302" y="512" type="qcurve" smooth="yes"/>
      <point x="356" y="512"/>
      <point x="445" y="460"/>
      <point x="503" y="374"/>
      <point x="510" y="325" type="qcurve"/>
      <point x="510" y="170" type="line"/>
      <point x="500" y="115"/>
      <point x="439" y="34"/>
      <point x="354" y="-10"/>
      <point x="306" y="-10" type="qcurve" smooth="yes"/>
      <point x="232" y="-10"/>
      <point x="132" y="51"/>
      <point x="80" y="168"/>
    </contour>
    <contour>
      <point x="100" y="251" type="qcurve" smooth="yes"/>
      <point x="100" y="170"/>
      <point x="149" y="63"/>
      <point x="243" y="10"/>
      <point x="309" y="10" type="qcurve" smooth="yes"/>
      <point x="352" y="10"/>
      <point x="441" y="62"/>
      <point x="501" y="165"/>
      <point x="501" y="242" type="qcurve" smooth="yes"/>
      <point x="501" y="297"/>
      <point x="472" y="388"/>
      <point x="419" y="455"/>
      <point x="347" y="492"/>
      <point x="304" y="492" type="qcurve" smooth="yes"/>
      <point x="253" y="492"/>
      <point x="176" y="460"/>
      <point x="125" y="398"/>
      <point x="100" y="309"/>
    </contour>
  </outline>
</glyph>
<glyph name="r" format="2">
  <advance width="332.0"/>
  <unicode hex="0072"/>
  <outline>
    <contour>
      <point x="130" y="442" type="line" smooth="yes"/>
      <point x="152" y="477"/>
      <point x="237" y="510"/>
      <point x="302" y="510" type="qcurve"/>
      <point x="302" y="490" type="line"/>
      <point x="211" y="490"/>
      <point x="120" y="420"/>
      <point x="120" y="350" type="qcurve"/>
      <point x="110" y="350" type="line"/>
      <point x="110" y="411" type="line"/>
    </contour>
    <contour>
      <point x="100" y="0" type="line"/>
      <point x="100" y="500" type="line"/>
      <point x="120" y="500" type="line"/>
      <point x="120" y="0" type="line"/>
    </contour>
  </outline>
</glyph>
<glyph name="s" format="2">
  <advance width="523.0"/>
  <unicode hex="0073"/>
  <outline>
    <contour>
      <point x="80" y="144" type="qcurve"/>
      <point x="100" y="144" type="line"/>
      <point x="100" y="80"/>
      <point x="181" y="10"/>
      <point x="262" y="10" type="qcurve" smooth="yes"/>
      <point x="336" y="10"/>
      <point x="423" y="66"/>
      <point x="423" y="116" type="qcurve" smooth="yes"/>
      <point x="423" y="143"/>
      <point x="393" y="192"/>
      <point x="322" y="232"/>
      <point x="261" y="247" type="qcurve" smooth="yes"/>
      <point x="234" y="253" type="line" smooth="yes"/>
      <point x="194" y="262"/>
      <point x="140" y="291"/>
      <point x="108" y="327"/>
      <point x="94" y="367"/>
      <point x="94" y="387" type="qcurve" smooth="yes"/>
      <point x="94" y="422"/>
      <point x="131" y="479"/>
      <point x="207" y="512"/>
      <point x="266" y="512" type="qcurve" smooth="yes"/>
      <point x="326" y="512"/>
      <point x="399" y="477"/>
      <point x="433" y="411"/>
      <point x="433" y="366" type="qcurve"/>
      <point x="413" y="366" type="line"/>
      <point x="413" y="427"/>
      <point x="348" y="492"/>
      <point x="267" y="492" type="qcurve" smooth="yes"/>
      <point x="193" y="492"/>
      <point x="114" y="438"/>
      <point x="114" y="388" type="qcurve" smooth="yes"/>
      <point x="114" y="348"/>
      <point x="174" y="286"/>
      <point x="250" y="269" type="qcurve" smooth="yes"/>
      <point x="280" y="262" type="line" smooth="yes"/>
      <point x="323" y="252"/>
      <point x="385" y="221"/>
      <point x="425" y="182"/>
      <point x="443" y="142"/>
      <point x="443" y="123" type="qcurve" smooth="yes"/>
      <point x="443" y="79"/>
      <point x="400" y="20"/>
      <point x="314" y="-10"/>
      <point x="252" y="-10" type="qcurve" smooth="yes"/>
      <point x="197" y="-10"/>
      <point x="120" y="25"/>
      <point x="80" y="94"/>
    </contour>
  </outline>
</glyph>
<glyph name="t" format="2">
  <advance width="344.0"/>
  <unicode hex="0074"/>
  <outline>
    <contour>
      <point x="114" y="74" type="qcurve" smooth="yes"/>
      <point x="114" y="628" type="line"/>
      <point x="134" y="636" type="line"/>
      <point x="134" y="71" type="line" smooth="yes"/>
      <point x="134" y="39"/>
      <point x="158" y="10"/>
      <point x="186" y="10" type="qcurve" smooth="yes"/>
      <point x="199" y="10"/>
      <point x="229" y="16"/>
      <point x="244" y="20" type="qcurve"/>
      <point x="244" y="0" type="line"/>
      <point x="231" y="-5"/>
      <point x="195" y="-10"/>
      <point x="181" y="-10" type="qcurve" smooth="yes"/>
      <point x="159" y="-10"/>
      <point x="129" y="9"/>
      <point x="114" y="46"/>
    </contour>
    <contour>
      <point x="119" y="480" type="line"/>
      <point x="119" y="500" type="line"/>
      <point x="244" y="500" type="line"/>
      <point x="244" y="480" type="line"/>
    </contour>
    <contour>
      <point x="24" y="480" type="line"/>
      <point x="24" y="500" type="line"/>
      <point x="129" y="500" type="line"/>
      <point x="129" y="480" type="line"/>
    </contour>
  </outline>
</glyph>
<glyph name="u" format="2">
  <advance width="574.0"/>
  <unicode hex="0075"/>
  <outline>
    <contour>
      <point x="90" y="174" type="qcurve" smooth="yes"/>
      <point x="90" y="500" type="line"/>
      <point x="110" y="500" type="line"/>
      <point x="110" y="172" type="line" smooth="yes"/>
      <point x="110" y="90"/>
      <point x="192" y="10"/>
      <point x="276" y="10" type="qcurve" smooth="yes"/>
      <point x="307" y="10"/>
      <point x="370" y="40"/>
      <point x="422" y="91"/>
      <point x="454" y="158"/>
      <point x="454" y="194" type="qcurve"/>
      <point x="464" y="194" type="line"/>
      <point x="464" y="144" type="line"/>
      <point x="454" y="119" type="line" smooth="yes"/>
      <point x="440" y="84"/>
      <point x="385" y="25"/>
      <point x="312" y="-10"/>
      <point x="271" y="-10" type="qcurve" smooth="yes"/>
      <point x="182" y="-10"/>
      <point x="90" y="83"/>
    </contour>
    <contour>
      <point x="474" y="0" type="line"/>
      <point x="454" y="0" type="line"/>
      <point x="454" y="500" type="line"/>
      <point x="474" y="500" type="line"/>
    </contour>
  </outline>
</glyph>
<glyph name="v" format="2">
  <advance width="524.0"/>
  <unicode hex="0076"/>
  <outline>
    <contour>
      <point x="484" y="500" type="line"/>
      <point x="276" y="0" type="line"/>
      <point x="252" y="0" type="line"/>
      <point x="40" y="500" type="line"/>
      <point x="60" y="500" type="line"/>
      <point x="268" y="9" type="line"/>
      <point x="260" y="9" type="line"/>
      <point x="464" y="500" type="line"/>
    </contour>
  </outline>
</glyph>
<glyph name="w" format="2">
  <advance width="824.0"/>
  <unicode hex="0077"/>
  <outline>
    <contour>
      <point x="724" y="500" type="line"/>
      <point x="573" y="0" type="line"/>
      <point x="545" y="0" type="line"/>
      <point x="386" y="495" type="line"/>
      <point x="398" y="495" type="line"/>
      <point x="248" y="0" type="line"/>
      <point x="219" y="0" type="line"/>
      <point x="68" y="500" type="line"/>
      <point x="88" y="500" type="line"/>
      <point x="237" y="8" type="line"/>
      <point x="231" y="8" type="line"/>
      <point x="380" y="500" type="line"/>
      <point x="405" y="500" type="line"/>
      <point x="563" y="8" type="line"/>
      <point x="555" y="8" type="line"/>
      <point x="704" y="500" type="line"/>
    </contour>
  </outline>
</glyph>
<glyph name="x" format="2">
  <advance width="501.0"/>
  <unicode hex="0078"/>
  <outline>
    <contour>
      <point x="461" y="0" type="line"/>
      <point x="436" y="0" type="line"/>
      <point x="50" y="500" type="line"/>
      <point x="76" y="500" type="line"/>
    </contour>
    <contour>
      <point x="237" y="261" type="line"/>
      <point x="253" y="250" type="line"/>
      <point x="67" y="0" type="line"/>
      <point x="40" y="0" type="line"/>
    </contour>
    <contour>
      <point x="257" y="254" type="line"/>
      <point x="241" y="266" type="line"/>
      <point x="414" y="500" type="line"/>
      <point x="441" y="500" type="line"/>
    </contour>
  </outline>
</glyph>
<glyph name="y" format="2">
  <advance width="508.0"/>
  <unicode hex="0079"/>
  <outline>
    <contour>
      <point x="178" y="-200" type="line"/>
      <point x="445" y="500" type="line"/>
      <point x="468" y="500" type="line"/>
      <point x="196" y="-200" type="line"/>
    </contour>
    <contour>
      <point x="271" y="7" type="line"/>
      <point x="260" y="-13" type="line"/>
      <point x="40" y="500" type="line"/>
      <point x="63" y="500" type="line"/>
    </contour>
  </outline>
</glyph>
<glyph name="z" format="2">
  <advance width="530.0"/>
  <unicode hex="007A"/>
  <outline>
    <contour>
      <point x="450" y="0" type="line"/>
      <point x="80" y="0" type="line"/>
      <point x="80" y="20" type="line"/>
      <point x="436" y="491" type="line"/>
      <point x="443" y="480" type="line"/>
      <point x="102" y="480" type="line"/>
      <point x="102" y="500" type="line"/>
      <point x="450" y="500" type="line"/>
      <point x="450" y="480" type="line"/>
      <point x="92" y="7" type="line"/>
      <point x="87" y="20" type="line"/>
      <point x="450" y="20" type="line"/>
    </contour>
  </outline>
</glyph>
<glyph name="braceleft" format="2">
  <advance width="487.0"/>
  <unicode hex="007B"/>
  <outline>
    <contour>
      <point x="80" y="250" type="qcurve"/>
      <point x="80" y="270" type="line"/>
      <point x="131" y="282"/>
      <point x="182" y="341"/>
      <point x="200" y="415"/>
      <point x="200" y="450" type="qcurve" smooth="yes"/>
      <point x="200" y="471"/>
      <point x="197" y="540"/>
      <point x="194" y="607"/>
      <point x="194" y="624" type="qcurve" smooth="yes"/>
      <point x="194" y="661"/>
      <point x="209" y="713"/>
      <point x="243" y="745"/>
      <point x="297" y="760"/>
      <point x="336" y="760" type="qcurve"/>
      <point x="336" y="740" type="line"/>
      <point x="290" y="740"/>
      <point x="237" y="719"/>
      <point x="214" y="668"/>
      <point x="214" y="624" type="qcurve" smooth="yes"/>
      <point x="214" y="607"/>
      <point x="217" y="539"/>
      <point x="220" y="470"/>
      <point x="220" y="450" type="qcurve" smooth="yes"/>
      <point x="220" y="416"/>
      <point x="210" y="358"/>
      <point x="186" y="310"/>
      <point x="143" y="273"/>
      <point x="111" y="260" type="qcurve"/>
      <point x="154" y="248"/>
      <point x="202" y="187"/>
      <point x="220" y="99"/>
      <point x="220" y="47" type="qcurve" smooth="yes"/>
      <point x="220" y="33"/>
      <point x="217" y="-26"/>
      <point x="214" y="-87"/>
      <point x="214" y="-104" type="qcurve" smooth="yes"/>
      <point x="214" y="-142"/>
      <point x="238" y="-194"/>
      <point x="292" y="-220"/>
      <point x="336" y="-220" type="qcurve"/>
      <point x="336" y="-240" type="line"/>
      <point x="299" y="-240"/>
      <point x="245" y="-224"/>
      <point x="210" y="-190"/>
      <point x="194" y="-137"/>
      <point x="194" y="-100" type="qcurve" smooth="yes"/>
      <point x="194" y="-90"/>
      <point x="196" y="-43"/>
      <point x="198" y="13"/>
      <point x="200" y="60"/>
      <point x="200" y="70" type="qcurve" smooth="yes"/>
      <point x="200" y="108"/>
      <point x="180" y="184"/>
      <point x="128" y="241"/>
    </contour>
  </outline>
</glyph>
<glyph name="bar" format="2">
  <advance width="162.0"/>
  <unicode hex="007C"/>
  <outline>
    <contour>
      <point x="92" y="-258" type="line"/>
      <point x="70" y="-258" type="line"/>
      <point x="70" y="796" type="line"/>
      <point x="92" y="796" type="line"/>
    </contour>
  </outline>
</glyph>
<glyph name="asciitilde" format="2">
  <advance width="633.0"/>
  <unicode hex="007E"/>
  <outline>
    <contour>
      <point x="549" y="305" type="line"/>
      <point x="541" y="280"/>
      <point x="502" y="235"/>
      <point x="455" y="208"/>
      <point x="434" y="208" type="qcurve" smooth="yes"/>
      <point x="406" y="208"/>
      <point x="351" y="231"/>
      <point x="298" y="261"/>
      <point x="244" y="283"/>
      <point x="217" y="283" type="qcurve" smooth="yes"/>
      <point x="184" y="283"/>
      <point x="139" y="258"/>
      <point x="110" y="221"/>
      <point x="101" y="205" type="qcurve"/>
      <point x="81" y="205" type="line"/>
      <point x="97" y="242"/>
      <point x="161" y="303"/>
      <point x="215" y="303" type="qcurve" smooth="yes"/>
      <point x="241" y="303"/>
      <point x="296" y="280"/>
      <point x="351" y="250"/>
      <point x="405" y="228"/>
      <point x="430" y="228" type="qcurve" smooth="yes"/>
      <point x="452" y="228"/>
      <point x="494" y="254"/>
      <point x="525" y="290"/>
      <point x="529" y="305" type="qcurve"/>
    </contour>
  </outline>
</glyph>
<glyph name="cent" format="2">
  <advance width="558.0"/>
  <unicode hex="00A2"/>
  <outline>
    <contour>
      <point x="420" y="613" type="line"/>
      <point x="175" y="-138" type="line"/>
      <point x="156" y="-133" type="line"/>
      <point x="401" y="618" type="line"/>
    </contour>
    <contour>
      <point x="85" y="250" type="qcurve" smooth="yes"/>
      <point x="85" y="172"/>
      <point x="144" y="55"/>
      <point x="250" y="-10"/>
      <point x="321" y="-10" type="qcurve" smooth="yes"/>
      <point x="381" y="-10"/>
      <point x="476" y="35"/>
      <point x="535" y="115"/>
      <point x="541" y="168" type="qcurve"/>
      <point x="521" y="168" type="line"/>
      <point x="513" y="97"/>
      <point x="403" y="10"/>
      <point x="321" y="10" type="qcurve" smooth="yes"/>
      <point x="256" y="10"/>
      <point x="159" y="70"/>
      <point x="105" y="178"/>
      <point x="105" y="250" type="qcurve" smooth="yes"/>
      <point x="105" y="304"/>
      <point x="136" y="393"/>
      <point x="193" y="457"/>
      <point x="272" y="492"/>
      <point x="321" y="492" type="qcurve" smooth="yes"/>
      <point x="375" y="492"/>
      <point x="460" y="454"/>
      <point x="512" y="386"/>
      <point x="517" y="341" type="qcurve"/>
      <point x="537" y="341" type="line"/>
      <point x="532" y="392"/>
      <point x="474" y="469"/>
      <point x="380" y="512"/>
      <point x="321" y="512" type="qcurve" smooth="yes"/>
      <point x="250" y="512"/>
      <point x="144" y="446"/>
      <point x="85" y="329"/>
    </contour>
  </outline>
</glyph>
<glyph name="sterling" format="2">
  <advance width="558.0"/>
  <unicode hex="00A3"/>
  <outline>
    <contour>
      <point x="148" y="9" type="line"/>
      <point x="148" y="539" type="line" smooth="yes"/>
      <point x="148" y="601"/>
      <point x="191" y="689"/>
      <point x="271" y="736"/>
      <point x="328" y="736" type="qcurve" smooth="yes"/>
      <point x="382" y="736"/>
      <point x="463" y="697"/>
      <point x="509" y="626"/>
      <point x="509" y="579" type="qcurve"/>
      <point x="489" y="579" type="line"/>
      <point x="489" y="620"/>
      <point x="449" y="682"/>
      <point x="377" y="716"/>
      <point x="328" y="716" type="qcurve" smooth="yes"/>
      <point x="277" y="716"/>
      <point x="205" y="674"/>
      <point x="168" y="595"/>
      <point x="168" y="539" type="qcurve" smooth="yes"/>
      <point x="168" y="9" type="line"/>
    </contour>
    <contour>
      <point x="523" y="20" type="line"/>
      <point x="523" y="0" type="line"/>
      <point x="44" y="0" type="line"/>
      <point x="44" y="20" type="line"/>
    </contour>
    <contour>
      <point x="44" y="434" type="line"/>
      <point x="367" y="434" type="line"/>
      <point x="367" y="414" type="line"/>
      <point x="44" y="414" type="line"/>
    </contour>
  </outline>
</glyph>
<glyph name="currency" format="2">
  <advance width="619.0"/>
  <unicode hex="00A4"/>
  <outline>
    <contour>
      <point x="99" y="427" type="qcurve" smooth="yes"/>
      <point x="99" y="490"/>
      <point x="153" y="586"/>
      <point x="249" y="639"/>
      <point x="313" y="639" type="qcurve" smooth="yes"/>
      <point x="357" y="639"/>
      <point x="433" y="608"/>
      <point x="490" y="552"/>
      <point x="521" y="476"/>
      <point x="521" y="431" type="qcurve" smooth="yes"/>
      <point x="521" y="385"/>
      <point x="491" y="306"/>
      <point x="436" y="248"/>
      <point x="359" y="216"/>
      <point x="312" y="216" type="qcurve" smooth="yes"/>
      <point x="266" y="216"/>
      <point x="188" y="247"/>
      <point x="131" y="304"/>
      <point x="99" y="381"/>
    </contour>
    <contour>
      <point x="119" y="427" type="qcurve" smooth="yes"/>
      <point x="119" y="370"/>
      <point x="168" y="283"/>
      <point x="256" y="234"/>
      <point x="312" y="234" type="qcurve" smooth="yes"/>
      <point x="368" y="234"/>
      <point x="453" y="284"/>
      <point x="501" y="372"/>
      <point x="501" y="428" type="qcurve" smooth="yes"/>
      <point x="501" y="484"/>
      <point x="453" y="570"/>
      <point x="367" y="621"/>
      <point x="312" y="621" type="qcurve" smooth="yes"/>
      <point x="255" y="621"/>
      <point x="168" y="572"/>
      <point x="119" y="484"/>
    </contour>
    <contour>
      <point x="178" y="579" type="line"/>
      <point x="162" y="564" type="line"/>
      <point x="50" y="674" type="line"/>
      <point x="66" y="690" type="line"/>
    </contour>
    <contour>
      <point x="458" y="562" type="line"/>
      <point x="444" y="579" type="line"/>
      <point x="554" y="690" type="line"/>
      <point x="570" y="674" type="line"/>
    </contour>
    <contour>
      <point x="448" y="283" type="line"/>
      <point x="462" y="297" type="line"/>
      <point x="572" y="188" type="line"/>
      <point x="558" y="174" type="line"/>
    </contour>
    <contour>
      <point x="159" y="292" type="line"/>
      <point x="172" y="276" type="line"/>
      <point x="66" y="170" type="line"/>
      <point x="52" y="184" type="line"/>
    </contour>
  </outline>
</glyph>
<glyph name="yen" format="2">
  <advance width="558.0"/>
  <unicode hex="00A5"/>
  <outline>
    <contour>
      <point x="515" y="722" type="line"/>
      <point x="294" y="287" type="line"/>
      <point x="290" y="287" type="line"/>
      <point x="290" y="0" type="line"/>
      <point x="270" y="0" type="line"/>
      <point x="270" y="287" type="line"/>
      <point x="265" y="287" type="line"/>
      <point x="45" y="722" type="line"/>
      <point x="67" y="722" type="line"/>
      <point x="285" y="294" type="line"/>
      <point x="277" y="294" type="line"/>
      <point x="493" y="722" type="line"/>
    </contour>
    <contour>
      <point x="269" y="307" type="line"/>
      <point x="280" y="287" type="line"/>
      <point x="14" y="287" type="line"/>
      <point x="14" y="307" type="line"/>
    </contour>
    <contour>
      <point x="280" y="287" type="line"/>
      <point x="290" y="307" type="line"/>
      <point x="546" y="307" type="line"/>
      <point x="546" y="287" type="line"/>
    </contour>
    <contour>
      <point x="173" y="493" type="line"/>
      <point x="183" y="473" type="line"/>
      <point x="14" y="473" type="line"/>
      <point x="14" y="493" type="line"/>
    </contour>
    <contour>
      <point x="377" y="473" type="line"/>
      <point x="387" y="493" type="line"/>
      <point x="546" y="493" type="line"/>
      <point x="546" y="473" type="line"/>
    </contour>
  </outline>
</glyph>
<glyph name="section" format="2">
  <advance width="467.0"/>
  <unicode hex="00A7"/>
  <outline>
    <contour>
      <point x="40" y="348" type="qcurve" smooth="yes"/>
      <point x="40" y="381"/>
      <point x="76" y="433"/>
      <point x="143" y="465"/>
      <point x="191" y="469" type="qcurve"/>
      <point x="209" y="454" type="line"/>
      <point x="159" y="449"/>
      <point x="93" y="420"/>
      <point x="61" y="375"/>
      <point x="61" y="347" type="qcurve" smooth="yes"/>
      <point x="61" y="325"/>
      <point x="81" y="284"/>
      <point x="104" y="267" type="qcurve" smooth="yes"/>
      <point x="331" y="102" type="line" smooth="yes"/>
      <point x="352" y="88"/>
      <point x="379" y="21"/>
      <point x="379" y="-15" type="qcurve" smooth="yes"/>
      <point x="379" y="-59"/>
      <point x="338" y="-118"/>
      <point x="263" y="-149"/>
      <point x="212" y="-149" type="qcurve" smooth="yes"/>
      <point x="187" y="-149"/>
      <point x="134" y="-133"/>
      <point x="84" y="-104"/>
      <point x="63" y="-84" type="qcurve"/>
      <point x="63" y="-59" type="line"/>
      <point x="93" y="-92"/>
      <point x="172" y="-131"/>
      <point x="209" y="-131" type="qcurve" smooth="yes"/>
      <point x="278" y="-131"/>
      <point x="359" y="-74"/>
      <point x="359" y="-15" type="qcurve" smooth="yes"/>
      <point x="359" y="17"/>
      <point x="335" y="75"/>
      <point x="315" y="90" type="qcurve" smooth="yes"/>
      <point x="86" y="257" type="line" smooth="yes"/>
      <point x="71" y="268"/>
      <point x="51" y="297"/>
      <point x="40" y="330"/>
    </contour>
    <contour>
      <point x="102" y="581" type="qcurve" smooth="yes"/>
      <point x="102" y="620"/>
      <point x="136" y="679"/>
      <point x="201" y="713"/>
      <point x="246" y="713" type="qcurve" smooth="yes"/>
      <point x="287" y="713"/>
      <point x="354" y="683"/>
      <point x="385" y="651" type="qcurve"/>
      <point x="385" y="626" type="line"/>
      <point x="352" y="662"/>
      <point x="286" y="695"/>
      <point x="249" y="695" type="qcurve" smooth="yes"/>
      <point x="210" y="695"/>
      <point x="153" y="665"/>
      <point x="122" y="615"/>
      <point x="122" y="584" type="qcurve" smooth="yes"/>
      <point x="122" y="559"/>
      <point x="142" y="514"/>
      <point x="162" y="500" type="qcurve" smooth="yes"/>
      <point x="388" y="337" type="line" smooth="yes"/>
      <point x="402" y="327"/>
      <point x="420" y="302"/>
      <point x="429" y="273"/>
      <point x="429" y="258" type="qcurve" smooth="yes"/>
      <point x="429" y="213"/>
      <point x="347" y="145"/>
      <point x="266" y="132" type="qcurve"/>
      <point x="247" y="146" type="line"/>
      <point x="281" y="149"/>
      <point x="340" y="169"/>
      <point x="384" y="198"/>
      <point x="409" y="233"/>
      <point x="409" y="251" type="qcurve" smooth="yes"/>
      <point x="409" y="277"/>
      <point x="394" y="307"/>
      <point x="377" y="320" type="qcurve" smooth="yes"/>
      <point x="152" y="482" type="line" smooth="yes"/>
      <point x="136" y="494"/>
      <point x="113" y="523"/>
      <point x="102" y="559"/>
    </contour>
  </outline>
</glyph>
<glyph name="dieresis" format="2">
  <advance width="352.0"/>
  <unicode hex="00A8"/>
  <outline>
    <contour>
      <point x="100" y="600" type="line"/>
      <point x="100" y="692" type="line"/>
      <point x="122" y="692" type="line"/>
      <point x="122" y="600" type="line"/>
    </contour>
    <contour>
      <point x="240" y="600" type="line"/>
      <point x="240" y="692" type="line"/>
      <point x="262" y="692" type="line"/>
      <point x="262" y="600" type="line"/>
    </contour>
  </outline>
</glyph>
<glyph name="copyright" format="2">
  <advance width="867.0"/>
  <unicode hex="00A9"/>
  <outline>
    <contour>
      <point x="253" y="354" type="qcurve" smooth="yes"/>
      <point x="253" y="427"/>
      <point x="293" y="526"/>
      <point x="370" y="577"/>
      <point x="425" y="577" type="qcurve" smooth="yes"/>
      <point x="480" y="577"/>
      <point x="554" y="546"/>
      <point x="591" y="485"/>
      <point x="591" y="441" type="qcurve"/>
      <point x="571" y="441" type="line"/>
      <point x="571" y="497"/>
      <point x="499" y="559"/>
      <point x="424" y="559" type="qcurve" smooth="yes"/>
      <point x="379" y="559"/>
      <point x="310" y="513"/>
      <point x="273" y="431"/>
      <point x="273" y="375" type="qcurve" smooth="yes"/>
      <point x="273" y="353" type="line" smooth="yes"/>
      <point x="273" y="305"/>
      <point x="292" y="232"/>
      <point x="332" y="184"/>
      <point x="393" y="160"/>
      <point x="433" y="160" type="qcurve" smooth="yes"/>
      <point x="477" y="160"/>
      <point x="537" y="187"/>
      <point x="571" y="242"/>
      <point x="576" y="284" type="qcurve"/>
      <point x="596" y="284" type="line"/>
      <point x="592" y="236"/>
      <point x="552" y="173"/>
      <point x="483" y="142"/>
      <point x="434" y="142" type="qcurve" smooth="yes"/>
      <point x="373" y="142"/>
      <point x="292" y="188"/>
      <point x="253" y="282"/>
    </contour>
    <contour>
      <point x="61" y="360" type="qcurve" smooth="yes"/>
      <point x="61" y="439"/>
      <point x="117" y="575"/>
      <point x="218" y="675"/>
      <point x="353" y="732"/>
      <point x="433" y="732" type="qcurve" smooth="yes"/>
      <point x="512" y="732"/>
      <point x="648" y="675"/>
      <point x="750" y="575"/>
      <point x="806" y="440"/>
      <point x="806" y="360" type="qcurve" smooth="yes"/>
      <point x="806" y="280"/>
      <point x="750" y="144"/>
      <point x="650" y="43"/>
      <point x="513" y="-13"/>
      <point x="433" y="-13" type="qcurve" smooth="yes"/>
      <point x="353" y="-13"/>
      <point x="217" y="43"/>
      <point x="117" y="144"/>
      <point x="61" y="280"/>
    </contour>
    <contour>
      <point x="81" y="360" type="qcurve" smooth="yes"/>
      <point x="81" y="284"/>
      <point x="134" y="155"/>
      <point x="229" y="60"/>
      <point x="357" y="7"/>
      <point x="433" y="7" type="qcurve" smooth="yes"/>
      <point x="509" y="7"/>
      <point x="638" y="60"/>
      <point x="733" y="155"/>
      <point x="786" y="284"/>
      <point x="786" y="360" type="qcurve" smooth="yes"/>
      <point x="786" y="436"/>
      <point x="733" y="564"/>
      <point x="637" y="659"/>
      <point x="508" y="712"/>
      <point x="433" y="712" type="qcurve" smooth="yes"/>
      <point x="357" y="712"/>
      <point x="229" y="659"/>
      <point x="134" y="564"/>
      <point x="81" y="436"/>
    </contour>
  </outline>
</glyph>
<glyph name="ordfeminine" format="2">
  <advance width="388.0"/>
  <unicode hex="00AA"/>
  <outline>
    <contour>
      <point x="368" y="252" type="line"/>
      <point x="19" y="252" type="line"/>
      <point x="19" y="272" type="line"/>
      <point x="368" y="272" type="line"/>
    </contour>
    <contour>
      <point x="29" y="454" type="qcurve" smooth="yes"/>
      <point x="29" y="508"/>
      <point x="113" y="568"/>
      <point x="203" y="568" type="qcurve" smooth="yes"/>
      <point x="226" y="568"/>
      <point x="279" y="565"/>
      <point x="297" y="563" type="qcurve"/>
      <point x="297" y="549" type="line"/>
      <point x="278" y="551"/>
      <point x="227" y="556"/>
      <point x="209" y="556" type="qcurve" smooth="yes"/>
      <point x="125" y="556"/>
      <point x="43" y="505"/>
      <point x="43" y="455" type="qcurve" smooth="yes"/>
      <point x="43" y="412"/>
      <point x="103" y="358"/>
      <point x="152" y="358" type="qcurve" smooth="yes"/>
      <point x="185" y="358"/>
      <point x="248" y="380"/>
      <point x="289" y="415"/>
      <point x="289" y="436" type="qcurve" smooth="yes"/>
      <point x="289" y="600" type="line" smooth="yes"/>
      <point x="289" y="645"/>
      <point x="233" y="699"/>
      <point x="174" y="699" type="qcurve" smooth="yes"/>
      <point x="121" y="699"/>
      <point x="62" y="654"/>
      <point x="62" y="608" type="qcurve"/>
      <point x="48" y="608" type="line"/>
      <point x="48" y="660"/>
      <point x="117" y="712"/>
      <point x="174" y="712" type="qcurve" smooth="yes"/>
      <point x="238" y="712"/>
      <point x="303" y="652"/>
      <point x="303" y="602" type="qcurve" smooth="yes"/>
      <point x="303" y="452" type="line" smooth="yes"/>
      <point x="303" y="429"/>
      <point x="308" y="367"/>
      <point x="314" y="351" type="qcurve"/>
      <point x="300" y="351" type="line"/>
      <point x="297" y="361"/>
      <point x="292" y="393"/>
      <point x="291" y="410" type="qcurve"/>
      <point x="298" y="411" type="line"/>
      <point x="276" y="379"/>
      <point x="198" y="344"/>
      <point x="147" y="344" type="qcurve" smooth="yes"/>
      <point x="94" y="344"/>
      <point x="29" y="405"/>
    </contour>
  </outline>
</glyph>
<glyph name="guillemotleft" format="2">
  <advance width="512.0"/>
  <unicode hex="00AB"/>
  <outline>
    <contour>
      <point x="237" y="57" type="line"/>
      <point x="217" y="57" type="line"/>
      <point x="80" y="252" type="line"/>
      <point x="217" y="447" type="line"/>
      <point x="237" y="447" type="line"/>
      <point x="111" y="242" type="line"/>
      <point x="111" y="262" type="line"/>
    </contour>
    <contour>
      <point x="432" y="57" type="line"/>
      <point x="412" y="57" type="line"/>
      <point x="275" y="252" type="line"/>
      <point x="412" y="447" type="line"/>
      <point x="432" y="447" type="line"/>
      <point x="305" y="242" type="line"/>
      <point x="305" y="262" type="line"/>
    </contour>
  </outline>
</glyph>
<glyph name="logicalnot" format="2">
  <advance width="619.0"/>
  <unicode hex="00AC"/>
  <outline>
    <contour>
      <point x="560" y="189" type="line"/>
      <point x="540" y="189" type="line"/>
      <point x="540" y="380" type="line"/>
      <point x="40" y="380" type="line"/>
      <point x="40" y="400" type="line"/>
      <point x="560" y="400" type="line"/>
    </contour>
  </outline>
</glyph>
<glyph name="uni00AD" format="2">
  <advance width="310.0"/>
  <unicode hex="00AD"/>
  <outline>
    <contour>
      <point x="270" y="289" type="line"/>
      <point x="40" y="289" type="line"/>
      <point x="40" y="309" type="line"/>
      <point x="270" y="309" type="line"/>
    </contour>
  </outline>
</glyph>
<glyph name="registered" format="2">
  <advance width="867.0"/>
  <unicode hex="00AE"/>
  <outline>
    <contour>
      <point x="61" y="360" type="qcurve" smooth="yes"/>
      <point x="61" y="439"/>
      <point x="117" y="575"/>
      <point x="218" y="675"/>
      <point x="353" y="732"/>
      <point x="433" y="732" type="qcurve" smooth="yes"/>
      <point x="512" y="732"/>
      <point x="648" y="675"/>
      <point x="750" y="575"/>
      <point x="806" y="440"/>
      <point x="806" y="360" type="qcurve" smooth="yes"/>
      <point x="806" y="280"/>
      <point x="750" y="144"/>
      <point x="650" y="43"/>
      <point x="513" y="-13"/>
      <point x="433" y="-13" type="qcurve" smooth="yes"/>
      <point x="353" y="-13"/>
      <point x="217" y="43"/>
      <point x="117" y="144"/>
      <point x="61" y="280"/>
    </contour>
    <contour>
      <point x="81" y="360" type="qcurve" smooth="yes"/>
      <point x="81" y="284"/>
      <point x="134" y="155"/>
      <point x="229" y="60"/>
      <point x="357" y="7"/>
      <point x="433" y="7" type="qcurve" smooth="yes"/>
      <point x="509" y="7"/>
      <point x="638" y="60"/>
      <point x="733" y="155"/>
      <point x="786" y="284"/>
      <point x="786" y="360" type="qcurve" smooth="yes"/>
      <point x="786" y="436"/>
      <point x="733" y="564"/>
      <point x="637" y="659"/>
      <point x="508" y="712"/>
      <point x="433" y="712" type="qcurve" smooth="yes"/>
      <point x="357" y="712"/>
      <point x="229" y="659"/>
      <point x="134" y="564"/>
      <point x="81" y="436"/>
    </contour>
    <contour>
      <point x="300" y="582" type="line"/>
      <point x="300" y="600" type="line"/>
      <point x="478" y="600" type="line" smooth="yes"/>
      <point x="508" y="600"/>
      <point x="560" y="578"/>
      <point x="592" y="526"/>
      <point x="592" y="481" type="qcurve" smooth="yes"/>
      <point x="592" y="446"/>
      <point x="539" y="386"/>
      <point x="496" y="372" type="qcurve"/>
      <point x="518" y="368"/>
      <point x="546" y="333"/>
      <point x="564" y="281"/>
      <point x="576" y="220"/>
      <point x="590" y="158"/>
      <point x="600" y="130" type="qcurve"/>
      <point x="578" y="130" type="line"/>
      <point x="560" y="188"/>
      <point x="543" y="276"/>
      <point x="525" y="334"/>
      <point x="488" y="363"/>
      <point x="450" y="363" type="qcurve" smooth="yes"/>
      <point x="310" y="363" type="line"/>
      <point x="310" y="381" type="line"/>
      <point x="446" y="381" type="line" smooth="yes"/>
      <point x="477" y="381"/>
      <point x="534" y="407"/>
      <point x="572" y="452"/>
      <point x="572" y="481" type="qcurve" smooth="yes"/>
      <point x="572" y="531"/>
      <point x="524" y="582"/>
      <point x="475" y="582" type="qcurve" smooth="yes"/>
    </contour>
    <contour>
      <point x="300" y="131" type="line"/>
      <point x="300" y="600" type="line"/>
      <point x="320" y="600" type="line"/>
      <point x="320" y="131" type="line"/>
    </contour>
  </outline>
</glyph>
<glyph name="macron" format="2">
  <advance width="290.0"/>
  <unicode hex="00AF"/>
  <outline>
    <contour>
      <point x="290" y="630" type="line"/>
      <point x="0" y="630" type="line"/>
      <point x="0" y="650" type="line"/>
      <point x="290" y="650" type="line"/>
    </contour>
  </outline>
</glyph>
<glyph name="degree" format="2">
  <advance width="320.0"/>
  <unicode hex="00B0"/>
  <outline>
    <contour>
      <point x="160" y="720" type="qcurve" smooth="yes"/>
      <point x="191" y="720"/>
      <point x="240" y="690"/>
      <point x="270" y="641"/>
      <point x="270" y="610" type="qcurve" smooth="yes"/>
      <point x="270" y="580"/>
      <point x="240" y="530"/>
      <point x="190.31055900621118" y="500"/>
      <point x="160.49689440993788" y="500" type="qcurve" smooth="yes"/>
      <point x="129.68944099378882" y="500"/>
      <point x="80" y="530"/>
      <point x="50" y="580"/>
      <point x="50" y="610" type="qcurve" smooth="yes"/>
      <point x="50" y="641"/>
      <point x="80" y="690"/>
      <point x="130" y="720"/>
    </contour>
    <contour>
      <point x="159" y="520" type="qcurve" smooth="yes"/>
      <point x="196.7" y="520"/>
      <point x="250" y="572.7142857142857"/>
      <point x="250" y="610" type="qcurve" smooth="yes"/>
      <point x="250" y="648"/>
      <point x="198.45714285714286" y="700"/>
      <point x="162" y="700" type="qcurve" smooth="yes"/>
      <point x="125" y="700"/>
      <point x="70" y="646.1142857142858"/>
      <point x="70" y="608" type="qcurve" smooth="yes"/>
      <point x="70" y="571.5428571428571"/>
      <point x="123" y="520"/>
    </contour>
  </outline>
</glyph>
<glyph name="plusminus" format="2">
  <advance width="1000.0"/>
  <unicode hex="00B1"/>
  <outline>
    <contour>
      <point x="800" y="378" type="line"/>
      <point x="510" y="378" type="line"/>
      <point x="510" y="178" type="line"/>
      <point x="490" y="178" type="line"/>
      <point x="490" y="378" type="line"/>
      <point x="200" y="378" type="line"/>
      <point x="200" y="398" type="line"/>
      <point x="490" y="398" type="line"/>
      <point x="490" y="600" type="line"/>
      <point x="510" y="600" type="line"/>
      <point x="510" y="398" type="line"/>
      <point x="800" y="398" type="line"/>
    </contour>
    <contour>
      <point x="800" y="22" type="line"/>
      <point x="200" y="22" type="line"/>
      <point x="200" y="42" type="line"/>
      <point x="800" y="42" type="line"/>
    </contour>
  </outline>
</glyph>
<glyph name="twosuperior" format="2">
  <advance width="353.0"/>
  <unicode hex="00B2"/>
  <outline>
    <contour>
      <point x="28" y="364" type="line"/>
      <point x="107" y="422" type="line" smooth="yes"/>
      <point x="161" y="462"/>
      <point x="232" y="523"/>
      <point x="272" y="569"/>
      <point x="288" y="605"/>
      <point x="288" y="620" type="qcurve" smooth="yes"/>
      <point x="288" y="668"/>
      <point x="230" y="714"/>
      <point x="179" y="714" type="qcurve" smooth="yes"/>
      <point x="127" y="714"/>
      <point x="63" y="661"/>
      <point x="57" y="613" type="qcurve"/>
      <point x="38" y="613" type="line"/>
      <point x="40" y="649"/>
      <point x="76" y="703"/>
      <point x="137" y="732"/>
      <point x="176" y="732" type="qcurve" smooth="yes"/>
      <point x="219" y="732"/>
      <point x="278" y="707"/>
      <point x="308" y="657"/>
      <point x="308" y="619" type="qcurve" smooth="yes"/>
      <point x="308" y="602"/>
      <point x="295" y="567"/>
      <point x="258" y="522"/>
      <point x="191" y="462"/>
      <point x="138" y="423" type="qcurve" smooth="yes"/>
      <point x="40" y="351" type="line"/>
      <point x="40" y="361" type="line"/>
      <point x="301" y="361" type="line"/>
      <point x="301" y="341" type="line"/>
      <point x="28" y="341" type="line"/>
    </contour>
  </outline>
</glyph>
<glyph name="acute" format="2">
  <advance width="210.0"/>
  <unicode hex="00B4"/>
  <outline>
    <contour>
      <point x="40" y="580" type="line"/>
      <point x="140" y="720" type="line"/>
      <point x="170" y="720" type="line"/>
      <point x="60" y="580" type="line"/>
    </contour>
  </outline>
</glyph>
<glyph name="paragraph" format="2">
  <advance width="559.0"/>
  <unicode hex="00B6"/>
  <outline>
    <contour>
      <point x="500" y="704" type="line"/>
      <point x="419" y="704" type="line"/>
      <point x="419" y="-160" type="line"/>
      <point x="399" y="-160" type="line"/>
      <point x="399" y="704" type="line"/>
      <point x="269" y="704" type="line"/>
      <point x="269" y="-160" type="line"/>
      <point x="249" y="-160" type="line"/>
      <point x="249" y="352" type="line"/>
      <point x="199" y="352"/>
      <point x="107" y="388"/>
      <point x="50" y="462"/>
      <point x="50" y="521" type="qcurve" smooth="yes"/>
      <point x="50" y="568"/>
      <point x="88" y="643"/>
      <point x="148" y="695"/>
      <point x="218" y="722"/>
      <point x="250" y="722" type="qcurve" smooth="yes"/>
      <point x="500" y="722" type="line"/>
    </contour>
  </outline>
</glyph>
<glyph name="periodcentered" format="2">
  <advance width="142.0"/>
  <unicode hex="00B7"/>
  <outline>
    <contour>
      <point x="82" y="298" type="line"/>
      <point x="60" y="298" type="line"/>
      <point x="60" y="421" type="line"/>
      <point x="82" y="421" type="line"/>
    </contour>
  </outline>
</glyph>
<glyph name="cedilla" format="2">
  <advance width="287.0"/>
  <unicode hex="00B8"/>
  <outline>
    <contour>
      <point x="86" y="-86" type="line"/>
      <point x="119" y="10" type="line"/>
      <point x="139" y="10" type="line"/>
      <point x="111" y="-73" type="line"/>
      <point x="104" y="-70" type="line"/>
      <point x="112" y="-63"/>
      <point x="140" y="-54"/>
      <point x="157" y="-54" type="qcurve" smooth="yes"/>
      <point x="193" y="-54"/>
      <point x="237" y="-94"/>
      <point x="237" y="-128" type="qcurve" smooth="yes"/>
      <point x="237" y="-165"/>
      <point x="186" y="-210"/>
      <point x="145" y="-210" type="qcurve" smooth="yes"/>
      <point x="120" y="-210"/>
      <point x="68" y="-198"/>
      <point x="51" y="-188" type="qcurve"/>
      <point x="57" y="-170" type="line"/>
      <point x="74" y="-180"/>
      <point x="122" y="-192"/>
      <point x="143" y="-192" type="qcurve" smooth="yes"/>
      <point x="176" y="-192"/>
      <point x="217" y="-158"/>
      <point x="217" y="-130" type="qcurve" smooth="yes"/>
      <point x="217" y="-104"/>
      <point x="183" y="-72"/>
      <point x="156" y="-72" type="qcurve" smooth="yes"/>
      <point x="142" y="-72"/>
      <point x="115" y="-81"/>
      <point x="103" y="-90" type="qcurve"/>
    </contour>
  </outline>
</glyph>
<glyph name="onesuperior" format="2">
  <advance width="290.0"/>
  <unicode hex="00B9"/>
  <outline>
    <contour>
      <point x="173" y="343" type="line"/>
      <point x="153" y="343" type="line"/>
      <point x="153" y="698" type="line"/>
      <point x="128" y="679"/>
      <point x="78" y="655"/>
      <point x="56" y="650" type="qcurve"/>
      <point x="56" y="665" type="line"/>
      <point x="67" y="669"/>
      <point x="101" y="686"/>
      <point x="132" y="704"/>
      <point x="140" y="711" type="qcurve" smooth="yes"/>
      <point x="153" y="722" type="line"/>
      <point x="173" y="722" type="line"/>
    </contour>
  </outline>
</glyph>
<glyph name="ordmasculine" format="2">
  <advance width="418.0"/>
  <unicode hex="00BA"/>
  <outline>
    <contour>
      <point x="46" y="525" type="qcurve" smooth="yes"/>
      <point x="46" y="609"/>
      <point x="127" y="710"/>
      <point x="207" y="710" type="qcurve" smooth="yes"/>
      <point x="287" y="710"/>
      <point x="367" y="610"/>
      <point x="367" y="526" type="qcurve" smooth="yes"/>
      <point x="367" y="442"/>
      <point x="287" y="341"/>
      <point x="207" y="341" type="qcurve" smooth="yes"/>
      <point x="127" y="341"/>
      <point x="46" y="442"/>
    </contour>
    <contour>
      <point x="66" y="525" type="qcurve" smooth="yes"/>
      <point x="66" y="476"/>
      <point x="97" y="401"/>
      <point x="159" y="360"/>
      <point x="207" y="360" type="qcurve" smooth="yes"/>
      <point x="255" y="360"/>
      <point x="317" y="401"/>
      <point x="347" y="476"/>
      <point x="347" y="525" type="qcurve" smooth="yes"/>
      <point x="347" y="574"/>
      <point x="316" y="650"/>
      <point x="253" y="693"/>
      <point x="206" y="693" type="qcurve" smooth="yes"/>
      <point x="159" y="693"/>
      <point x="97" y="650"/>
      <point x="66" y="574"/>
    </contour>
    <contour>
      <point x="33" y="251" type="line"/>
      <point x="33" y="271" type="line"/>
      <point x="386" y="271" type="line"/>
      <point x="386" y="251" type="line"/>
    </contour>
  </outline>
</glyph>
<glyph name="guillemotright" format="2">
  <advance width="512.0"/>
  <unicode hex="00BB"/>
  <outline>
    <contour>
      <point x="80" y="57" type="line"/>
      <point x="206" y="262" type="line"/>
      <point x="206" y="242" type="line"/>
      <point x="80" y="447" type="line"/>
      <point x="100" y="447" type="line"/>
      <point x="237" y="252" type="line"/>
      <point x="100" y="57" type="line"/>
    </contour>
    <contour>
      <point x="275" y="57" type="line"/>
      <point x="401" y="262" type="line"/>
      <point x="401" y="242" type="line"/>
      <point x="275" y="447" type="line"/>
      <point x="295" y="447" type="line"/>
      <point x="432" y="252" type="line"/>
      <point x="295" y="57" type="line"/>
    </contour>
  </outline>
</glyph>
<glyph name="onequarter" format="2">
  <advance width="799.0"/>
  <unicode hex="00BC"/>
  <outline>
    <contour>
      <point x="575" y="736" type="line"/>
      <point x="149" y="-14" type="line"/>
      <point x="125" y="-14" type="line"/>
      <point x="551" y="736" type="line"/>
    </contour>
    <contour>
      <point x="454" y="122" type="line"/>
      <point x="455" y="131" type="line"/>
      <point x="724" y="131" type="line"/>
      <point x="724" y="113" type="line"/>
      <point x="439" y="113" type="line"/>
      <point x="439" y="133" type="line"/>
      <point x="624" y="390" type="line"/>
      <point x="641" y="390" type="line"/>
      <point x="641" y="0" type="line"/>
      <point x="621" y="0" type="line"/>
      <point x="621" y="373" type="line"/>
      <point x="627" y="362" type="line"/>
    </contour>
    <contour>
      <point x="173" y="343" type="line"/>
      <point x="153" y="343" type="line"/>
      <point x="153" y="698" type="line"/>
      <point x="128" y="679"/>
      <point x="78" y="655"/>
      <point x="56" y="650" type="qcurve"/>
      <point x="56" y="665" type="line"/>
      <point x="67" y="669"/>
      <point x="101" y="686"/>
      <point x="132" y="704"/>
      <point x="140" y="711" type="qcurve" smooth="yes"/>
      <point x="153" y="722" type="line"/>
      <point x="173" y="722" type="line"/>
    </contour>
  </outline>
</glyph>
<glyph name="onehalf" format="2">
  <advance width="799.0"/>
  <unicode hex="00BD"/>
  <outline>
    <contour>
      <point x="590" y="736" type="line"/>
      <point x="164" y="-14" type="line"/>
      <point x="140" y="-14" type="line"/>
      <point x="566" y="736" type="line"/>
    </contour>
    <contour>
      <point x="173" y="343" type="line"/>
      <point x="153" y="343" type="line"/>
      <point x="153" y="698" type="line"/>
      <point x="128" y="679"/>
      <point x="78" y="655"/>
      <point x="56" y="650" type="qcurve"/>
      <point x="56" y="665" type="line"/>
      <point x="67" y="669"/>
      <point x="101" y="686"/>
      <point x="132" y="704"/>
      <point x="140" y="711" type="qcurve" smooth="yes"/>
      <point x="153" y="722" type="line"/>
      <point x="173" y="722" type="line"/>
    </contour>
    <contour>
      <point x="453" y="23" type="line"/>
      <point x="532" y="81" type="line" smooth="yes"/>
      <point x="586" y="121"/>
      <point x="657" y="182"/>
      <point x="697" y="228"/>
      <point x="713" y="263"/>
      <point x="713" y="279" type="qcurve" smooth="yes"/>
      <point x="713" y="326"/>
      <point x="655" y="373"/>
      <point x="604" y="373" type="qcurve" smooth="yes"/>
      <point x="552" y="373"/>
      <point x="488" y="320"/>
      <point x="482" y="272" type="qcurve"/>
      <point x="463" y="272" type="line"/>
      <point x="465" y="308"/>
      <point x="501" y="361"/>
      <point x="562" y="391"/>
      <point x="601" y="391" type="qcurve" smooth="yes"/>
      <point x="644" y="391"/>
      <point x="703" y="366"/>
      <point x="733" y="316"/>
      <point x="733" y="277" type="qcurve" smooth="yes"/>
      <point x="733" y="261"/>
      <point x="720" y="225"/>
      <point x="683" y="180"/>
      <point x="616" y="121"/>
      <point x="563" y="81" type="qcurve" smooth="yes"/>
      <point x="465" y="10" type="line"/>
      <point x="465" y="20" type="line"/>
      <point x="726" y="20" type="line"/>
      <point x="726" y="0" type="line"/>
      <point x="453" y="0" type="line"/>
    </contour>
  </outline>
</glyph>
<glyph name="threequarters" format="2">
  <advance width="799.0"/>
  <unicode hex="00BE"/>
  <outline>
    <contour>
      <point x="41" y="452" type="qcurve"/>
      <point x="61" y="452" type="line"/>
      <point x="66" y="400"/>
      <point x="131" y="349"/>
      <point x="189" y="349" type="qcurve" smooth="yes"/>
      <point x="251" y="349"/>
      <point x="314" y="391"/>
      <point x="314" y="434" type="qcurve" smooth="yes"/>
      <point x="314" y="452"/>
      <point x="295" y="497"/>
      <point x="242" y="530"/>
      <point x="193" y="530" type="qcurve" smooth="yes"/>
      <point x="154" y="530" type="line"/>
      <point x="154" y="548" type="line"/>
      <point x="181" y="548" type="line" smooth="yes"/>
      <point x="236" y="548"/>
      <point x="297" y="597"/>
      <point x="297" y="625" type="qcurve" smooth="yes"/>
      <point x="297" y="669"/>
      <point x="247" y="714"/>
      <point x="189" y="714" type="qcurve" smooth="yes"/>
      <point x="138" y="714"/>
      <point x="76" y="661"/>
      <point x="76" y="622" type="qcurve"/>
      <point x="56" y="622" type="line"/>
      <point x="56" y="670"/>
      <point x="127" y="732"/>
      <point x="194" y="732" type="qcurve" smooth="yes"/>
      <point x="255" y="732"/>
      <point x="317" y="678"/>
      <point x="317" y="628" type="qcurve" smooth="yes"/>
      <point x="317" y="593"/>
      <point x="268" y="545"/>
      <point x="225" y="539" type="qcurve"/>
      <point x="225" y="543" type="line"/>
      <point x="278" y="539"/>
      <point x="334" y="479"/>
      <point x="334" y="433" type="qcurve" smooth="yes"/>
      <point x="334" y="385"/>
      <point x="260" y="331"/>
      <point x="188" y="331" type="qcurve" smooth="yes"/>
      <point x="120" y="331"/>
      <point x="44" y="393"/>
    </contour>
    <contour>
      <point x="638" y="736" type="line"/>
      <point x="212" y="-14" type="line"/>
      <point x="188" y="-14" type="line"/>
      <point x="614" y="736" type="line"/>
    </contour>
    <contour>
      <point x="454" y="122" type="line"/>
      <point x="455" y="131" type="line"/>
      <point x="724" y="131" type="line"/>
      <point x="724" y="113" type="line"/>
      <point x="439" y="113" type="line"/>
      <point x="439" y="133" type="line"/>
      <point x="624" y="390" type="line"/>
      <point x="641" y="390" type="line"/>
      <point x="641" y="0" type="line"/>
      <point x="621" y="0" type="line"/>
      <point x="621" y="373" type="line"/>
      <point x="627" y="362" type="line"/>
    </contour>
  </outline>
</glyph>
<glyph name="AE" format="2">
  <advance width="847.0"/>
  <unicode hex="00C6"/>
  <outline>
    <contour>
      <point x="40" y="0" type="line"/>
      <point x="423" y="722" type="line"/>
      <point x="429" y="722" type="line"/>
      <point x="429" y="687" type="line"/>
      <point x="65" y="0" type="line"/>
    </contour>
    <contour>
      <point x="173" y="227" type="line"/>
      <point x="186" y="247" type="line"/>
      <point x="444" y="247" type="line"/>
      <point x="444" y="227" type="line"/>
    </contour>
    <contour>
      <point x="439" y="0" type="line"/>
      <point x="439" y="18" type="line"/>
      <point x="787" y="18" type="line"/>
      <point x="787" y="0" type="line"/>
    </contour>
    <contour>
      <point x="439" y="359" type="line"/>
      <point x="439" y="379" type="line"/>
      <point x="767" y="379" type="line"/>
      <point x="767" y="359" type="line"/>
    </contour>
    <contour>
      <point x="439" y="704" type="line"/>
      <point x="439" y="722" type="line"/>
      <point x="777" y="722" type="line"/>
      <point x="777" y="704" type="line"/>
    </contour>
    <contour>
      <point x="429" y="0" type="line"/>
      <point x="429" y="722" type="line"/>
      <point x="451" y="722" type="line"/>
      <point x="451" y="0" type="line"/>
    </contour>
  </outline>
</glyph>
<glyph name="Eth" format="2">
  <advance width="719.0"/>
  <unicode hex="00D0"/>
  <outline>
    <contour>
      <point x="0" y="372" type="line"/>
      <point x="351" y="372" type="line"/>
      <point x="351" y="352" type="line"/>
      <point x="0" y="352" type="line"/>
    </contour>
    <contour>
      <point x="88" y="0" type="line"/>
      <point x="88" y="20" type="line"/>
      <point x="296" y="20" type="line" smooth="yes"/>
      <point x="378" y="20"/>
      <point x="496" y="106"/>
      <point x="561" y="260"/>
      <point x="561" y="363" type="qcurve" smooth="yes"/>
      <point x="561" y="465"/>
      <point x="496" y="617"/>
      <point x="378" y="702"/>
      <point x="296" y="702" type="qcurve" smooth="yes"/>
      <point x="88" y="702" type="line"/>
      <point x="88" y="722" type="line"/>
      <point x="296" y="722" type="line" smooth="yes"/>
      <point x="384" y="722"/>
      <point x="513" y="633"/>
      <point x="583" y="473"/>
      <point x="583" y="366" type="qcurve" smooth="yes"/>
      <point x="583" y="256"/>
      <point x="513" y="92"/>
      <point x="384" y="0"/>
      <point x="296" y="0" type="qcurve" smooth="yes"/>
    </contour>
    <contour>
      <point x="81" y="0" type="line"/>
      <point x="81" y="722" type="line"/>
      <point x="103" y="722" type="line"/>
      <point x="103" y="0" type="line"/>
    </contour>
  </outline>
</glyph>
<glyph name="multiply" format="2">
  <advance width="640.0"/>
  <unicode hex="00D7"/>
  <outline>
    <contour>
      <point x="62" y="57" type="line"/>
      <point x="563" y="558" type="line"/>
      <point x="578" y="543" type="line"/>
      <point x="77" y="42" type="line"/>
    </contour>
    <contour>
      <point x="563" y="42" type="line"/>
      <point x="62" y="543" type="line"/>
      <point x="77" y="558" type="line"/>
      <point x="578" y="57" type="line"/>
    </contour>
  </outline>
</glyph>
<glyph name="Thorn" format="2">
  <advance width="554.0"/>
  <unicode hex="00DE"/>
  <outline>
    <contour>
      <point x="77" y="172" type="line"/>
      <point x="77" y="192" type="line"/>
      <point x="198" y="192" type="line" smooth="yes"/>
      <point x="290" y="192"/>
      <point x="402" y="229"/>
      <point x="452" y="311"/>
      <point x="452" y="379" type="qcurve" smooth="yes"/>
      <point x="452" y="448"/>
      <point x="402" y="531"/>
      <point x="290" y="568"/>
      <point x="198" y="568" type="qcurve" smooth="yes"/>
      <point x="77" y="568" type="line"/>
      <point x="77" y="588" type="line"/>
      <point x="195" y="588" type="line" smooth="yes"/>
      <point x="297" y="588"/>
      <point x="419" y="547"/>
      <point x="474" y="457"/>
      <point x="474" y="381" type="qcurve" smooth="yes"/>
      <point x="474" y="305"/>
      <point x="419" y="213"/>
      <point x="296" y="172"/>
      <point x="195" y="172" type="qcurve" smooth="yes"/>
    </contour>
    <contour>
      <point x="70" y="0" type="line"/>
      <point x="70" y="723" type="line"/>
      <point x="92" y="723" type="line"/>
      <point x="92" y="0" type="line"/>
    </contour>
  </outline>
</glyph>
<glyph name="germandbls" format="2">
  <advance width="589.0"/>
  <unicode hex="00DF"/>
  <outline>
    <contour>
      <point x="70" y="0" type="line"/>
      <point x="70" y="538" type="line" smooth="yes"/>
      <point x="70" y="634"/>
      <point x="163" y="732"/>
      <point x="255" y="732" type="qcurve" smooth="yes"/>
      <point x="295" y="732"/>
      <point x="358" y="711"/>
      <point x="402" y="672"/>
      <point x="426" y="614"/>
      <point x="426" y="578" type="qcurve" smooth="yes"/>
      <point x="426" y="537"/>
      <point x="400" y="483"/>
      <point x="362" y="447"/>
      <point x="324" y="423"/>
      <point x="299" y="402"/>
      <point x="299" y="389" type="qcurve"/>
      <point x="298" y="371"/>
      <point x="341" y="345"/>
      <point x="404" y="317"/>
      <point x="466" y="274"/>
      <point x="509" y="204"/>
      <point x="509" y="148" type="qcurve" smooth="yes"/>
      <point x="509" y="62"/>
      <point x="417" y="-10"/>
      <point x="343" y="-10" type="qcurve" smooth="yes"/>
      <point x="270" y="-10"/>
      <point x="180" y="64"/>
      <point x="180" y="143" type="qcurve"/>
      <point x="202" y="143" type="line"/>
      <point x="202" y="78"/>
      <point x="276" y="10"/>
      <point x="346" y="10" type="qcurve" smooth="yes"/>
      <point x="413" y="10"/>
      <point x="487" y="76"/>
      <point x="487" y="136" type="qcurve" smooth="yes"/>
      <point x="487" y="185"/>
      <point x="457" y="250"/>
      <point x="409" y="291"/>
      <point x="355" y="318"/>
      <point x="307" y="340"/>
      <point x="277" y="366"/>
      <point x="277" y="386" type="qcurve" smooth="yes"/>
      <point x="277" y="405"/>
      <point x="302" y="431"/>
      <point x="340" y="455"/>
      <point x="379" y="488"/>
      <point x="405" y="540"/>
      <point x="405" y="581" type="qcurve" smooth="yes"/>
      <point x="405" y="643"/>
      <point x="327" y="712"/>
      <point x="255" y="712" type="qcurve" smooth="yes"/>
      <point x="170" y="712"/>
      <point x="92" y="620"/>
      <point x="92" y="532" type="qcurve" smooth="yes"/>
      <point x="92" y="0" type="line"/>
    </contour>
  </outline>
</glyph>
<glyph name="ae" format="2">
  <advance width="905.0"/>
  <unicode hex="00E6"/>
  <outline>
    <contour>
      <point x="59" y="132" type="qcurve" smooth="yes"/>
      <point x="59" y="180"/>
      <point x="111" y="250"/>
      <point x="206" y="289"/>
      <point x="270" y="289" type="qcurve" smooth="yes"/>
      <point x="281" y="289"/>
      <point x="324" y="288"/>
      <point x="375" y="286"/>
      <point x="422" y="284"/>
      <point x="436" y="282" type="qcurve"/>
      <point x="436" y="262" type="line"/>
      <point x="425" y="263"/>
      <point x="366" y="267"/>
      <point x="297" y="269"/>
      <point x="271" y="269" type="qcurve" smooth="yes"/>
      <point x="228" y="269"/>
      <point x="157" y="250"/>
      <point x="107" y="215"/>
      <point x="79" y="165"/>
      <point x="79" y="134" type="qcurve" smooth="yes"/>
      <point x="79" y="80"/>
      <point x="156" y="10"/>
      <point x="218" y="10" type="qcurve" smooth="yes"/>
      <point x="281" y="10"/>
      <point x="375" y="70"/>
      <point x="427" y="178"/>
      <point x="427" y="250" type="qcurve" smooth="yes"/>
      <point x="427" y="276" type="line" smooth="yes"/>
      <point x="427" y="381"/>
      <point x="348" y="492"/>
      <point x="254" y="492" type="qcurve" smooth="yes"/>
      <point x="180" y="492"/>
      <point x="106" y="429"/>
      <point x="106" y="376" type="qcurve"/>
      <point x="86" y="376" type="line"/>
      <point x="86" y="417"/>
      <point x="124" y="478"/>
      <point x="198" y="512"/>
      <point x="250" y="512" type="qcurve" smooth="yes"/>
      <point x="300" y="512"/>
      <point x="386" y="476"/>
      <point x="440" y="395"/>
      <point x="443" y="327" type="qcurve"/>
      <point x="434" y="322" type="line"/>
      <point x="445" y="395"/>
      <point x="502" y="478"/>
      <point x="581" y="512"/>
      <point x="624" y="512" type="qcurve" smooth="yes"/>
      <point x="687" y="512"/>
      <point x="772" y="454"/>
      <point x="815" y="350"/>
      <point x="815" y="280" type="qcurve" smooth="yes"/>
      <point x="815" y="263" type="line"/>
      <point x="440" y="263" type="line"/>
      <point x="440" y="283" type="line"/>
      <point x="793" y="283" type="line"/>
      <point x="793" y="393"/>
      <point x="696" y="492"/>
      <point x="617" y="492" type="qcurve" smooth="yes"/>
      <point x="542" y="492"/>
      <point x="449" y="369"/>
      <point x="449" y="264" type="qcurve" smooth="yes"/>
      <point x="449" y="201"/>
      <point x="474" y="106"/>
      <point x="522" y="42"/>
      <point x="588" y="10"/>
      <point x="629" y="10" type="qcurve" smooth="yes"/>
      <point x="691" y="10"/>
      <point x="780" y="91"/>
      <point x="787" y="157" type="qcurve"/>
      <point x="807" y="157" type="line"/>
      <point x="801" y="107"/>
      <point x="750" y="32"/>
      <point x="672" y="-10"/>
      <point x="627" y="-10" type="qcurve" smooth="yes"/>
      <point x="577" y="-10"/>
      <point x="494" y="37"/>
      <point x="438" y="130"/>
      <point x="430" y="198" type="qcurve"/>
      <point x="440" y="197" type="line"/>
      <point x="434" y="135"/>
      <point x="374" y="42"/>
      <point x="278" y="-10"/>
      <point x="217" y="-10" type="qcurve" smooth="yes"/>
      <point x="169" y="-10"/>
      <point x="98" y="26"/>
      <point x="59" y="90"/>
    </contour>
  </outline>
</glyph>
<glyph name="eth" format="2">
  <advance width="587.0"/>
  <unicode hex="00F0"/>
  <outline>
    <contour>
      <point x="68" y="254" type="qcurve" smooth="yes"/>
      <point x="68" y="330"/>
      <point x="117" y="447"/>
      <point x="216" y="513"/>
      <point x="292" y="513" type="qcurve" smooth="yes"/>
      <point x="330" y="513"/>
      <point x="392" y="496"/>
      <point x="446" y="459"/>
      <point x="474" y="429" type="qcurve"/>
      <point x="478" y="402" type="line"/>
      <point x="454" y="457"/>
      <point x="390" y="550"/>
      <point x="306" y="628"/>
      <point x="195" y="695"/>
      <point x="123" y="725" type="qcurve"/>
      <point x="139" y="734" type="line"/>
      <point x="266" y="686"/>
      <point x="434" y="541"/>
      <point x="518" y="359"/>
      <point x="518" y="254" type="qcurve" smooth="yes"/>
      <point x="518" y="169"/>
      <point x="459" y="52"/>
      <point x="356" y="-10"/>
      <point x="289" y="-10" type="qcurve" smooth="yes"/>
      <point x="186" y="-10"/>
      <point x="68" y="131"/>
    </contour>
    <contour>
      <point x="88" y="244" type="qcurve" smooth="yes"/>
      <point x="88" y="175"/>
      <point x="141" y="69"/>
      <point x="234" y="8"/>
      <point x="292" y="8" type="qcurve" smooth="yes"/>
      <point x="340" y="8"/>
      <point x="417" y="46"/>
      <point x="470" y="113"/>
      <point x="498" y="203"/>
      <point x="498" y="254" type="qcurve" smooth="yes"/>
      <point x="498" y="329"/>
      <point x="446" y="437"/>
      <point x="355" y="495"/>
      <point x="297" y="495" type="qcurve" smooth="yes"/>
      <point x="231" y="495"/>
      <point x="138" y="438"/>
      <point x="88" y="326"/>
    </contour>
    <contour>
      <point x="90" y="558" type="line"/>
      <point x="427" y="711" type="line"/>
      <point x="434" y="697" type="line"/>
      <point x="97" y="545" type="line"/>
    </contour>
  </outline>
</glyph>
<glyph name="divide" format="2">
  <advance width="1000.0"/>
  <unicode hex="00F7"/>
  <outline>
    <contour>
      <point x="800" y="290" type="line"/>
      <point x="200" y="290" type="line"/>
      <point x="200" y="310" type="line"/>
      <point x="800" y="310" type="line"/>
    </contour>
    <contour>
      <point x="489" y="78" type="line"/>
      <point x="489" y="201" type="line"/>
      <point x="511" y="201" type="line"/>
      <point x="511" y="78" type="line"/>
    </contour>
    <contour>
      <point x="489" y="399" type="line"/>
      <point x="489" y="522" type="line"/>
      <point x="511" y="522" type="line"/>
      <point x="511" y="399" type="line"/>
    </contour>
  </outline>
</glyph>
<glyph name="oslash" format="2">
  <advance width="591.0"/>
  <unicode hex="00F8"/>
  <outline>
    <contour>
      <point x="109" y="-10" type="line"/>
      <point x="81" y="-10" type="line"/>
      <point x="464" y="510" type="line"/>
      <point x="493" y="510" type="line"/>
    </contour>
    <contour>
      <point x="67" y="250" type="qcurve" smooth="yes"/>
      <point x="67" y="330"/>
      <point x="122" y="447"/>
      <point x="226" y="510"/>
      <point x="298" y="510" type="qcurve" smooth="yes"/>
      <point x="370" y="510"/>
      <point x="473" y="447"/>
      <point x="527" y="330"/>
      <point x="527" y="250" type="qcurve" smooth="yes"/>
      <point x="527" y="170"/>
      <point x="473" y="53"/>
      <point x="370" y="-10"/>
      <point x="298" y="-10" type="qcurve" smooth="yes"/>
      <point x="226" y="-10"/>
      <point x="122" y="53"/>
      <point x="67" y="170"/>
    </contour>
    <contour>
      <point x="88" y="250" type="qcurve" smooth="yes"/>
      <point x="88" y="176"/>
      <point x="141" y="68"/>
      <point x="234" y="10"/>
      <point x="297" y="10" type="qcurve" smooth="yes"/>
      <point x="359" y="10"/>
      <point x="453" y="68"/>
      <point x="505" y="176"/>
      <point x="505" y="250" type="qcurve" smooth="yes"/>
      <point x="505" y="323"/>
      <point x="454" y="431"/>
      <point x="360" y="490"/>
      <point x="297" y="490" type="qcurve" smooth="yes"/>
      <point x="235" y="490"/>
      <point x="141" y="431"/>
      <point x="88" y="324"/>
    </contour>
  </outline>
</glyph>
<glyph name="thorn" format="2">
  <advance width="613.0"/>
  <unicode hex="00FE"/>
  <outline>
    <contour>
      <point x="100" y="-200" type="line"/>
      <point x="100" y="722" type="line"/>
      <point x="120" y="722" type="line"/>
      <point x="120" y="-200" type="line"/>
    </contour>
    <contour>
      <point x="110" y="171" type="qcurve"/>
      <point x="110" y="338" type="line"/>
      <point x="120" y="391"/>
      <point x="179" y="469"/>
      <point x="263" y="512"/>
      <point x="310" y="512" type="qcurve" smooth="yes"/>
      <point x="376" y="512"/>
      <point x="476" y="454"/>
      <point x="533" y="340"/>
      <point x="533" y="255" type="qcurve" smooth="yes"/>
      <point x="533" y="170"/>
      <point x="476" y="51"/>
      <point x="378" y="-10"/>
      <point x="315" y="-10" type="qcurve" smooth="yes"/>
      <point x="235" y="-10"/>
      <point x="125" y="86"/>
    </contour>
    <contour>
      <point x="120" y="262" type="qcurve" smooth="yes"/>
      <point x="120" y="183"/>
      <point x="167" y="70"/>
      <point x="253" y="10"/>
      <point x="313" y="10" type="qcurve" smooth="yes"/>
      <point x="371" y="10"/>
      <point x="461" y="66"/>
      <point x="513" y="176"/>
      <point x="513" y="257" type="qcurve" smooth="yes"/>
      <point x="513" y="337"/>
      <point x="461" y="441"/>
      <point x="369" y="492"/>
      <point x="307" y="492" type="qcurve" smooth="yes"/>
      <point x="277" y="492"/>
      <point x="211" y="465"/>
      <point x="155" y="409"/>
      <point x="120" y="322"/>
    </contour>
  </outline>
</glyph>
<glyph name="dcroat" format="2">
  <advance width="561.0"/>
  <unicode hex="0111"/>
  <outline>
    <contour>
      <point x="298" y="622" type="line"/>
      <point x="560" y="622" type="line"/>
      <point x="560" y="602" type="line"/>
      <point x="298" y="602" type="line"/>
    </contour>
    <contour>
      <point x="421" y="0" type="line"/>
      <point x="421" y="722" type="line"/>
      <point x="441" y="722" type="line"/>
      <point x="441" y="0" type="line"/>
    </contour>
    <contour>
      <point x="0" y="250" type="qcurve" smooth="yes"/>
      <point x="0" y="333"/>
      <point x="52" y="450"/>
      <point x="151" y="512"/>
      <point x="222" y="512" type="qcurve" smooth="yes"/>
      <point x="276" y="512"/>
      <point x="365" y="460"/>
      <point x="423" y="374"/>
      <point x="430" y="325" type="qcurve"/>
      <point x="430" y="170" type="line"/>
      <point x="420" y="115"/>
      <point x="359" y="34"/>
      <point x="274" y="-10"/>
      <point x="226" y="-10" type="qcurve" smooth="yes"/>
      <point x="152" y="-10"/>
      <point x="52" y="51"/>
      <point x="0" y="168"/>
    </contour>
    <contour>
      <point x="20" y="251" type="qcurve" smooth="yes"/>
      <point x="20" y="170"/>
      <point x="69" y="63"/>
      <point x="163" y="10"/>
      <point x="229" y="10" type="qcurve" smooth="yes"/>
      <point x="272" y="10"/>
      <point x="361" y="62"/>
      <point x="421" y="165"/>
      <point x="421" y="242" type="qcurve" smooth="yes"/>
      <point x="421" y="297"/>
      <point x="392" y="388"/>
      <point x="339" y="455"/>
      <point x="267" y="492"/>
      <point x="224" y="492" type="qcurve" smooth="yes"/>
      <point x="173" y="492"/>
      <point x="96" y="460"/>
      <point x="45" y="398"/>
      <point x="20" y="309"/>
    </contour>
  </outline>
</glyph>
<glyph name="Hbar" format="2">
  <advance width="669.0"/>
  <unicode hex="0126"/>
  <outline>
    <contour>
      <point x="10" y="539" type="line"/>
      <point x="10" y="559" type="line"/>
      <point x="590" y="559" type="line"/>
      <point x="590" y="539" type="line"/>
    </contour>
    <contour>
      <point x="72" y="381" type="line"/>
      <point x="529" y="381" type="line"/>
      <point x="529" y="361" type="line"/>
      <point x="72" y="361" type="line"/>
    </contour>
    <contour>
      <point x="60" y="0" type="line"/>
      <point x="60" y="722" type="line"/>
      <point x="82" y="722" type="line"/>
      <point x="82" y="0" type="line"/>
    </contour>
    <contour>
      <point x="518" y="0" type="line"/>
      <point x="518" y="722" type="line"/>
      <point x="540" y="722" type="line"/>
      <point x="540" y="0" type="line"/>
    </contour>
  </outline>
</glyph>
<glyph name="hbar" format="2">
  <advance width="583.0"/>
  <unicode hex="0127"/>
  <outline>
    <contour>
      <point x="-31" y="610" type="line"/>
      <point x="334" y="610" type="line"/>
      <point x="334" y="590" type="line"/>
      <point x="-31" y="590" type="line"/>
    </contour>
    <contour>
      <point x="110" y="376" type="line"/>
      <point x="110" y="402" type="line"/>
      <point x="120" y="420" type="line" smooth="yes"/>
      <point x="135" y="447"/>
      <point x="193" y="488"/>
      <point x="261" y="510"/>
      <point x="293" y="510" type="qcurve" smooth="yes"/>
      <point x="382" y="510"/>
      <point x="485" y="409"/>
      <point x="485" y="312" type="qcurve" smooth="yes"/>
      <point x="485" y="0" type="line"/>
      <point x="465" y="0" type="line"/>
      <point x="465" y="316" type="line" smooth="yes"/>
      <point x="465" y="402"/>
      <point x="372" y="490"/>
      <point x="290" y="490" type="qcurve" smooth="yes"/>
      <point x="253" y="490"/>
      <point x="178" y="460"/>
      <point x="125" y="409"/>
      <point x="120" y="376" type="qcurve"/>
    </contour>
    <contour>
      <point x="100" y="0" type="line"/>
      <point x="100" y="722" type="line"/>
      <point x="120" y="722" type="line"/>
      <point x="120" y="0" type="line"/>
    </contour>
  </outline>
</glyph>
<glyph name="dotlessi" format="2">
  <advance width="220.0"/>
  <unicode hex="0131"/>
  <outline>
    <contour>
      <point x="100" y="0" type="line"/>
      <point x="100" y="500" type="line"/>
      <point x="120" y="500" type="line"/>
      <point x="120" y="0" type="line"/>
    </contour>
  </outline>
</glyph>
<glyph name="kgreenlandic" format="2">
  <advance width="459.0"/>
  <unicode hex="0138"/>
  <outline>
    <contour>
      <point x="120" y="0" type="line"/>
      <point x="100" y="0" type="line"/>
      <point x="100" y="493" type="line"/>
      <point x="120" y="500" type="line"/>
    </contour>
    <contour>
      <point x="419" y="0" type="line"/>
      <point x="390" y="0" type="line"/>
      <point x="120" y="281" type="line"/>
      <point x="360" y="500" type="line"/>
      <point x="393" y="500" type="line"/>
      <point x="142" y="272" type="line"/>
      <point x="142" y="288" type="line"/>
    </contour>
  </outline>
</glyph>
<glyph name="Lslash" format="2">
  <advance width="602.0"/>
  <unicode hex="0141"/>
  <outline>
    <contour>
      <point x="209" y="292" type="line"/>
      <point x="209" y="320" type="line"/>
      <point x="315" y="426" type="line"/>
      <point x="315" y="396" type="line"/>
    </contour>
    <contour>
      <point x="187" y="298" type="line"/>
      <point x="187" y="270" type="line"/>
      <point x="81" y="166" type="line"/>
      <point x="81" y="193" type="line"/>
    </contour>
    <contour>
      <point x="209" y="18" type="line"/>
      <point x="567" y="18" type="line"/>
      <point x="567" y="0" type="line"/>
      <point x="209" y="0" type="line"/>
    </contour>
    <contour>
      <point x="187" y="0" type="line"/>
      <point x="187" y="722" type="line"/>
      <point x="209" y="722" type="line"/>
      <point x="209" y="0" type="line"/>
    </contour>
  </outline>
</glyph>
<glyph name="lslash" format="2">
  <advance width="464.0"/>
  <unicode hex="0142"/>
  <outline>
    <contour>
      <point x="100" y="285" type="line"/>
      <point x="374" y="553" type="line"/>
      <point x="374" y="523" type="line"/>
      <point x="100" y="255" type="line"/>
    </contour>
    <contour>
      <point x="219" y="0" type="line"/>
      <point x="219" y="722" type="line"/>
      <point x="241" y="722" type="line"/>
      <point x="241" y="0" type="line"/>
    </contour>
  </outline>
</glyph>
<glyph name="Eng" format="2">
  <advance width="683.0"/>
  <unicode hex="014A"/>
  <outline>
    <contour>
      <point x="580" y="20" type="line"/>
      <point x="580" y="-62" type="line" smooth="yes"/>
      <point x="580" y="-102"/>
      <point x="552" y="-165"/>
      <point x="502" y="-200"/>
      <point x="469" y="-200" type="qcurve" smooth="yes"/>
      <point x="424" y="-200"/>
      <point x="363" y="-173"/>
      <point x="340" y="-143" type="qcurve"/>
      <point x="355" y="-128" type="line"/>
      <point x="372" y="-152"/>
      <point x="427" y="-180"/>
      <point x="460" y="-180" type="qcurve" smooth="yes"/>
      <point x="508" y="-180"/>
      <point x="558" y="-115"/>
      <point x="558" y="-62" type="qcurve" smooth="yes"/>
      <point x="558" y="20" type="line"/>
    </contour>
    <contour>
      <point x="70" y="722" type="line"/>
      <point x="94" y="722" type="line"/>
      <point x="569" y="0" type="line"/>
      <point x="545" y="0" type="line"/>
    </contour>
    <contour>
      <point x="82" y="722" type="line"/>
      <point x="82" y="0" type="line"/>
      <point x="60" y="0" type="line"/>
      <point x="60" y="722" type="line"/>
    </contour>
    <contour>
      <point x="558" y="0" type="line"/>
      <point x="558" y="722" type="line"/>
      <point x="580" y="722" type="line"/>
      <point x="580" y="0" type="line"/>
    </contour>
  </outline>
</glyph>
<glyph name="eng" format="2">
  <advance width="575.0"/>
  <unicode hex="014B"/>
  <outline>
    <contour>
      <point x="252" y="-143" type="qcurve"/>
      <point x="266" y="-129" type="line"/>
      <point x="286" y="-156"/>
      <point x="329" y="-180"/>
      <point x="355" y="-180" type="qcurve" smooth="yes"/>
      <point x="410" y="-180"/>
      <point x="465" y="-121"/>
      <point x="465" y="-62" type="qcurve" smooth="yes"/>
      <point x="465" y="50" type="line"/>
      <point x="485" y="50" type="line"/>
      <point x="485" y="-62" type="line" smooth="yes"/>
      <point x="485" y="-106"/>
      <point x="455" y="-168"/>
      <point x="398" y="-200"/>
      <point x="356" y="-200" type="qcurve" smooth="yes"/>
      <point x="335" y="-200"/>
      <point x="296" y="-186"/>
      <point x="263" y="-161"/>
    </contour>
    <contour>
      <point x="110" y="376" type="line"/>
      <point x="110" y="420" type="line"/>
      <point x="122" y="420" type="line"/>
      <point x="145" y="461"/>
      <point x="240" y="510"/>
      <point x="298" y="510" type="qcurve" smooth="yes"/>
      <point x="355" y="510"/>
      <point x="439" y="462"/>
      <point x="485" y="378"/>
      <point x="485" y="324" type="qcurve" smooth="yes"/>
      <point x="485" y="0" type="line"/>
      <point x="465" y="0" type="line"/>
      <point x="465" y="320" type="line" smooth="yes"/>
      <point x="465" y="371"/>
      <point x="422" y="449"/>
      <point x="346" y="492"/>
      <point x="296" y="492" type="qcurve" smooth="yes"/>
      <point x="253" y="492"/>
      <point x="175" y="459"/>
      <point x="124" y="406"/>
      <point x="120" y="376" type="qcurve"/>
    </contour>
    <contour>
      <point x="100" y="0" type="line"/>
      <point x="100" y="500" type="line"/>
      <point x="120" y="500" type="line"/>
      <point x="120" y="0" type="line"/>
    </contour>
  </outline>
</glyph>
<glyph name="OE" format="2">
  <advance width="1004.0"/>
  <unicode hex="0152"/>
  <outline>
    <contour>
      <point x="100" y="361" type="qcurve" smooth="yes"/>
      <point x="100" y="470"/>
      <point x="158" y="637"/>
      <point x="289" y="732"/>
      <point x="398" y="732" type="qcurve"/>
      <point x="398" y="712" type="line"/>
      <point x="298" y="712"/>
      <point x="177" y="620"/>
      <point x="122" y="461"/>
      <point x="122" y="361" type="qcurve" smooth="yes"/>
      <point x="122" y="261"/>
      <point x="177" y="102"/>
      <point x="298" y="10"/>
      <point x="398" y="10" type="qcurve"/>
      <point x="398" y="-10" type="line"/>
      <point x="289" y="-10"/>
      <point x="158" y="85"/>
      <point x="100" y="252"/>
    </contour>
    <contour>
      <point x="398" y="712" type="qcurve"/>
      <point x="398" y="732" type="line"/>
      <point x="420" y="732"/>
      <point x="474" y="730"/>
      <point x="525" y="725"/>
      <point x="545" y="721" type="qcurve"/>
      <point x="545" y="701" type="line"/>
      <point x="514" y="707"/>
      <point x="441" y="712"/>
    </contour>
    <contour>
      <point x="398" y="-10" type="qcurve"/>
      <point x="398" y="10" type="line"/>
      <point x="451" y="10"/>
      <point x="515" y="16"/>
      <point x="544" y="25" type="qcurve"/>
      <point x="544" y="1" type="line"/>
      <point x="526" y="-3"/>
      <point x="489" y="-8"/>
      <point x="437" y="-10"/>
    </contour>
    <contour>
      <point x="547" y="17" type="line"/>
      <point x="915" y="17" type="line"/>
      <point x="915" y="-1" type="line"/>
      <point x="547" y="-1" type="line"/>
    </contour>
    <contour>
      <point x="547" y="377" type="line"/>
      <point x="895" y="377" type="line"/>
      <point x="895" y="357" type="line"/>
      <point x="547" y="357" type="line"/>
    </contour>
    <contour>
      <point x="547" y="721" type="line"/>
      <point x="905" y="721" type="line"/>
      <point x="905" y="703" type="line"/>
      <point x="547" y="703" type="line"/>
    </contour>
    <contour>
      <point x="535" y="-1" type="line"/>
      <point x="535" y="721" type="line"/>
      <point x="557" y="721" type="line"/>
      <point x="557" y="-1" type="line"/>
    </contour>
  </outline>
</glyph>
<glyph name="oe" format="2">
  <advance width="1054.0"/>
  <unicode hex="0153"/>
  <outline>
    <contour>
      <point x="80" y="250" type="qcurve" smooth="yes"/>
      <point x="80" y="330"/>
      <point x="135" y="447"/>
      <point x="239" y="510"/>
      <point x="311" y="510" type="qcurve" smooth="yes"/>
      <point x="383" y="510"/>
      <point x="486" y="447"/>
      <point x="540" y="330"/>
      <point x="540" y="250" type="qcurve" smooth="yes"/>
      <point x="540" y="170"/>
      <point x="486" y="53"/>
      <point x="383" y="-10"/>
      <point x="311" y="-10" type="qcurve" smooth="yes"/>
      <point x="239" y="-10"/>
      <point x="135" y="53"/>
      <point x="80" y="170"/>
    </contour>
    <contour>
      <point x="101" y="250" type="qcurve" smooth="yes"/>
      <point x="101" y="176"/>
      <point x="154" y="68"/>
      <point x="247" y="10"/>
      <point x="310" y="10" type="qcurve" smooth="yes"/>
      <point x="372" y="10"/>
      <point x="466" y="68"/>
      <point x="518" y="176"/>
      <point x="518" y="250" type="qcurve" smooth="yes"/>
      <point x="518" y="323"/>
      <point x="467" y="431"/>
      <point x="373" y="490"/>
      <point x="310" y="490" type="qcurve" smooth="yes"/>
      <point x="248" y="490"/>
      <point x="154" y="431"/>
      <point x="101" y="324"/>
    </contour>
    <contour>
      <point x="518" y="252" type="qcurve" smooth="yes"/>
      <point x="518" y="333"/>
      <point x="574" y="449"/>
      <point x="678" y="512"/>
      <point x="750" y="512" type="qcurve" smooth="yes"/>
      <point x="819" y="512"/>
      <point x="919" y="456"/>
      <point x="973" y="353"/>
      <point x="973" y="282" type="qcurve" smooth="yes"/>
      <point x="973" y="246" type="line"/>
      <point x="540" y="246" type="line"/>
      <point x="540" y="172"/>
      <point x="593" y="66"/>
      <point x="692" y="10"/>
      <point x="762" y="10" type="qcurve" smooth="yes"/>
      <point x="840" y="10"/>
      <point x="935" y="84"/>
      <point x="954" y="160" type="qcurve"/>
      <point x="974" y="160" type="line"/>
      <point x="958" y="78"/>
      <point x="845" y="-10"/>
      <point x="757" y="-10" type="qcurve" smooth="yes"/>
      <point x="681" y="-10"/>
      <point x="574" y="53"/>
      <point x="518" y="170"/>
    </contour>
    <contour>
      <point x="540" y="266" type="qcurve"/>
      <point x="953" y="266" type="line"/>
      <point x="953" y="339"/>
      <point x="907" y="440"/>
      <point x="818" y="492"/>
      <point x="755" y="492" type="qcurve" smooth="yes"/>
      <point x="656" y="492"/>
      <point x="540" y="369"/>
    </contour>
  </outline>
</glyph>
<glyph name="Tbar" format="2">
  <advance width="622.0"/>
  <unicode hex="0166"/>
  <outline>
    <contour>
      <point x="158" y="343" type="line"/>
      <point x="158" y="363" type="line"/>
      <point x="458" y="363" type="line"/>
      <point x="458" y="343" type="line"/>
    </contour>
    <contour>
      <point x="592" y="702" type="line"/>
      <point x="317" y="702" type="line"/>
      <point x="317" y="0" type="line"/>
      <point x="295" y="0" type="line"/>
      <point x="295" y="702" type="line"/>
      <point x="20" y="702" type="line"/>
      <point x="20" y="722" type="line"/>
      <point x="592" y="722" type="line"/>
    </contour>
  </outline>
</glyph>
<glyph name="tbar" format="2">
  <advance width="363.0"/>
  <unicode hex="0167"/>
  <outline>
    <contour>
      <point x="24" y="271" type="line"/>
      <point x="24" y="291" type="line"/>
      <point x="264" y="291" type="line"/>
      <point x="264" y="271" type="line"/>
    </contour>
    <contour>
      <point x="147" y="71" type="line" smooth="yes"/>
      <point x="147" y="39"/>
      <point x="171" y="10"/>
      <point x="199" y="10" type="qcurve" smooth="yes"/>
      <point x="212" y="10"/>
      <point x="242" y="16"/>
      <point x="257" y="20" type="qcurve"/>
      <point x="257" y="0" type="line"/>
      <point x="244" y="-5"/>
      <point x="208" y="-10"/>
      <point x="194" y="-10" type="qcurve" smooth="yes"/>
      <point x="172" y="-10"/>
      <point x="142" y="9"/>
      <point x="127" y="46"/>
      <point x="127" y="74" type="qcurve" smooth="yes"/>
      <point x="127" y="628" type="line"/>
      <point x="147" y="636" type="line"/>
    </contour>
    <contour>
      <point x="132" y="480" type="line"/>
      <point x="257" y="480" type="line"/>
      <point x="257" y="500" type="line"/>
      <point x="132" y="500" type="line"/>
    </contour>
    <contour>
      <point x="142" y="500" type="line"/>
      <point x="37" y="500" type="line"/>
      <point x="37" y="480" type="line"/>
      <point x="142" y="480" type="line"/>
    </contour>
  </outline>
</glyph>
<glyph name="longs" format="2">
  <advance width="280.0"/>
  <unicode hex="017F"/>
  <outline>
    <contour>
      <point x="110" y="0" type="line"/>
      <point x="110" y="623" type="line" smooth="yes"/>
      <point x="110" y="675"/>
      <point x="151" y="732"/>
      <point x="192" y="732" type="qcurve" smooth="yes"/>
      <point x="215" y="732"/>
      <point x="244" y="728"/>
      <point x="261" y="722" type="qcurve"/>
      <point x="261" y="702" type="line"/>
      <point x="246" y="707"/>
      <point x="215" y="712"/>
      <point x="202" y="712" type="qcurve" smooth="yes"/>
      <point x="162" y="712"/>
      <point x="130" y="667"/>
      <point x="130" y="621" type="qcurve" smooth="yes"/>
      <point x="130" y="0" type="line"/>
    </contour>
    <contour>
      <point x="10" y="480" type="line"/>
      <point x="10" y="500" type="line"/>
      <point x="120" y="500" type="line"/>
      <point x="120" y="480" type="line"/>
    </contour>
  </outline>
</glyph>
<glyph name="florin" format="2">
  <advance width="503.0"/>
  <unicode hex="0192"/>
  <outline>
    <contour>
      <point x="115" y="-92" type="qcurve" smooth="yes"/>
      <point x="285" y="538" type="line" smooth="yes"/>
      <point x="299" y="592"/>
      <point x="333" y="667"/>
      <point x="374" y="712"/>
      <point x="424" y="732"/>
      <point x="454" y="732" type="qcurve" smooth="yes"/>
      <point x="472" y="732"/>
      <point x="506" y="726"/>
      <point x="522" y="718" type="qcurve"/>
      <point x="517" y="702" type="line"/>
      <point x="507" y="707"/>
      <point x="464" y="714"/>
      <point x="447" y="714" type="qcurve" smooth="yes"/>
      <point x="424" y="714"/>
      <point x="383" y="691"/>
      <point x="347" y="644"/>
      <point x="314" y="568"/>
      <point x="300" y="515" type="qcurve" smooth="yes"/>
      <point x="140" y="-84" type="line" smooth="yes"/>
      <point x="129" y="-122"/>
      <point x="102" y="-172"/>
      <point x="67" y="-200"/>
      <point x="19" y="-212"/>
      <point x="-12" y="-212" type="qcurve" smooth="yes"/>
      <point x="-26" y="-212"/>
      <point x="-61" y="-206"/>
      <point x="-73" y="-199" type="qcurve"/>
      <point x="-67" y="-176" type="line"/>
      <point x="-60" y="-183"/>
      <point x="-25" y="-194"/>
      <point x="-8" y="-194" type="qcurve" smooth="yes"/>
      <point x="25" y="-194"/>
      <point x="73" y="-173"/>
      <point x="105" y="-128"/>
    </contour>
    <contour>
      <point x="144" y="500" type="line"/>
      <point x="453" y="500" type="line"/>
      <point x="448" y="480" type="line"/>
      <point x="139" y="480" type="line"/>
    </contour>
  </outline>
</glyph>
<glyph name="Obar" format="2">
  <advance width="756.0"/>
  <unicode hex="019F"/>
  <outline>
    <contour>
      <point x="94" y="349" type="line"/>
      <point x="94" y="369" type="line"/>
      <point x="663" y="369" type="line"/>
      <point x="663" y="349" type="line"/>
    </contour>
    <contour>
      <point x="80" y="361" type="qcurve" smooth="yes"/>
      <point x="80" y="483"/>
      <point x="147" y="648"/>
      <point x="280" y="732"/>
      <point x="378" y="732" type="qcurve" smooth="yes"/>
      <point x="476" y="732"/>
      <point x="609" y="648"/>
      <point x="676" y="483"/>
      <point x="676" y="361" type="qcurve" smooth="yes"/>
      <point x="676" y="239"/>
      <point x="609" y="74"/>
      <point x="476" y="-10"/>
      <point x="378" y="-10" type="qcurve" smooth="yes"/>
      <point x="280" y="-10"/>
      <point x="147" y="74"/>
      <point x="80" y="239"/>
    </contour>
    <contour>
      <point x="102" y="361" type="qcurve" smooth="yes"/>
      <point x="102" y="191"/>
      <point x="244" y="10"/>
      <point x="378" y="10" type="qcurve" smooth="yes"/>
      <point x="512" y="10"/>
      <point x="654" y="191"/>
      <point x="654" y="361" type="qcurve" smooth="yes"/>
      <point x="654" y="531"/>
      <point x="512" y="712"/>
      <point x="378" y="712" type="qcurve" smooth="yes"/>
      <point x="244" y="712"/>
      <point x="102" y="531"/>
    </contour>
  </outline>
</glyph>
<glyph name="uni01C1" format="2">
  <advance width="688.0"/>
  <unicode hex="01C1"/>
  <outline>
    <contour>
      <point x="184" y="-258" type="line"/>
      <point x="162" y="-258" type="line"/>
      <point x="162" y="796" type="line"/>
      <point x="184" y="796" type="line"/>
    </contour>
    <contour>
      <point x="528" y="-258" type="line"/>
      <point x="506" y="-258" type="line"/>
      <point x="506" y="796" type="line"/>
      <point x="528" y="796" type="line"/>
    </contour>
  </outline>
</glyph>
<glyph name="uni01C2" format="2">
  <advance width="405.0"/>
  <unicode hex="01C2"/>
  <outline>
    <contour>
      <point x="192" y="0" type="line"/>
      <point x="192" y="736" type="line"/>
      <point x="214" y="736" type="line"/>
      <point x="214" y="0" type="line"/>
    </contour>
    <contour>
      <point x="19" y="449" type="line"/>
      <point x="385" y="449" type="line"/>
      <point x="385" y="429" type="line"/>
      <point x="19" y="429" type="line"/>
    </contour>
    <contour>
      <point x="19" y="308" type="line"/>
      <point x="385" y="308" type="line"/>
      <point x="385" y="288" type="line"/>
      <point x="19" y="288" type="line"/>
    </contour>
  </outline>
</glyph>
<glyph name="uni01DD" format="2">
  <advance width="616.0"/>
  <unicode hex="01DD"/>
  <outline>
    <contour>
      <point x="536" y="246" type="qcurve" smooth="yes"/>
      <point x="536" y="165"/>
      <point x="480" y="49"/>
      <point x="376" y="-14"/>
      <point x="304" y="-14" type="qcurve" smooth="yes"/>
      <point x="235" y="-14"/>
      <point x="135" y="42"/>
      <point x="81" y="145"/>
      <point x="81" y="216" type="qcurve" smooth="yes"/>
      <point x="81" y="252" type="line"/>
      <point x="514" y="252" type="line"/>
      <point x="514" y="326"/>
      <point x="461" y="432"/>
      <point x="362" y="488"/>
      <point x="292" y="488" type="qcurve" smooth="yes"/>
      <point x="214" y="488"/>
      <point x="119" y="414"/>
      <point x="100" y="338" type="qcurve"/>
      <point x="80" y="338" type="line"/>
      <point x="96" y="420"/>
      <point x="209" y="508"/>
      <point x="297" y="508" type="qcurve" smooth="yes"/>
      <point x="373" y="508"/>
      <point x="480" y="445"/>
      <point x="536" y="328"/>
    </contour>
    <contour>
      <point x="514" y="232" type="qcurve"/>
      <point x="101" y="232" type="line"/>
      <point x="101" y="159"/>
      <point x="147" y="58"/>
      <point x="236" y="6"/>
      <point x="299" y="6" type="qcurve" smooth="yes"/>
      <point x="398" y="6"/>
      <point x="514" y="129"/>
    </contour>
  </outline>
</glyph>
<glyph name="dotlessj" format="2">
  <advance width="206.0"/>
  <unicode hex="0237"/>
  <outline>
    <contour>
      <point x="40" y="-200" type="line"/>
      <point x="40" y="-180" type="line"/>
      <point x="58" y="-180" type="line" smooth="yes"/>
      <point x="79" y="-180"/>
      <point x="96" y="-148"/>
      <point x="96" y="-108" type="qcurve" smooth="yes"/>
      <point x="96" y="500" type="line"/>
      <point x="116" y="500" type="line"/>
      <point x="116" y="-114" type="line" smooth="yes"/>
      <point x="116" y="-159"/>
      <point x="91" y="-200"/>
      <point x="65" y="-200" type="qcurve" smooth="yes"/>
    </contour>
  </outline>
</glyph>
<glyph name="uni0251" format="2">
  <advance width="636.0"/>
  <unicode hex="0251"/>
  <outline>
    <contour>
      <point x="310" y="10" type="qcurve" smooth="yes"/>
      <point x="249" y="10"/>
      <point x="154" y="73"/>
      <point x="100" y="182"/>
      <point x="100" y="253" type="qcurve" smooth="yes"/>
      <point x="100" y="323"/>
      <point x="152" y="430"/>
      <point x="243" y="490"/>
      <point x="302" y="490" type="qcurve" smooth="yes"/>
      <point x="370" y="490"/>
      <point x="467" y="431"/>
      <point x="519" y="320"/>
      <point x="519" y="241" type="qcurve" smooth="yes"/>
      <point x="519" y="176"/>
      <point x="465" y="72"/>
      <point x="370" y="10"/>
    </contour>
    <contour>
      <point x="546" y="0" type="line"/>
      <point x="546" y="500" type="line"/>
      <point x="526" y="500" type="line"/>
      <point x="526" y="341" type="line"/>
      <point x="518" y="385"/>
      <point x="463" y="462"/>
      <point x="371" y="510"/>
      <point x="307" y="510" type="qcurve" smooth="yes"/>
      <point x="234" y="510"/>
      <point x="133" y="445"/>
      <point x="80" y="327"/>
      <point x="80" y="248" type="qcurve" smooth="yes"/>
      <point x="80" y="192"/>
      <point x="115" y="97"/>
      <point x="178" y="28"/>
      <point x="264" y="-10"/>
      <point x="316" y="-10" type="qcurve" smooth="yes"/>
      <point x="391" y="-10"/>
      <point x="503" y="76"/>
      <point x="526" y="165" type="qcurve"/>
      <point x="526" y="0" type="line"/>
    </contour>
  </outline>
</glyph>
<glyph name="uni0253" format="2">
  <advance width="646.0"/>
  <unicode hex="0253"/>
  <outline>
    <contour>
      <point x="100" y="380" type="line"/>
      <point x="100" y="545" type="line" smooth="yes"/>
      <point x="100" y="603"/>
      <point x="148" y="687"/>
      <point x="240" y="732"/>
      <point x="305" y="732" type="qcurve" smooth="yes"/>
      <point x="335" y="732"/>
      <point x="388" y="721"/>
      <point x="433" y="700"/>
      <point x="451" y="683" type="qcurve"/>
      <point x="436" y="668" type="line"/>
      <point x="389" y="712"/>
      <point x="303" y="712" type="qcurve" smooth="yes"/>
      <point x="244" y="712"/>
      <point x="162" y="672"/>
      <point x="120" y="595"/>
      <point x="120" y="540" type="qcurve" smooth="yes"/>
      <point x="120" y="380" type="line"/>
    </contour>
    <contour>
      <point x="336" y="10" type="qcurve" smooth="yes"/>
      <point x="276" y="10"/>
      <point x="181" y="72"/>
      <point x="127" y="176"/>
      <point x="127" y="241" type="qcurve" smooth="yes"/>
      <point x="127" y="320"/>
      <point x="179" y="431"/>
      <point x="276" y="490"/>
      <point x="344" y="490" type="qcurve" smooth="yes"/>
      <point x="403" y="490"/>
      <point x="494" y="430"/>
      <point x="546" y="323"/>
      <point x="546" y="253" type="qcurve" smooth="yes"/>
      <point x="546" y="182"/>
      <point x="492" y="73"/>
      <point x="397" y="10"/>
    </contour>
    <contour>
      <point x="100" y="0" type="line"/>
      <point x="120" y="0" type="line"/>
      <point x="120" y="165" type="line"/>
      <point x="143" y="76"/>
      <point x="255" y="-10"/>
      <point x="330" y="-10" type="qcurve" smooth="yes"/>
      <point x="382" y="-10"/>
      <point x="468" y="28"/>
      <point x="531" y="97"/>
      <point x="566" y="192"/>
      <point x="566" y="248" type="qcurve" smooth="yes"/>
      <point x="566" y="327"/>
      <point x="513" y="445"/>
      <point x="412" y="510"/>
      <point x="339" y="510" type="qcurve" smooth="yes"/>
      <point x="275" y="510"/>
      <point x="183" y="462"/>
      <point x="128" y="385"/>
      <point x="120" y="341" type="qcurve"/>
      <point x="120" y="500" type="line"/>
      <point x="100" y="500" type="line"/>
    </contour>
  </outline>
</glyph>
<glyph name="uni0255" format="2">
  <advance width="555.0"/>
  <unicode hex="0255"/>
  <outline>
    <contour>
      <point x="299" y="-10" type="qcurve" smooth="yes"/>
      <point x="218" y="-10"/>
      <point x="112" y="50"/>
      <point x="60" y="162"/>
      <point x="60" y="241" type="qcurve" smooth="yes"/>
      <point x="60" y="320"/>
      <point x="112" y="441"/>
      <point x="213" y="510"/>
      <point x="287" y="510" type="qcurve" smooth="yes"/>
      <point x="369" y="510"/>
      <point x="478" y="423"/>
      <point x="484" y="341" type="qcurve"/>
      <point x="464" y="341" type="line"/>
      <point x="460" y="387"/>
      <point x="414" y="454"/>
      <point x="338" y="490"/>
      <point x="288" y="490" type="qcurve" smooth="yes"/>
      <point x="240" y="490"/>
      <point x="162" y="455"/>
      <point x="108" y="389"/>
      <point x="80" y="296"/>
      <point x="80" y="238" type="qcurve" smooth="yes"/>
      <point x="80" y="161"/>
      <point x="131" y="60"/>
      <point x="233" y="10"/>
      <point x="312" y="10" type="qcurve" smooth="yes"/>
      <point x="362" y="10"/>
      <point x="440" y="40"/>
      <point x="485" y="92"/>
      <point x="485" y="127" type="qcurve" smooth="yes"/>
      <point x="485" y="163"/>
      <point x="431" y="214"/>
      <point x="383" y="214" type="qcurve" smooth="yes"/>
      <point x="333" y="214"/>
      <point x="240" y="158"/>
      <point x="159" y="60"/>
      <point x="99" y="-68"/>
      <point x="81" y="-140" type="qcurve"/>
      <point x="61" y="-133" type="line"/>
      <point x="88" y="-27"/>
      <point x="189" y="139"/>
      <point x="315" y="234"/>
      <point x="382" y="234" type="qcurve" smooth="yes"/>
      <point x="434" y="234"/>
      <point x="505" y="175"/>
      <point x="505" y="127" type="qcurve" smooth="yes"/>
      <point x="505" y="89"/>
      <point x="456" y="27"/>
      <point x="364" y="-10"/>
    </contour>
  </outline>
</glyph>
<glyph name="uni0257" format="2">
  <advance width="611.0"/>
  <unicode hex="0257"/>
  <outline>
    <contour>
      <point x="310" y="10" type="qcurve" smooth="yes"/>
      <point x="370" y="10"/>
      <point x="465" y="72"/>
      <point x="519" y="176"/>
      <point x="519" y="241" type="qcurve" smooth="yes"/>
      <point x="519" y="320"/>
      <point x="467" y="431"/>
      <point x="370" y="490"/>
      <point x="302" y="490" type="qcurve" smooth="yes"/>
      <point x="243" y="490"/>
      <point x="152" y="430"/>
      <point x="100" y="323"/>
      <point x="100" y="253" type="qcurve" smooth="yes"/>
      <point x="100" y="182"/>
      <point x="154" y="73"/>
      <point x="249" y="10"/>
    </contour>
    <contour>
      <point x="546" y="0" type="line"/>
      <point x="526" y="0" type="line"/>
      <point x="526" y="165" type="line"/>
      <point x="503" y="76"/>
      <point x="391" y="-10"/>
      <point x="316" y="-10" type="qcurve" smooth="yes"/>
      <point x="264" y="-10"/>
      <point x="178" y="28"/>
      <point x="115" y="97"/>
      <point x="80" y="192"/>
      <point x="80" y="248" type="qcurve" smooth="yes"/>
      <point x="80" y="327"/>
      <point x="133" y="445"/>
      <point x="234" y="510"/>
      <point x="307" y="510" type="qcurve" smooth="yes"/>
      <point x="371" y="510"/>
      <point x="463" y="462"/>
      <point x="518" y="385"/>
      <point x="526" y="341" type="qcurve"/>
      <point x="526" y="500" type="line"/>
      <point x="546" y="500" type="line"/>
    </contour>
    <contour>
      <point x="526" y="380" type="line"/>
      <point x="526" y="545" type="line" smooth="yes"/>
      <point x="526" y="603"/>
      <point x="574" y="687"/>
      <point x="666" y="732"/>
      <point x="731" y="732" type="qcurve" smooth="yes"/>
      <point x="761" y="732"/>
      <point x="814" y="721"/>
      <point x="859" y="700"/>
      <point x="877" y="683" type="qcurve"/>
      <point x="862" y="668" type="line"/>
      <point x="815" y="712"/>
      <point x="729" y="712" type="qcurve" smooth="yes"/>
      <point x="670" y="712"/>
      <point x="588" y="672"/>
      <point x="546" y="595"/>
      <point x="546" y="540" type="qcurve" smooth="yes"/>
      <point x="546" y="380" type="line"/>
    </contour>
  </outline>
</glyph>
<glyph name="uni025A" format="2">
  <advance width="766.0"/>
  <unicode hex="025A"/>
  <outline>
    <contour>
      <point x="506" y="246" type="qcurve" smooth="yes"/>
      <point x="506" y="165"/>
      <point x="450" y="49"/>
      <point x="346" y="-14"/>
      <point x="274" y="-14" type="qcurve" smooth="yes"/>
      <point x="217" y="-14"/>
      <point x="128" y="26"/>
      <point x="69" y="100"/>
      <point x="57" y="153" type="qcurve"/>
      <point x="77" y="162" type="line"/>
      <point x="87" y="112"/>
      <point x="138" y="42"/>
      <point x="217" y="6"/>
      <point x="269" y="6" type="qcurve" smooth="yes"/>
      <point x="336" y="6"/>
      <point x="433" y="63"/>
      <point x="485" y="169"/>
      <point x="485" y="243" type="qcurve" smooth="yes"/>
      <point x="485" y="301"/>
      <point x="455" y="393"/>
      <point x="398" y="455"/>
      <point x="315" y="488"/>
      <point x="262" y="488" type="qcurve" smooth="yes"/>
      <point x="184" y="488"/>
      <point x="88" y="414"/>
      <point x="70" y="338" type="qcurve"/>
      <point x="50" y="338" type="line"/>
      <point x="66" y="420"/>
      <point x="179" y="508"/>
      <point x="267" y="508" type="qcurve" smooth="yes"/>
      <point x="342" y="508"/>
      <point x="449" y="445"/>
      <point x="506" y="328"/>
    </contour>
    <contour>
      <point x="70" y="137" type="line"/>
      <point x="62" y="155" type="line"/>
      <point x="596" y="415" type="line"/>
      <point x="596" y="303" type="line" smooth="yes"/>
      <point x="596" y="265"/>
      <point x="630" y="231"/>
      <point x="667" y="231" type="qcurve" smooth="yes"/>
      <point x="697" y="231"/>
      <point x="733" y="278"/>
      <point x="733" y="319" type="qcurve"/>
      <point x="753" y="319" type="line"/>
      <point x="753" y="286"/>
      <point x="732" y="238"/>
      <point x="693" y="213"/>
      <point x="666" y="213" type="qcurve" smooth="yes"/>
      <point x="636" y="213"/>
      <point x="595" y="232"/>
      <point x="576" y="271"/>
      <point x="576" y="301" type="qcurve" smooth="yes"/>
      <point x="576" y="400" type="line"/>
      <point x="592" y="391" type="line"/>
    </contour>
  </outline>
</glyph>
<glyph name="uni025F" format="2">
  <advance width="317.0"/>
  <unicode hex="025F"/>
  <outline>
    <contour>
      <point x="-28" y="-147" type="qcurve"/>
      <point x="-13" y="-132" type="line"/>
      <point x="10" y="-159"/>
      <point x="60" y="-182"/>
      <point x="86" y="-182" type="qcurve" smooth="yes"/>
      <point x="124" y="-182"/>
      <point x="162" y="-141"/>
      <point x="162" y="-106" type="qcurve" smooth="yes"/>
      <point x="162" y="500" type="line"/>
      <point x="182" y="500" type="line"/>
      <point x="182" y="-116" type="line" smooth="yes"/>
      <point x="182" y="-154"/>
      <point x="130" y="-200"/>
      <point x="86" y="-200" type="qcurve" smooth="yes"/>
      <point x="55" y="-200"/>
      <point x="-1" y="-175"/>
    </contour>
    <contour>
      <point x="37" y="241" type="line"/>
      <point x="37" y="259" type="line"/>
      <point x="307" y="259" type="line"/>
      <point x="307" y="241" type="line"/>
    </contour>
  </outline>
</glyph>
<glyph name="uni0260" format="2">
  <advance width="621.0"/>
  <unicode hex="0260"/>
  <outline>
    <contour>
      <point x="503" y="400" type="line"/>
      <point x="503" y="537" type="line" smooth="yes"/>
      <point x="503" y="584"/>
      <point x="534" y="638"/>
      <point x="582" y="638" type="qcurve" smooth="yes"/>
      <point x="598" y="638"/>
      <point x="623" y="631"/>
      <point x="634" y="623" type="qcurve"/>
      <point x="634" y="607" type="line"/>
      <point x="612" y="620"/>
      <point x="587" y="620" type="qcurve" smooth="yes"/>
      <point x="554" y="620"/>
      <point x="523" y="587"/>
      <point x="523" y="545" type="qcurve" smooth="yes"/>
      <point x="523" y="400" type="line"/>
    </contour>
    <contour>
      <point x="80" y="266" type="qcurve" smooth="yes"/>
      <point x="80" y="340"/>
      <point x="135" y="451"/>
      <point x="234" y="512"/>
      <point x="300" y="512" type="qcurve" smooth="yes"/>
      <point x="370" y="512"/>
      <point x="474" y="437"/>
      <point x="503" y="364" type="qcurve"/>
      <point x="503" y="500" type="line"/>
      <point x="523" y="500" type="line"/>
      <point x="523" y="29" type="line" smooth="yes"/>
      <point x="523" y="-41"/>
      <point x="477" y="-143"/>
      <point x="381" y="-198"/>
      <point x="306" y="-198" type="qcurve" smooth="yes"/>
      <point x="261" y="-198"/>
      <point x="188" y="-175"/>
      <point x="135" y="-133"/>
      <point x="107" y="-75"/>
      <point x="107" y="-39" type="qcurve"/>
      <point x="127" y="-39" type="line"/>
      <point x="127" y="-81"/>
      <point x="173" y="-143"/>
      <point x="255" y="-178"/>
      <point x="310" y="-178" type="qcurve" smooth="yes"/>
      <point x="403" y="-178"/>
      <point x="503" y="-75"/>
      <point x="503" y="21" type="qcurve" smooth="yes"/>
      <point x="503" y="175" type="line"/>
      <point x="484" y="122"/>
      <point x="425" y="51"/>
      <point x="345" y="14"/>
      <point x="296" y="14" type="qcurve" smooth="yes"/>
      <point x="228" y="14"/>
      <point x="131" y="74"/>
      <point x="80" y="186"/>
    </contour>
    <contour>
      <point x="309" y="34" type="qcurve" smooth="yes"/>
      <point x="347" y="34"/>
      <point x="416" y="72"/>
      <point x="471" y="137"/>
      <point x="503" y="219"/>
      <point x="503" y="264" type="qcurve" smooth="yes"/>
      <point x="503" y="308"/>
      <point x="473" y="390"/>
      <point x="419" y="455"/>
      <point x="346" y="492"/>
      <point x="304" y="492" type="qcurve" smooth="yes"/>
      <point x="242" y="492"/>
      <point x="151" y="437"/>
      <point x="100" y="337"/>
      <point x="100" y="270" type="qcurve" smooth="yes"/>
      <point x="100" y="193"/>
      <point x="148" y="88"/>
      <point x="241" y="34"/>
    </contour>
  </outline>
</glyph>
<glyph name="uni0262" format="2">
  <advance width="562.0"/>
  <unicode hex="0262"/>
  <outline>
    <contour>
      <point x="80" y="256" type="qcurve" smooth="yes"/>
      <point x="80" y="331"/>
      <point x="125" y="446"/>
      <point x="223" y="510"/>
      <point x="305" y="510" type="qcurve" smooth="yes"/>
      <point x="360" y="510"/>
      <point x="435" y="470"/>
      <point x="475" y="403"/>
      <point x="475" y="364" type="qcurve"/>
      <point x="455" y="364" type="line"/>
      <point x="455" y="417"/>
      <point x="373" y="492"/>
      <point x="305" y="492" type="qcurve" smooth="yes"/>
      <point x="234" y="492"/>
      <point x="143" y="435"/>
      <point x="100" y="328"/>
      <point x="100" y="255" type="qcurve" smooth="yes"/>
      <point x="100" y="171"/>
      <point x="146" y="62"/>
      <point x="243" y="8"/>
      <point x="318" y="8" type="qcurve" smooth="yes"/>
      <point x="350" y="8"/>
      <point x="430" y="19"/>
      <point x="462" y="35" type="qcurve"/>
      <point x="462" y="227" type="line"/>
      <point x="322" y="227" type="line"/>
      <point x="322" y="245" type="line"/>
      <point x="481" y="245" type="line"/>
      <point x="481" y="25" type="line"/>
      <point x="440" y="7"/>
      <point x="366" y="-10"/>
      <point x="321" y="-10" type="qcurve" smooth="yes"/>
      <point x="196" y="-10"/>
      <point x="80" y="118"/>
    </contour>
  </outline>
</glyph>
<glyph name="uni0263" format="2">
  <advance width="530.0"/>
  <unicode hex="0263"/>
  <outline>
    <contour>
      <point x="262" y="62" type="qcurve"/>
      <point x="252" y="47"/>
      <point x="230" y="-1"/>
      <point x="211" y="-52"/>
      <point x="200" y="-94"/>
      <point x="200" y="-103" type="qcurve" smooth="yes"/>
      <point x="200" y="-136"/>
      <point x="238" y="-179"/>
      <point x="264" y="-179" type="qcurve" smooth="yes"/>
      <point x="292" y="-179"/>
      <point x="329" y="-135"/>
      <point x="329" y="-99" type="qcurve" smooth="yes"/>
      <point x="329" y="-90"/>
      <point x="314" y="-48"/>
      <point x="292" y="3"/>
      <point x="270" y="49"/>
    </contour>
    <contour>
      <point x="471" y="500" type="line"/>
      <point x="273" y="84" type="line"/>
      <point x="289" y="55"/>
      <point x="324" y="-20"/>
      <point x="349" y="-87"/>
      <point x="349" y="-105" type="qcurve" smooth="yes"/>
      <point x="349" y="-141"/>
      <point x="305" y="-197"/>
      <point x="265" y="-197" type="qcurve" smooth="yes"/>
      <point x="224" y="-197"/>
      <point x="180" y="-141"/>
      <point x="180" y="-105" type="qcurve" smooth="yes"/>
      <point x="180" y="-87"/>
      <point x="201" y="-22"/>
      <point x="234" y="52"/>
      <point x="251" y="85" type="qcurve"/>
      <point x="52" y="500" type="line"/>
      <point x="76" y="500" type="line"/>
      <point x="265" y="102" type="line"/>
      <point x="260" y="102" type="line"/>
      <point x="446" y="500" type="line"/>
    </contour>
  </outline>
</glyph>
<glyph name="uni0264" format="2">
  <advance width="579.0"/>
  <unicode hex="0264"/>
  <outline>
    <contour>
      <point x="194" y="79" type="qcurve" smooth="yes"/>
      <point x="194" y="104"/>
      <point x="230" y="202"/>
      <point x="261" y="256" type="qcurve" smooth="yes"/>
      <point x="296" y="315" type="line" smooth="yes"/>
      <point x="317" y="352"/>
      <point x="367" y="422"/>
      <point x="418" y="477"/>
      <point x="467" y="510"/>
      <point x="488" y="510" type="qcurve" smooth="yes"/>
      <point x="503" y="510"/>
      <point x="529" y="497"/>
      <point x="550" y="477"/>
      <point x="562" y="454"/>
      <point x="562" y="444" type="qcurve" smooth="yes"/>
      <point x="562" y="436"/>
      <point x="555" y="428"/>
      <point x="550" y="428" type="qcurve" smooth="yes"/>
      <point x="545" y="428"/>
      <point x="535" y="433"/>
      <point x="532" y="437" type="qcurve"/>
      <point x="529" y="439"/>
      <point x="514" y="466"/>
      <point x="498" y="490"/>
      <point x="493" y="490" type="qcurve" smooth="yes"/>
      <point x="474" y="490"/>
      <point x="416" y="444"/>
      <point x="351" y="367"/>
      <point x="324" y="322" type="qcurve" smooth="yes"/>
      <point x="278" y="247" type="line" smooth="yes"/>
      <point x="263" y="222"/>
      <point x="233" y="158"/>
      <point x="214" y="99"/>
      <point x="214" y="82" type="qcurve" smooth="yes"/>
      <point x="214" y="41"/>
      <point x="249" y="6"/>
      <point x="284" y="6" type="qcurve" smooth="yes"/>
      <point x="310" y="6"/>
      <point x="346" y="47"/>
      <point x="346" y="86" type="qcurve" smooth="yes"/>
      <point x="346" y="112"/>
      <point x="335" y="162"/>
      <point x="309" y="221"/>
      <point x="286" y="260" type="qcurve"/>
      <point x="297" y="281" type="line"/>
      <point x="333" y="219"/>
      <point x="366" y="128"/>
      <point x="366" y="79" type="qcurve" smooth="yes"/>
      <point x="366" y="57"/>
      <point x="348" y="15"/>
      <point x="311" y="-12"/>
      <point x="282" y="-12" type="qcurve" smooth="yes"/>
      <point x="239" y="-12"/>
      <point x="194" y="35"/>
    </contour>
    <contour>
      <point x="289" y="283" type="qcurve"/>
      <point x="276" y="266" type="line"/>
      <point x="192" y="391" type="line" smooth="yes"/>
      <point x="163" y="434"/>
      <point x="98" y="490"/>
      <point x="81" y="490" type="qcurve" smooth="yes"/>
      <point x="75" y="490"/>
      <point x="59" y="465"/>
      <point x="43" y="438"/>
      <point x="38" y="434" type="qcurve"/>
      <point x="35" y="432"/>
      <point x="27" y="428"/>
      <point x="23" y="428" type="qcurve" smooth="yes"/>
      <point x="17" y="428"/>
      <point x="12" y="435"/>
      <point x="12" y="442" type="qcurve" smooth="yes"/>
      <point x="12" y="453"/>
      <point x="22" y="477"/>
      <point x="42" y="497"/>
      <point x="67" y="510"/>
      <point x="82" y="510" type="qcurve" smooth="yes"/>
      <point x="120" y="510"/>
      <point x="223" y="388"/>
    </contour>
  </outline>
</glyph>
<glyph name="uni0266" format="2">
  <advance width="573.0"/>
  <unicode hex="0266"/>
  <outline>
    <contour>
      <point x="100" y="380" type="line"/>
      <point x="100" y="545" type="line" smooth="yes"/>
      <point x="100" y="603"/>
      <point x="148" y="687"/>
      <point x="240" y="732"/>
      <point x="305" y="732" type="qcurve" smooth="yes"/>
      <point x="335" y="732"/>
      <point x="388" y="721"/>
      <point x="433" y="700"/>
      <point x="451" y="683" type="qcurve"/>
      <point x="436" y="668" type="line"/>
      <point x="389" y="712"/>
      <point x="303" y="712" type="qcurve" smooth="yes"/>
      <point x="244" y="712"/>
      <point x="162" y="672"/>
      <point x="120" y="595"/>
      <point x="120" y="540" type="qcurve" smooth="yes"/>
      <point x="120" y="380" type="line"/>
    </contour>
    <contour>
      <point x="110" y="376" type="line"/>
      <point x="110" y="420" type="line"/>
      <point x="122" y="420" type="line"/>
      <point x="145" y="461"/>
      <point x="240" y="510"/>
      <point x="298" y="510" type="qcurve" smooth="yes"/>
      <point x="355" y="510"/>
      <point x="439" y="462"/>
      <point x="485" y="378"/>
      <point x="485" y="324" type="qcurve" smooth="yes"/>
      <point x="485" y="0" type="line"/>
      <point x="465" y="0" type="line"/>
      <point x="465" y="320" type="line" smooth="yes"/>
      <point x="465" y="371"/>
      <point x="422" y="449"/>
      <point x="346" y="492"/>
      <point x="296" y="492" type="qcurve" smooth="yes"/>
      <point x="253" y="492"/>
      <point x="175" y="459"/>
      <point x="124" y="406"/>
      <point x="120" y="376" type="qcurve"/>
    </contour>
    <contour>
      <point x="100" y="0" type="line"/>
      <point x="100" y="500" type="line"/>
      <point x="120" y="500" type="line"/>
      <point x="120" y="0" type="line"/>
    </contour>
  </outline>
</glyph>
<glyph name="uni0268" format="2">
  <advance width="320.0"/>
  <unicode hex="0268"/>
  <outline>
    <contour>
      <point x="295" y="240" type="line"/>
      <point x="25" y="240" type="line"/>
      <point x="25" y="260" type="line"/>
      <point x="295" y="260" type="line"/>
    </contour>
    <contour>
      <point x="127" y="0" type="line"/>
      <point x="127" y="500" type="line"/>
      <point x="147" y="500" type="line"/>
      <point x="147" y="0" type="line"/>
    </contour>
    <contour>
      <point x="126" y="600" type="line"/>
      <point x="126" y="700" type="line"/>
      <point x="148" y="700" type="line"/>
      <point x="148" y="600" type="line"/>
    </contour>
  </outline>
</glyph>
<glyph name="uni026A" format="2">
  <advance width="352.0"/>
  <unicode hex="026A"/>
  <outline>
    <contour>
      <point x="187" y="16" type="line"/>
      <point x="167" y="16" type="line"/>
      <point x="167" y="484" type="line"/>
      <point x="187" y="484" type="line"/>
    </contour>
    <contour>
      <point x="295" y="480" type="line"/>
      <point x="57" y="480" type="line"/>
      <point x="57" y="500" type="line"/>
      <point x="295" y="500" type="line"/>
    </contour>
    <contour>
      <point x="295" y="0" type="line"/>
      <point x="57" y="0" type="line"/>
      <point x="57" y="20" type="line"/>
      <point x="295" y="20" type="line"/>
    </contour>
  </outline>
</glyph>
<glyph name="uni026B" format="2">
  <advance width="466.0"/>
  <unicode hex="026B"/>
  <outline>
    <contour>
      <point x="57" y="382" type="line"/>
      <point x="63" y="411"/>
      <point x="102" y="441"/>
      <point x="134" y="441" type="qcurve" smooth="yes"/>
      <point x="148" y="441"/>
      <point x="188" y="430"/>
      <point x="203" y="420" type="qcurve"/>
      <point x="213" y="415" type="line"/>
      <point x="213" y="394" type="line"/>
      <point x="200" y="403" type="line" smooth="yes"/>
      <point x="188" y="411"/>
      <point x="150" y="423"/>
      <point x="134" y="423" type="qcurve" smooth="yes"/>
      <point x="110" y="423"/>
      <point x="80" y="401"/>
      <point x="77" y="382" type="qcurve"/>
    </contour>
    <contour>
      <point x="224" y="403" type="line"/>
      <point x="238" y="397" type="line" smooth="yes"/>
      <point x="259" y="388"/>
      <point x="287" y="381"/>
      <point x="296" y="381" type="qcurve" smooth="yes"/>
      <point x="315" y="381"/>
      <point x="340" y="403"/>
      <point x="343" y="422" type="qcurve"/>
      <point x="363" y="422" type="line"/>
      <point x="356" y="393"/>
      <point x="320" y="363"/>
      <point x="291" y="363" type="qcurve" smooth="yes"/>
      <point x="281" y="363"/>
      <point x="255" y="370"/>
      <point x="234" y="380" type="qcurve" smooth="yes"/>
      <point x="224" y="385" type="line"/>
    </contour>
    <contour>
      <point x="208" y="0" type="line"/>
      <point x="208" y="722" type="line"/>
      <point x="228" y="722" type="line"/>
      <point x="228" y="0" type="line"/>
    </contour>
  </outline>
</glyph>
<glyph name="uni026C" format="2">
  <advance width="522.0"/>
  <unicode hex="026C"/>
  <outline>
    <contour>
      <point x="248" y="316" type="qcurve"/>
      <point x="248" y="297" type="line"/>
      <point x="188" y="301"/>
      <point x="96" y="324"/>
      <point x="42" y="373"/>
      <point x="42" y="416" type="qcurve" smooth="yes"/>
      <point x="42" y="462"/>
      <point x="103" y="517"/>
      <point x="154" y="517" type="qcurve" smooth="yes"/>
      <point x="175" y="517"/>
      <point x="232" y="505"/>
      <point x="251" y="496" type="qcurve"/>
      <point x="252" y="477" type="line"/>
      <point x="219" y="489"/>
      <point x="173" y="499"/>
      <point x="155" y="499" type="qcurve" smooth="yes"/>
      <point x="113" y="499"/>
      <point x="62" y="453"/>
      <point x="62" y="416" type="qcurve" smooth="yes"/>
      <point x="62" y="380"/>
      <point x="117" y="336"/>
      <point x="202" y="316"/>
    </contour>
    <contour>
      <point x="262" y="298" type="qcurve"/>
      <point x="262" y="316" type="line"/>
      <point x="303" y="316"/>
      <point x="384" y="350"/>
      <point x="405" y="372" type="qcurve"/>
      <point x="418" y="359" type="line"/>
      <point x="393" y="334"/>
      <point x="308" y="298"/>
    </contour>
    <contour>
      <point x="245" y="0" type="line"/>
      <point x="245" y="722" type="line"/>
      <point x="265" y="722" type="line"/>
      <point x="265" y="0" type="line"/>
    </contour>
  </outline>
</glyph>
<glyph name="uni026D" format="2">
  <advance width="232.0"/>
  <unicode hex="026D"/>
  <outline>
    <contour>
      <point x="235" y="-182" type="line"/>
      <point x="235" y="-200" type="line"/>
      <point x="186" y="-200" type="line" smooth="yes"/>
      <point x="145" y="-200"/>
      <point x="100" y="-159"/>
      <point x="100" y="-122" type="qcurve" smooth="yes"/>
      <point x="100" y="50" type="line"/>
      <point x="120" y="50" type="line"/>
      <point x="120" y="-122" type="line" smooth="yes"/>
      <point x="120" y="-153"/>
      <point x="151" y="-182"/>
      <point x="185" y="-182" type="qcurve" smooth="yes"/>
    </contour>
    <contour>
      <point x="100" y="0" type="line"/>
      <point x="100" y="722" type="line"/>
      <point x="120" y="722" type="line"/>
      <point x="120" y="0" type="line"/>
    </contour>
  </outline>
</glyph>
<glyph name="uni0270" format="2">
  <advance width="876.0"/>
  <unicode hex="0270"/>
  <outline>
    <contour>
      <point x="756" y="-197" type="line"/>
      <point x="756" y="0" type="line"/>
      <point x="776" y="0" type="line"/>
      <point x="776" y="-197" type="line"/>
    </contour>
    <contour>
      <point x="441" y="193" type="line" smooth="yes"/>
      <point x="441" y="133"/>
      <point x="475" y="51"/>
      <point x="541" y="10"/>
      <point x="590" y="10" type="qcurve" smooth="yes"/>
      <point x="618" y="10"/>
      <point x="677" y="42"/>
      <point x="726" y="95"/>
      <point x="756" y="160"/>
      <point x="756" y="194" type="qcurve"/>
      <point x="760" y="194" type="line"/>
      <point x="760" y="144" type="line"/>
      <point x="746" y="99"/>
      <point x="691" y="29"/>
      <point x="621" y="-10"/>
      <point x="587" y="-10" type="qcurve" smooth="yes"/>
      <point x="520" y="-10"/>
      <point x="440" y="60"/>
      <point x="425" y="130" type="qcurve"/>
      <point x="413" y="89"/>
      <point x="360" y="26"/>
      <point x="289" y="-10"/>
      <point x="251" y="-10" type="qcurve" smooth="yes"/>
      <point x="162" y="-10"/>
      <point x="90" y="82"/>
      <point x="90" y="194" type="qcurve" smooth="yes"/>
      <point x="90" y="500" type="line"/>
      <point x="110" y="500" type="line"/>
      <point x="110" y="194" type="line" smooth="yes"/>
      <point x="110" y="123"/>
      <point x="137" y="43"/>
      <point x="200" y="10"/>
      <point x="254" y="10" type="qcurve" smooth="yes"/>
      <point x="298" y="10"/>
      <point x="374" y="61"/>
      <point x="421" y="145"/>
      <point x="421" y="194" type="qcurve" smooth="yes"/>
      <point x="421" y="500" type="line"/>
      <point x="441" y="500" type="line"/>
    </contour>
    <contour>
      <point x="756" y="168" type="line"/>
      <point x="776" y="95" type="line"/>
      <point x="776" y="0" type="line"/>
      <point x="756" y="0" type="line"/>
    </contour>
    <contour>
      <point x="776" y="95" type="line"/>
      <point x="756" y="170" type="line"/>
      <point x="756" y="500" type="line"/>
      <point x="776" y="500" type="line"/>
    </contour>
  </outline>
</glyph>
<glyph name="uni0271" format="2">
  <advance width="896.0"/>
  <unicode hex="0271"/>
  <outline>
    <contour>
      <point x="780" y="134" type="line"/>
      <point x="780" y="-75" type="line" smooth="yes"/>
      <point x="780" y="-115"/>
      <point x="757" y="-171"/>
      <point x="713" y="-199"/>
      <point x="681" y="-199" type="qcurve" smooth="yes"/>
      <point x="618" y="-199"/>
      <point x="574" y="-150" type="qcurve"/>
      <point x="588" y="-136" type="line"/>
      <point x="604" y="-157"/>
      <point x="649" y="-179"/>
      <point x="679" y="-179" type="qcurve" smooth="yes"/>
      <point x="719" y="-179"/>
      <point x="760" y="-128"/>
      <point x="760" y="-76" type="qcurve" smooth="yes"/>
      <point x="760" y="134" type="line"/>
    </contour>
    <contour>
      <point x="450" y="347" type="line"/>
      <point x="430" y="347" type="line"/>
      <point x="430" y="394" type="line"/>
      <point x="455" y="448"/>
      <point x="544" y="512"/>
      <point x="595" y="512" type="qcurve" smooth="yes"/>
      <point x="687" y="512"/>
      <point x="780" y="417"/>
      <point x="780" y="324" type="qcurve" smooth="yes"/>
      <point x="780" y="0" type="line"/>
      <point x="760" y="0" type="line"/>
      <point x="760" y="321" type="line" smooth="yes"/>
      <point x="760" y="406"/>
      <point x="684" y="492"/>
      <point x="592" y="492" type="qcurve" smooth="yes"/>
      <point x="558" y="492"/>
      <point x="493" y="454"/>
      <point x="450" y="397"/>
      <point x="450" y="368" type="qcurve" smooth="yes"/>
    </contour>
    <contour>
      <point x="120" y="415" type="line" smooth="yes"/>
      <point x="148" y="459"/>
      <point x="230" y="512"/>
      <point x="273" y="512" type="qcurve" smooth="yes"/>
      <point x="319" y="512"/>
      <point x="391" y="485"/>
      <point x="439" y="433"/>
      <point x="450" y="395" type="qcurve"/>
      <point x="450" y="0" type="line"/>
      <point x="430" y="0" type="line"/>
      <point x="430" y="368" type="line" smooth="yes"/>
      <point x="430" y="419"/>
      <point x="356" y="492"/>
      <point x="269" y="492" type="qcurve" smooth="yes"/>
      <point x="233" y="492"/>
      <point x="164" y="448"/>
      <point x="120" y="382"/>
      <point x="120" y="350" type="qcurve"/>
      <point x="100" y="350" type="line"/>
      <point x="100" y="383" type="line"/>
    </contour>
    <contour>
      <point x="100" y="0" type="line"/>
      <point x="100" y="500" type="line"/>
      <point x="120" y="500" type="line"/>
      <point x="120" y="0" type="line"/>
    </contour>
  </outline>
</glyph>
<glyph name="uni0272" format="2">
  <advance width="619.0"/>
  <unicode hex="0272"/>
  <outline>
    <contour>
      <point x="-35" y="-182" type="line"/>
      <point x="15" y="-182" type="line" smooth="yes"/>
      <point x="49" y="-182"/>
      <point x="80" y="-153"/>
      <point x="80" y="-122" type="qcurve" smooth="yes"/>
      <point x="80" y="50" type="line"/>
      <point x="100" y="50" type="line"/>
      <point x="100" y="-122" type="line" smooth="yes"/>
      <point x="100" y="-159"/>
      <point x="55" y="-200"/>
      <point x="14" y="-200" type="qcurve" smooth="yes"/>
      <point x="-35" y="-200" type="line"/>
    </contour>
    <contour>
      <point x="90" y="376" type="line"/>
      <point x="90" y="420" type="line"/>
      <point x="102" y="420" type="line"/>
      <point x="125" y="461"/>
      <point x="220" y="510"/>
      <point x="278" y="510" type="qcurve" smooth="yes"/>
      <point x="335" y="510"/>
      <point x="419" y="462"/>
      <point x="465" y="378"/>
      <point x="465" y="324" type="qcurve" smooth="yes"/>
      <point x="465" y="0" type="line"/>
      <point x="445" y="0" type="line"/>
      <point x="445" y="320" type="line" smooth="yes"/>
      <point x="445" y="371"/>
      <point x="402" y="449"/>
      <point x="326" y="492"/>
      <point x="276" y="492" type="qcurve" smooth="yes"/>
      <point x="233" y="492"/>
      <point x="155" y="459"/>
      <point x="104" y="406"/>
      <point x="100" y="376" type="qcurve"/>
    </contour>
    <contour>
      <point x="80" y="0" type="line"/>
      <point x="80" y="500" type="line"/>
      <point x="100" y="500" type="line"/>
      <point x="100" y="0" type="line"/>
    </contour>
  </outline>
</glyph>
<glyph name="uni0273" format="2">
  <advance width="620.0"/>
  <unicode hex="0273"/>
  <outline>
    <contour>
      <point x="600" y="-182" type="line"/>
      <point x="600" y="-200" type="line"/>
      <point x="551" y="-200" type="line" smooth="yes"/>
      <point x="510" y="-200"/>
      <point x="465" y="-159"/>
      <point x="465" y="-122" type="qcurve" smooth="yes"/>
      <point x="465" y="50" type="line"/>
      <point x="485" y="50" type="line"/>
      <point x="485" y="-122" type="line" smooth="yes"/>
      <point x="485" y="-153"/>
      <point x="516" y="-182"/>
      <point x="550" y="-182" type="qcurve" smooth="yes"/>
    </contour>
    <contour>
      <point x="110" y="376" type="line"/>
      <point x="110" y="420" type="line"/>
      <point x="122" y="420" type="line"/>
      <point x="145" y="461"/>
      <point x="240" y="510"/>
      <point x="298" y="510" type="qcurve" smooth="yes"/>
      <point x="355" y="510"/>
      <point x="439" y="462"/>
      <point x="485" y="378"/>
      <point x="485" y="324" type="qcurve" smooth="yes"/>
      <point x="485" y="0" type="line"/>
      <point x="465" y="0" type="line"/>
      <point x="465" y="320" type="line" smooth="yes"/>
      <point x="465" y="371"/>
      <point x="422" y="449"/>
      <point x="346" y="492"/>
      <point x="296" y="492" type="qcurve" smooth="yes"/>
      <point x="253" y="492"/>
      <point x="175" y="459"/>
      <point x="124" y="406"/>
      <point x="120" y="376" type="qcurve"/>
    </contour>
    <contour>
      <point x="100" y="0" type="line"/>
      <point x="100" y="500" type="line"/>
      <point x="120" y="500" type="line"/>
      <point x="120" y="0" type="line"/>
    </contour>
  </outline>
</glyph>
<glyph name="uni0274" format="2">
  <advance width="553.0"/>
  <unicode hex="0274"/>
  <outline>
    <contour>
      <point x="101" y="0" type="line"/>
      <point x="101" y="500" type="line"/>
      <point x="121" y="500" type="line"/>
      <point x="443" y="34" type="line"/>
      <point x="443" y="500" type="line"/>
      <point x="463" y="500" type="line"/>
      <point x="463" y="0" type="line"/>
      <point x="443" y="0" type="line"/>
      <point x="121" y="466" type="line"/>
      <point x="121" y="0" type="line"/>
    </contour>
  </outline>
</glyph>
